<svg xmlns="http://www.w3.org/2000/svg" xmlns:xlink="http://www.w3.org/1999/xlink" width="253" height="291" viewBox="0 0 253 291">
    <defs>
        <linearGradient id="a" x1="58.49%" x2="50%" y1="91.684%" y2="0%">
            <stop offset="0%" stop-color="#078DAA" stop-opacity="0"/>
            <stop offset="100%" stop-color="#034158" stop-opacity=".551"/>
        </linearGradient>
        <linearGradient id="d" x1="50%" x2="50%" y1="4.783%" y2="100%">
            <stop offset="0%" stop-color="#FFF" stop-opacity=".49"/>
            <stop offset="100%" stop-color="#FFF" stop-opacity=".5"/>
        </linearGradient>
        <path id="c" d="M53.18 204.12v-3.78c0-15.17-9.51-28.1-20.522-43.073C17.474 136.617.26 113.207.26 75.6.26 31.794 35.233 0 83.42 0s83.16 31.794 83.16 75.6c0 37.607-17.214 61.017-32.398 81.667-11.012 14.972-20.522 27.904-20.522 43.073v3.78H53.18z"/>
        <filter id="b" width="200%" height="200%" x="-50%" y="-50%" filterUnits="objectBoundingBox">
            <feMorphology in="SourceAlpha" operator="dilate" radius="5" result="shadowSpreadOuter1"/>
            <feOffset in="shadowSpreadOuter1" result="shadowOffsetOuter1"/>
            <feGaussianBlur in="shadowOffsetOuter1" result="shadowBlurOuter1" stdDeviation="17"/>
            <feComposite in="shadowBlurOuter1" in2="SourceAlpha" operator="out" result="shadowBlurOuter1"/>
            <feColorMatrix in="shadowBlurOuter1" values="0 0 0 0 0.0117647059 0 0 0 0 0.329411765 0 0 0 0 0.443137255 0 0 0 0.5 0"/>
        </filter>
        <linearGradient id="e" x1="50%" x2="50%" y1="0%" y2="100%">
            <stop offset="0%" stop-color="#E2EDEE"/>
            <stop offset="100%" stop-color="#FFF"/>
        </linearGradient>
    </defs>
    <g fill="none" fill-rule="evenodd">
        <path fill="#035471" d="M145.62 284.67h-37.8c-4.17 0-7.56-3.39-7.56-7.56v-15.12h7.56v15.12h37.8v-15.12h7.56v15.12c0 4.17-3.39 7.56-7.56 7.56"/>
        <path fill="#D0E3EE" d="M103.874 239.31h45.689c1.383-15.974 11.336-29.507 21.825-43.772 14.5-19.713 30.932-42.06 30.932-77.188 0-39.425-31.794-68.04-75.6-68.04s-75.6 28.615-75.6 68.04c0 35.128 16.432 57.475 30.932 77.188 10.49 14.265 20.442 27.798 21.822 43.772z"/>
        <path fill="url(#a)" d="M60.574 196.56h45.689c1.383-15.974 11.336-29.507 21.825-43.772 14.5-19.713 30.932-42.06 30.932-77.188 0-39.425-31.794-68.04-75.6-68.04S7.82 36.175 7.82 75.6c0 35.128 16.432 57.475 30.932 77.188 10.49 14.265 20.442 27.798 21.822 43.772z" transform="translate(43.3 42.75)"/>
        <g transform="translate(43.3 42.75)">
            <use fill="#000" filter="url(#b)" xlink:href="#c"/>
            <use fill="url(#d)" xlink:href="#c"/>
        </g>
        <path fill="url(#e)" d="M64.52 200.34c0-11.48-5.545-23.599-11.971-37.63C42.725 141.247 30.5 114.538 30.5 75.6 30.5 31.794 52.757 0 83.42 0v7.56c-25.859 0-45.36 29.25-45.36 68.04 0 37.29 11.847 63.168 21.365 83.961 6.788 14.837 12.655 27.651 12.655 40.779h-7.56zM102.32 200.34h-7.56c0-13.128 5.867-25.942 12.655-40.779 9.518-20.793 21.365-46.671 21.365-83.961 0-38.79-19.501-68.04-45.36-68.04V0c30.663 0 52.92 31.794 52.92 75.6 0 38.938-12.225 65.647-22.053 87.11-6.422 14.031-11.967 26.15-11.967 37.63l30.255-117.323" transform="translate(43.3 42.75)"/>
        <path fill="url(#e)" d="M83.42 200.34h-7.56c0-8.913-2.514-23.387-5.428-40.151-4.317-24.861-9.692-55.804-9.692-84.589C60.74 31.087 70.065 0 83.42 0v7.56c-3.334 0-15.12 16.296-15.12 68.04 0 28.135 5.315 58.719 9.582 83.296 2.971 17.108 5.538 31.88 5.538 41.444" transform="translate(43.3 42.75)"/>
        <path fill="url(#e)" d="M90.98 200.34h-7.56c0-9.563 2.567-24.336 5.538-41.444 4.267-24.577 9.582-55.161 9.582-83.296 0-51.744-11.786-68.04-15.12-68.04V0c13.355 0 22.68 31.087 22.68 75.6 0 28.785-5.375 59.728-9.696 84.589-2.91 16.764-5.424 31.238-5.424 40.151" transform="translate(43.3 42.75)"/>
        <path fill="#FFF" d="M153.18 261.99h3.78v-7.56H96.48v7.56h2.94v15.969c0 3.7 3.012 6.711 6.727 6.711h40.306c3.721 0 6.727-3.005 6.727-6.711V261.99z"/>
        <path fill="#74A4B8" d="M115.38 280.89h7.56v-18.9h-7.56zM130.5 280.89h7.56v-18.9h-7.56z" opacity=".5"/>
        <g fill="#FFF">
            <path d="M85.14 239.31h-56.7c-14.59 0-26.46-11.87-26.46-26.46 0-13.404 10.017-24.51 22.956-26.23 1.709-10.825 11.106-19.13 22.404-19.13v7.56c-8.339 0-15.12 6.781-15.12 15.12v3.78h-3.78c-10.421 0-18.9 8.479-18.9 18.9s8.479 18.9 18.9 18.9h56.7v7.56"/>
            <path d="M47.452 168.13c11.838 34.348 45.04 51.262 37.869 71.084 0-.642-63.433-3.03-63.433-3.03s-30.197-13.321-9.53-39.633c21.457-11.65 27.488-23.43 27.488-23.43s7.606-3.2 7.606-4.992zM194.76 193.95v-7.56H225c6.252 0 11.34-5.088 11.34-11.34s-5.088-11.34-11.34-11.34a3.781 3.781 0 0 1-3.78-3.78c0-4.17-3.39-7.56-7.56-7.56v-7.56c7.14 0 13.143 4.974 14.716 11.642 8.818 1.596 15.524 9.33 15.524 18.598 0 10.421-8.479 18.9-18.9 18.9h-30.24z"/>
            <path d="M194.967 185.954c3.713-5.401 7.625-6.811 14.452-22.707 4.928-13.403 4.241-18.222 4.241-18.222s11.123 4.414 12.323 10.75c1.199 6.335 6.373 5.392 9.206 8.276 2.833 2.884 7.572 28.331-10.406 28.331-17.977 0-29.816 1.689-29.816 1.689s-3.18-3.49 0-8.117z"/>
        </g>
    </g>
</svg>
