<svg xmlns="http://www.w3.org/2000/svg" width="250" height="100" viewBox="0 0 250 100">
    <g fill="none" fill-rule="evenodd">
        <path fill="#035471" d="M.738 28.94h8.005v23.463h9.889V28.94h8.005v54.773h-8.005V59.326H8.743v24.387H.738V28.94M39.51 67.171v5.31c0 1.23.353 2.18 1.059 2.845.706.668 1.66 1.001 2.863 1.001 1.519 0 2.525-.434 3.022-1.307.498-.872.798-1.743.904-2.615h8.005c0 1.643-.275 3.18-.824 4.616-.55 1.436-1.348 2.667-2.395 3.692-1.047 1.078-2.303 1.924-3.767 2.539-1.465.615-3.114.923-4.945.923-2.46 0-4.578-.512-6.356-1.538-1.78-1.025-3.14-2.384-4.081-4.077-.577-1.028-.969-2.206-1.178-3.54-.21-1.332-.314-2.794-.314-4.384v-12.85c0-1.588.105-3.05.314-4.384.21-1.333.6-2.512 1.178-3.538.942-1.693 2.301-3.05 4.08-4.078 1.78-1.026 3.898-1.538 6.357-1.538 1.831 0 3.493.307 4.985.922 1.49.616 2.748 1.475 3.768 2.579 1.02 1.101 1.805 2.397 2.354 3.883.549 1.488.824 3.078.824 4.77V67.17H39.509zm0-6.152h7.848v-4.463c0-1.488-.353-2.601-1.06-3.345-.706-.744-1.66-1.117-2.866-1.117-1.203 0-2.157.373-2.863 1.117s-1.06 1.857-1.06 3.345v4.463zM60.778 28.94h8.005v43.772c0 1.488.274 2.5.824 3.04.55.537 1.583.883 3.1 1.037v7.386c-1.831 0-3.492-.142-4.982-.423-1.493-.282-2.748-.819-3.77-1.614-1.018-.797-1.803-1.911-2.353-3.348-.55-1.436-.824-3.283-.824-5.54V28.94M76.253 28.94h8.006v43.772c0 1.488.275 2.5.825 3.04.549.537 1.581.883 3.1 1.037v7.386c-1.832 0-3.493-.142-4.985-.423-1.491-.282-2.746-.819-3.767-1.614-1.02-.797-1.804-1.911-2.353-3.348-.551-1.436-.826-3.283-.826-5.54V28.94M91.496 57.787c0-1.589.103-3.05.313-4.385.208-1.333.6-2.512 1.177-3.538.943-1.693 2.303-3.05 4.081-4.078 1.778-1.026 3.898-1.538 6.358-1.538 2.458 0 4.577.512 6.357 1.538 1.777 1.027 3.14 2.385 4.083 4.078.574 1.026.966 2.205 1.175 3.538.21 1.335.314 2.796.314 4.385v12.849c0 1.59-.105 3.052-.314 4.384-.209 1.334-.601 2.512-1.175 3.54-.944 1.693-2.306 3.052-4.083 4.077-1.78 1.026-3.9 1.538-6.357 1.538-2.46 0-4.58-.512-6.358-1.538-1.778-1.025-3.138-2.384-4.081-4.077-.576-1.028-.969-2.206-1.177-3.54-.21-1.332-.313-2.794-.313-4.384v-12.85zM99.5 71.866c0 1.488.354 2.603 1.06 3.347.705.744 1.66 1.114 2.865 1.114 1.203 0 2.158-.37 2.864-1.114.707-.744 1.06-1.86 1.06-3.347v-15.31c0-1.488-.353-2.601-1.06-3.345-.706-.744-1.66-1.117-2.864-1.117-1.205 0-2.16.373-2.865 1.117-.706.744-1.06 1.857-1.06 3.345v15.31zM120.723 41.863c0-2.203.392-4.154 1.176-5.847.785-1.692 1.818-3.089 3.1-4.193a13.455 13.455 0 0 1 4.316-2.5 14.433 14.433 0 0 1 4.827-.846c1.622 0 3.232.284 4.829.846a13.462 13.462 0 0 1 4.316 2.5c1.28 1.104 2.315 2.5 3.1 4.193.784 1.693 1.177 3.644 1.177 5.847v2.77h-8.005v-2.77c0-1.896-.538-3.294-1.609-4.193-1.073-.896-2.343-1.346-3.808-1.346-1.465 0-2.733.45-3.805 1.346-1.074.899-1.61 2.297-1.61 4.193v28.926c0 1.9.536 3.296 1.61 4.192 1.072.9 2.34 1.346 3.805 1.346 1.465 0 2.735-.447 3.808-1.346 1.071-.896 1.609-2.293 1.609-4.192V60.48H133.2v-6.924h14.363V70.79c0 2.257-.393 4.22-1.177 5.885-.785 1.667-1.82 3.053-3.1 4.154a13.37 13.37 0 0 1-4.316 2.5 14.389 14.389 0 0 1-4.83.847 14.38 14.38 0 0 1-4.826-.847 13.363 13.363 0 0 1-4.316-2.5c-1.282-1.101-2.315-2.487-3.1-4.154-.784-1.665-1.176-3.628-1.176-5.885V41.863l4.282 32.304M153.216 28.94h8.005v19.308h.156c.89-1.28 1.95-2.27 3.178-2.962 1.23-.692 2.63-1.038 4.2-1.038 1.934 0 3.44.334 4.512 1a8.466 8.466 0 0 1 2.63 2.538c.523.822.863 1.898 1.02 3.231.158 1.335.236 3.412.236 6.23v14.848c0 2.155-.106 3.874-.315 5.155-.21 1.284-.548 2.36-1.02 3.232-1.362 2.463-3.689 3.693-6.986 3.693-1.987 0-3.505-.384-4.55-1.154-1.047-.768-2.068-1.717-3.061-2.847v3.539h-8.005V28.94zm15.93 27.77c0-1.23-.274-2.307-.823-3.23-.55-.924-1.583-1.386-3.1-1.386-1.152 0-2.108.398-2.864 1.194-.76.794-1.138 1.808-1.138 3.04v15.154c0 1.436.365 2.603 1.097 3.5.734.898 1.7 1.345 2.905 1.345 1.359 0 2.355-.486 2.983-1.461.626-.973.94-2.256.94-3.846V56.71zM188.296 44.71l5.494 24.31h.157l5.416-24.31h8.24l-11.457 45.774c-.421 1.741-1.01 3.192-1.768 4.346s-1.634 2.077-2.629 2.77a9.633 9.633 0 0 1-3.177 1.46c-1.126.281-2.29.423-3.494.423h-2.197v-7.385h1.806c.783 0 1.464-.103 2.04-.307.575-.205 1.084-.654 1.532-1.346.442-.694.85-1.719 1.215-3.078.365-1.36.783-3.168 1.256-5.422L179.82 44.71h8.475M217.57 67.171v5.31c0 1.23.354 2.18 1.06 2.845.706.668 1.661 1.001 2.866 1.001 1.515 0 2.521-.434 3.02-1.307.497-.872.798-1.743.902-2.615h8.007c0 1.643-.276 3.18-.826 4.616-.548 1.436-1.348 2.667-2.392 3.692-1.048 1.078-2.304 1.924-3.768 2.539-1.465.615-3.114.923-4.943.923-2.46 0-4.581-.512-6.357-1.538-1.782-1.025-3.141-2.384-4.083-4.077-.576-1.028-.97-2.206-1.177-3.54-.209-1.332-.314-2.794-.314-4.384v-12.85c0-1.588.105-3.05.314-4.384.207-1.333.601-2.512 1.177-3.538.942-1.693 2.301-3.05 4.083-4.078 1.776-1.026 3.897-1.538 6.357-1.538 1.829 0 3.491.307 4.983.922 1.49.616 2.747 1.475 3.766 2.579 1.02 1.101 1.806 2.397 2.354 3.883.55 1.488.826 3.078.826 4.77V67.17H217.57zm0-6.152h7.848v-4.463c0-1.488-.352-2.601-1.059-3.345-.706-.744-1.662-1.117-2.863-1.117-1.205 0-2.16.373-2.866 1.117s-1.06 1.857-1.06 3.345v4.463z"/>
        <path fill="#EE3A3C" d="M249.95 9.46c0-2.242-1.854-4.06-4.14-4.06h-8.695V3.77c0-1.617-1.343-2.936-2.995-2.936h-5.84c-1.652 0-2.997 1.32-2.997 2.936V5.4h-8.802c-2.286 0-4.14 1.818-4.14 4.06v17.683c0 2.24 1.854 4.061 4.14 4.061h22.653l-2.163 8.59 11.437-9.491c.06-.05.114-.099.172-.147l.102-.093c.798-.705 1.268-1.772 1.268-2.92V9.46zm-22.323-5.69c0-.352.293-.635.653-.635h5.84c.359 0 .65.283.65.635V5.4h-7.143V3.77z"/>
    </g>
</svg>
