<svg xmlns="http://www.w3.org/2000/svg" width="15" height="15" viewBox="0 0 15 15">
    <path fill="#6D93A2" fill-rule="nonzero" d="M6.823 11.585L4.09 13.086l.522-3.18c.076-.465-.094-1.014-.418-1.344L1.98 6.31l3.058-.464c.447-.068.894-.407 1.095-.83L7.5 2.125l1.366 2.89c.2.423.647.763 1.095.831l3.054.468-2.209 2.248a1.643 1.643 0 0 0-.418 1.344l.53 3.184-2.742-1.505c-.4-.22-.953-.22-1.354 0zm.662 1.374l3.41 1.872c.908.499 1.785-.166 1.61-1.223l-.65-3.964c.006.038.017.003-.01.03l2.759-2.808c.735-.748.4-1.824-.616-1.978l-3.812-.579c.037.006.008-.016.025.02L8.496.72C8.042-.24 6.96-.24 6.504.721L4.799 4.328c.017-.035-.012-.013.025-.019l-3.812.579c-1.016.154-1.351 1.23-.616 1.978l2.759 2.808c-.027-.027-.016.008-.01-.03l-.65 3.964c-.174 1.057.702 1.722 1.61 1.223l3.41-1.872c-.033.018.003.018-.03 0z"/>
</svg>
