<?xml version="1.0" encoding="UTF-8" standalone="no"?>
<svg width="118px" height="91px" viewBox="0 0 118 91" version="1.1" xmlns="http://www.w3.org/2000/svg" xmlns:xlink="http://www.w3.org/1999/xlink">
    <!-- Generator: sketchtool 3.7 (28169) - http://www.bohemiancoding.com/sketch -->
    <title>01C5C246-3EFE-4558-B6D1-1DFE9A8172E8</title>
    <desc>Created with sketchtool.</desc>
    <defs></defs>
    <g id="Responsive-Web" stroke="none" stroke-width="1" fill="none" fill-rule="evenodd">
        <g id="Onbording---CNC---spaceing+-flight_watermark_a1" transform="translate(-769.000000, -446.000000)">
            <g id="Group-6" transform="translate(755.000000, 419.000000)">
                <g id="Group-4" opacity="0.1" fill="#323937">
                    <path d="M74.733125,89.1250312 L71.266875,87.8749687 C72.594375,84.1819375 77.2221875,75.59375 91.4375,75.59375 C98.9286562,75.59375 105.944125,78.5419062 111.189594,83.8924687 L108.556719,86.4737188 C104.010031,81.8348437 97.9293437,79.28125 91.4375,79.28125 C79.9878125,79.28125 76.0587812,85.4485937 74.733125,89.1250312" id="Fill-51"></path>
                    <path d="M49.03125,110.625 L45.34375,110.625 C45.34375,100.458562 53.6148125,92.1875 63.78125,92.1875 C68.3260938,92.1875 72.6920937,93.8560937 76.0772187,96.885375 L73.6176562,99.6325625 C70.9110312,97.209875 67.417125,95.875 63.78125,95.875 C55.6484687,95.875 49.03125,102.492219 49.03125,110.625" id="Fill-52"></path>
                    <path d="M117.25,110.625 L117.25,106.9375 C123.350969,106.9375 128.3125,101.975969 128.3125,95.875 C128.3125,89.7740312 123.350969,84.8125 117.25,84.8125 C111.149031,84.8125 106.1875,89.7740312 106.1875,95.875 L102.5,95.875 C102.5,87.7422187 109.117219,81.125 117.25,81.125 C125.382781,81.125 132,87.7422187 132,95.875 C132,104.007781 125.382781,110.625 117.25,110.625" id="Fill-53"></path>
                    <polygon id="Fill-54" points="91.4375 110.625 117.25 110.625 117.25 106.9375 91.4375 106.9375"></polygon>
                    <polygon id="Fill-55" points="80.375 110.625 87.75 110.625 87.75 106.9375 80.375 106.9375"></polygon>
                    <polygon id="Fill-56" points="25.0625 118 32.4375 118 32.4375 114.3125 25.0625 114.3125"></polygon>
                    <path d="M25.0625,118 C18.9615313,118 14,113.038469 14,106.9375 C14,101.275344 18.2738125,96.5940625 23.7663438,95.9505937 C26.2664688,90.1851875 32.2918437,86.65625 39.8125,86.65625 C47.984,86.65625 54.5625,92.7074375 54.5625,97.71875 L50.875,97.71875 C50.875,95.1282812 46.3117188,90.34375 39.8125,90.34375 C33.4294375,90.34375 28.447625,93.3933125 26.810375,98.301375 L26.3918438,99.5625 L25.0625,99.5625 C20.9951875,99.5625 17.6875,102.870187 17.6875,106.9375 C17.6875,111.004812 20.9951875,114.3125 25.0625,114.3125 L25.0625,118" id="Fill-57"></path>
                </g>
                <g id="Group-5" transform="translate(29.000000, 29.000000)" stroke="#B9B9B9" stroke-width="4" stroke-linecap="round">
                    <path d="M39.5585963,20.9992144 L25.6906644,29.0909144 C20.9659089,31.8475093 17.8479575,30.1030619 2.81432772,26.8184751 L-1.42108547e-14,28.4603771 L12.2026493,36.9606934 L9.74035455,38.3975044 C9.13620549,38.7501513 9.45299647,39.6887165 10.1446697,39.5963473 C28.2664307,37.1767435 36.8573529,33.7453836 36.8573529,33.7453836 L76.7323529,10.4785172 C76.7323529,10.4785172 90.4844896,2.45452851 85.0169406,0.435713161 C78.9382716,-1.8085457 66.3824275,5.34732887 66.3824275,5.34732887 L51.0250357,14.3083171 L25.595782,5.30388402 L24.0555892,6.20252691 L42.2842381,23.1828071" id="Shape"></path>
                    <polyline id="Shape" points="58.0370631 23 57.0448644 31.978601 54.6902322 33.8248112 49 28.4126013"></polyline>
                </g>
            </g>
        </g>
    </g>
</svg>