<?xml version="1.0" encoding="UTF-8" standalone="no"?>
<svg width="100px" height="40px" viewBox="0 0 100 40" version="1.1" xmlns="http://www.w3.org/2000/svg" xmlns:xlink="http://www.w3.org/1999/xlink" xmlns:sketch="http://www.bohemiancoding.com/sketch/ns">
    <!-- Generator: sketchtool 3.4.4 (395) - http://www.bohemiancoding.com/sketch -->
    <title>Logo</title>
    <desc>Created with sketchtool.</desc>
    <defs></defs>
    <g id="My-Trips" stroke="none" stroke-width="1" fill="none" fill-rule="evenodd" sketch:type="MSPage">
        <g id="Desktop---My-Trips---Flight-Booked" sketch:type="MSArtboardGroup" transform="translate(-19.000000, -15.000000)">
            <g id="Control-box" sketch:type="MSLayerGroup" transform="translate(-8.000000, -773.000000)">
                <g id="Sidebar" sketch:type="MSShapeGroup">
                    <g id="Logo" transform="translate(27.000000, 788.000000)">
                        <path d="M0.0152941176,11.3982609 L3.22647059,11.3982609 L3.22647059,20.8617391 L7.19323529,20.8617391 L7.19323529,11.3982609 L10.4047059,11.3982609 L10.4047059,33.4901449 L7.19323529,33.4901449 L7.19323529,23.6542029 L3.22647059,23.6542029 L3.22647059,33.4901449 L0.0152941176,33.4901449 L0.0152941176,11.3982609" id="Fill-1" fill="#FFFFFF"></path>
                        <path d="M15.5682353,26.8182609 L15.5682353,28.96 C15.5682353,29.4562319 15.71,29.8391304 15.9932353,30.1075362 C16.2764706,30.3768116 16.6591176,30.5113043 17.1420588,30.5113043 C17.7511765,30.5113043 18.1547059,30.335942 18.3541176,29.984058 C18.5538235,29.6321739 18.6744118,29.2811594 18.7167647,28.9292754 L21.9279412,28.9292754 C21.9279412,29.5918841 21.8176471,30.2118841 21.5973529,30.7910145 C21.3770588,31.3704348 21.0567647,31.8666667 20.6367647,32.28 C20.2167647,32.7147826 19.7126471,33.0562319 19.1255882,33.304058 C18.5379412,33.5524638 17.8764706,33.6765217 17.1420588,33.6765217 C16.1552941,33.6765217 15.3055882,33.4698551 14.5920588,33.0562319 C13.8782353,32.6426087 13.3329412,32.0944928 12.955,31.4115942 C12.7235294,30.9971014 12.5664706,30.522029 12.4826471,29.984058 C12.3985294,29.4466667 12.3564706,28.8571014 12.3564706,28.2156522 L12.3564706,23.0333333 C12.3564706,22.3924638 12.3985294,21.8031884 12.4826471,21.2646377 C12.5664706,20.7269565 12.7235294,20.2515942 12.955,19.8376812 C13.3329412,19.1547826 13.8782353,18.6072464 14.5920588,18.1930435 C15.3055882,17.7791304 16.1552941,17.5724638 17.1420588,17.5724638 C17.8764706,17.5724638 18.5429412,17.6965217 19.1414706,17.9446377 C19.7394118,18.1930435 20.2438235,18.5394203 20.6529412,18.9846377 C21.0620588,19.4289855 21.3770588,19.9515942 21.5973529,20.5507246 C21.8176471,21.1510145 21.9279412,21.7924638 21.9279412,22.4744928 L21.9279412,26.8182609 L15.5682353,26.8182609 L15.5682353,26.8182609 Z M15.5682353,24.3371014 L18.7167647,24.3371014 L18.7167647,22.5368116 C18.7167647,21.9368116 18.575,21.4878261 18.2914706,21.1878261 C18.0082353,20.8878261 17.6252941,20.7373913 17.1420588,20.7373913 C16.6591176,20.7373913 16.2764706,20.8878261 15.9932353,21.1878261 C15.71,21.4878261 15.5682353,21.9368116 15.5682353,22.5368116 L15.5682353,24.3371014 L15.5682353,24.3371014 Z" id="Fill-2" fill="#FFFFFF"></path>
                        <path d="M24.1,11.3982609 L27.3114706,11.3982609 L27.3114706,29.0530435 C27.3114706,29.6533333 27.4214706,30.0617391 27.6420588,30.2791304 C27.8623529,30.4956522 28.2767647,30.6353623 28.8855882,30.6976812 L28.8855882,33.6765217 C28.1508824,33.6765217 27.4847059,33.6191304 26.8867647,33.5057971 C26.2882353,33.3921739 25.7844118,33.1756522 25.375,32.8547826 C24.9661765,32.5333333 24.6511765,32.084058 24.4305882,31.5046377 C24.21,30.9255072 24.1,30.1805797 24.1,29.2698551 L24.1,11.3982609" id="Fill-3" fill="#FFFFFF"></path>
                        <path d="M30.3079412,11.3982609 L33.5194118,11.3982609 L33.5194118,29.0530435 C33.5194118,29.6533333 33.6297059,30.0617391 33.8505882,30.2791304 C34.0705882,30.4956522 34.4847059,30.6353623 35.0938235,30.6976812 L35.0938235,33.6765217 C34.3591176,33.6765217 33.6929412,33.6191304 33.0944118,33.5057971 C32.4961765,33.3921739 31.9926471,33.1756522 31.5832353,32.8547826 C31.1738235,32.5333333 30.8597059,32.084058 30.6391176,31.5046377 C30.4182353,30.9255072 30.3079412,30.1805797 30.3079412,29.2698551 L30.3079412,11.3982609" id="Fill-4" fill="#FFFFFF"></path>
                        <path d="M36.4226471,23.0333333 C36.4226471,22.3924638 36.4641176,21.8031884 36.5482353,21.2646377 C36.6317647,20.7269565 36.7891176,20.2515942 37.0202941,19.8376812 C37.3985294,19.1547826 37.9441176,18.6072464 38.6576471,18.1930435 C39.3708824,17.7791304 40.2211765,17.5724638 41.2079412,17.5724638 C42.1938235,17.5724638 43.0438235,17.7791304 43.7582353,18.1930435 C44.4708824,18.6072464 45.0173529,19.1547826 45.3958824,19.8376812 C45.6261765,20.2515942 45.7835294,20.7269565 45.8673529,21.2646377 C45.9511765,21.8031884 45.9932353,22.3924638 45.9932353,23.0333333 L45.9932353,28.2156522 C45.9932353,28.8571014 45.9511765,29.4466667 45.8673529,29.984058 C45.7835294,30.522029 45.6261765,30.9971014 45.3958824,31.4115942 C45.0173529,32.0944928 44.4708824,32.6426087 43.7582353,33.0562319 C43.0438235,33.4698551 42.1938235,33.6765217 41.2079412,33.6765217 C40.2211765,33.6765217 39.3708824,33.4698551 38.6576471,33.0562319 C37.9441176,32.6426087 37.3985294,32.0944928 37.0202941,31.4115942 C36.7891176,30.9971014 36.6317647,30.522029 36.5482353,29.984058 C36.4641176,29.4466667 36.4226471,28.8571014 36.4226471,28.2156522 L36.4226471,23.0333333 L36.4226471,23.0333333 Z M39.6335294,28.7118841 C39.6335294,29.3118841 39.7752941,29.7617391 40.0585294,30.0617391 C40.3414706,30.3617391 40.7247059,30.5113043 41.2079412,30.5113043 C41.6905882,30.5113043 42.0735294,30.3617391 42.3567647,30.0617391 C42.6405882,29.7617391 42.7817647,29.3118841 42.7817647,28.7118841 L42.7817647,22.5368116 C42.7817647,21.9368116 42.6405882,21.4878261 42.3567647,21.1878261 C42.0735294,20.8878261 41.6905882,20.7373913 41.2079412,20.7373913 C40.7247059,20.7373913 40.3414706,20.8878261 40.0585294,21.1878261 C39.7752941,21.4878261 39.6335294,21.9368116 39.6335294,22.5368116 L39.6335294,28.7118841 L39.6335294,28.7118841 Z" id="Fill-5" fill="#FFFFFF"></path>
                        <path d="M48.1470588,16.6107246 C48.1470588,15.722029 48.3041176,14.9353623 48.6188235,14.2524638 C48.9338235,13.5698551 49.3479412,13.0066667 49.8623529,12.5614493 C50.3767647,12.1171014 50.9535294,11.7808696 51.5938235,11.5530435 C52.2344118,11.326087 52.8794118,11.2115942 53.53,11.2115942 C54.1808824,11.2115942 54.8264706,11.326087 55.4670588,11.5530435 C56.1070588,11.7808696 56.6841176,12.1171014 57.1985294,12.5614493 C57.7123529,13.0066667 58.1270588,13.5698551 58.4420588,14.2524638 C58.7564706,14.9353623 58.9144118,15.722029 58.9144118,16.6107246 L58.9144118,17.7281159 L55.7029412,17.7281159 L55.7029412,16.6107246 C55.7029412,15.8457971 55.4873529,15.282029 55.0576471,14.9197101 C54.6273529,14.557971 54.1176471,14.3768116 53.53,14.3768116 C52.9423529,14.3768116 52.4335294,14.557971 52.0035294,14.9197101 C51.5729412,15.282029 51.3579412,15.8457971 51.3579412,16.6107246 L51.3579412,28.2773913 C51.3579412,29.0434783 51.5729412,29.6069565 52.0035294,29.9684058 C52.4335294,30.3310145 52.9423529,30.5113043 53.53,30.5113043 C54.1176471,30.5113043 54.6273529,30.3310145 55.0576471,29.9684058 C55.4873529,29.6069565 55.7029412,29.0434783 55.7029412,28.2773913 L55.7029412,24.1197101 L53.1526471,24.1197101 L53.1526471,21.3269565 L58.9144118,21.3269565 L58.9144118,28.2773913 C58.9144118,29.1878261 58.7564706,29.9797101 58.4420588,30.6513043 C58.1270588,31.3234783 57.7123529,31.8823188 57.1985294,32.3266667 C56.6841176,32.7721739 56.1070588,33.1081159 55.4670588,33.3350725 C54.8264706,33.5628986 54.1808824,33.6765217 53.53,33.6765217 C52.8794118,33.6765217 52.2344118,33.5628986 51.5938235,33.3350725 C50.9535294,33.1081159 50.3767647,32.7721739 49.8623529,32.3266667 C49.3479412,31.8823188 48.9338235,31.3234783 48.6188235,30.6513043 C48.3041176,29.9797101 48.1470588,29.1878261 48.1470588,28.2773913 L48.1470588,16.6107246" id="Fill-6" fill="#FFFFFF"></path>
                        <path d="M61.1814706,11.3982609 L64.3926471,11.3982609 L64.3926471,19.186087 L64.4552941,19.186087 C64.8120588,18.6695652 65.2373529,18.2701449 65.73,17.9913043 C66.2235294,17.7121739 66.7852941,17.5724638 67.4147059,17.5724638 C68.1908824,17.5724638 68.7947059,17.7072464 69.225,17.9762319 C69.655,18.2446377 70.0073529,18.586087 70.2797059,18.9997101 C70.4897059,19.3313043 70.6261765,19.7652174 70.6888235,20.3028986 C70.7523529,20.8411594 70.7838235,21.6788406 70.7838235,22.815942 L70.7838235,28.8043478 C70.7838235,29.6736232 70.7411765,30.3669565 70.6573529,30.8834783 C70.5735294,31.4011594 70.4376471,31.8356522 70.2485294,32.1869565 C69.7020588,33.1802899 68.7685294,33.6765217 67.4458824,33.6765217 C66.6488235,33.6765217 66.0397059,33.5214493 65.6202941,33.2110145 C65.2005882,32.9011594 64.7908824,32.5185507 64.3926471,32.0626087 L64.3926471,33.4901449 L61.1814706,33.4901449 L61.1814706,11.3982609 L61.1814706,11.3982609 Z M67.5717647,22.5991304 C67.5717647,22.1031884 67.4617647,21.6684058 67.2414706,21.2962319 C67.0208824,20.9234783 66.6067647,20.7373913 65.9979412,20.7373913 C65.5361765,20.7373913 65.1526471,20.8976812 64.8491176,21.2188406 C64.5441176,21.5391304 64.3926471,21.9481159 64.3926471,22.4446377 L64.3926471,28.5571014 C64.3926471,29.1362319 64.5391176,29.6069565 64.8329412,29.9684058 C65.1270588,30.3310145 65.5147059,30.5113043 65.9979412,30.5113043 C66.5432353,30.5113043 66.9426471,30.3150725 67.1947059,29.9217391 C67.4458824,29.5292754 67.5717647,29.0118841 67.5717647,28.3707246 L67.5717647,22.5991304 L67.5717647,22.5991304 Z" id="Fill-7" fill="#FFFFFF"></path>
                        <path d="M75.2538235,17.7591304 L77.4576471,27.5637681 L77.5208824,27.5637681 L79.6932353,17.7591304 L82.9988235,17.7591304 L78.4029412,36.2211594 C78.2338235,36.9234783 77.9979412,37.5084058 77.6935294,37.973913 C77.3897059,38.4394203 77.0379412,38.8115942 76.6391176,39.0913043 C76.2402941,39.3701449 75.8155882,39.5666667 75.3644118,39.6802899 C74.9129412,39.7936232 74.4455882,39.8507246 73.9629412,39.8507246 L73.0814706,39.8507246 L73.0814706,36.8721739 L73.8058824,36.8721739 C74.1202941,36.8721739 74.3935294,36.8304348 74.6244118,36.7481159 C74.855,36.6655072 75.0594118,36.4843478 75.2388235,36.2052174 C75.4161765,35.9255072 75.5797059,35.5121739 75.7261765,34.9637681 C75.8726471,34.4156522 76.0405882,33.6863768 76.23,32.7771014 L71.8541176,17.7591304 L75.2538235,17.7591304" id="Fill-8" fill="#FFFFFF"></path>
                        <path d="M86.9973529,26.8182609 L86.9973529,28.96 C86.9973529,29.4562319 87.1391176,29.8391304 87.4223529,30.1075362 C87.7055882,30.3768116 88.0885294,30.5113043 88.5717647,30.5113043 C89.1797059,30.5113043 89.5832353,30.335942 89.7832353,29.984058 C89.9826471,29.6321739 90.1035294,29.2811594 90.1452941,28.9292754 L93.3570588,28.9292754 C93.3570588,29.5918841 93.2464706,30.2118841 93.0258824,30.7910145 C92.8061765,31.3704348 92.4852941,31.8666667 92.0661765,32.28 C91.6458824,32.7147826 91.1420588,33.0562319 90.5547059,33.304058 C89.9670588,33.5524638 89.3055882,33.6765217 88.5717647,33.6765217 C87.585,33.6765217 86.7341176,33.4698551 86.0217647,33.0562319 C85.3070588,32.6426087 84.7617647,32.0944928 84.3841176,31.4115942 C84.1529412,30.9971014 83.995,30.522029 83.9117647,29.984058 C83.8279412,29.4466667 83.7858824,28.8571014 83.7858824,28.2156522 L83.7858824,23.0333333 C83.7858824,22.3924638 83.8279412,21.8031884 83.9117647,21.2646377 C83.995,20.7269565 84.1529412,20.2515942 84.3841176,19.8376812 C84.7617647,19.1547826 85.3070588,18.6072464 86.0217647,18.1930435 C86.7341176,17.7791304 87.585,17.5724638 88.5717647,17.5724638 C89.3055882,17.5724638 89.9723529,17.6965217 90.5708824,17.9446377 C91.1688235,18.1930435 91.6729412,18.5394203 92.0814706,18.9846377 C92.4908824,19.4289855 92.8061765,19.9515942 93.0258824,20.5507246 C93.2464706,21.1510145 93.3570588,21.7924638 93.3570588,22.4744928 L93.3570588,26.8182609 L86.9973529,26.8182609 L86.9973529,26.8182609 Z M86.9973529,24.3371014 L90.1452941,24.3371014 L90.1452941,22.5368116 C90.1452941,21.9368116 90.0038235,21.4878261 89.7205882,21.1878261 C89.4370588,20.8878261 89.0538235,20.7373913 88.5717647,20.7373913 C88.0885294,20.7373913 87.7055882,20.8878261 87.4223529,21.1878261 C87.1391176,21.4878261 86.9973529,21.9368116 86.9973529,22.5368116 L86.9973529,24.3371014 L86.9973529,24.3371014 Z" id="Fill-9" fill="#FFFFFF"></path>
                        <path d="M99.9861765,3.54144928 C99.9861765,2.63710145 99.2426471,1.90405797 98.3252941,1.90405797 L94.8376471,1.90405797 L94.8376471,1.24666667 C94.8376471,0.594492754 94.2985294,0.0623188406 93.6358824,0.0623188406 L91.2932353,0.0623188406 C90.6305882,0.0623188406 90.0908824,0.594492754 90.0908824,1.24666667 L90.0908824,1.90405797 L86.5602941,1.90405797 C85.6432353,1.90405797 84.8991176,2.63710145 84.8991176,3.54144928 L84.8991176,10.6736232 C84.8991176,11.5773913 85.6432353,12.3115942 86.5602941,12.3115942 L95.6473529,12.3115942 L94.7797059,15.7765217 L99.3676471,11.9481159 C99.3914706,11.9278261 99.4135294,11.9084058 99.4364706,11.8889855 L99.4773529,11.8515942 C99.7976471,11.5669565 99.9861765,11.1365217 99.9861765,10.6736232 L99.9861765,3.54144928 L99.9861765,3.54144928 Z M91.0314706,1.24666667 C91.0314706,1.10463768 91.1488235,0.990434783 91.2932353,0.990434783 L93.6358824,0.990434783 C93.78,0.990434783 93.8964706,1.10463768 93.8964706,1.24666667 L93.8964706,1.90405797 L91.0314706,1.90405797 L91.0314706,1.24666667 L91.0314706,1.24666667 Z" id="Fill-10" fill="#EE3A3C"></path>
                    </g>
                </g>
            </g>
        </g>
    </g>
</svg>