<?xml version="1.0" encoding="UTF-8" standalone="no"?>
<svg width="340px" height="138px" viewBox="0 0 340 138" version="1.1" xmlns="http://www.w3.org/2000/svg" xmlns:xlink="http://www.w3.org/1999/xlink" xmlns:sketch="http://www.bohemiancoding.com/sketch/ns">
    <!-- Generator: Sketch 3.3.2 (12043) - http://www.bohemiancoding.com/sketch -->
    <title>HelloGbye_Logo_Hor_RGB_Red</title>
    <desc>Created with Sketch.</desc>
    <defs></defs>
    <g id="Page-1" stroke="none" stroke-width="1" fill="none" fill-rule="evenodd" sketch:type="MSPage">
        <g id="HelloGbye_Logo_Hor_RGB_Red" sketch:type="MSLayerGroup">
            <g id="Group" transform="translate(0.000000, 38.000000)" fill="#003346" sketch:type="MSShapeGroup">
                <path d="M0.052,1.324 L10.97,1.324 L10.97,33.973 L24.457,33.973 L24.457,1.324 L35.376,1.324 L35.376,77.541 L24.457,77.541 L24.457,43.607 L10.97,43.607 L10.97,77.541 L0.052,77.541 L0.052,1.324 L0.052,1.324 Z" id="Shape"></path>
                <path d="M52.932,54.523 L52.932,61.912 C52.932,63.624 53.415,64.945 54.377,65.871 C55.341,66.8 56.642,67.264 58.284,67.264 C60.354,67.264 61.727,66.66 62.405,65.446 C63.083,64.232 63.493,63.02 63.637,61.806 L74.555,61.806 C74.555,64.092 74.18,66.232 73.432,68.23 C72.682,70.228 71.594,71.94 70.166,73.367 C68.738,74.867 67.024,76.045 65.028,76.9 C63.03,77.756 60.781,78.184 58.284,78.184 C54.929,78.184 52.04,77.471 49.614,76.044 C47.187,74.617 45.332,72.726 44.048,70.37 C43.261,68.94 42.726,67.301 42.442,65.445 C42.155,63.59 42.013,61.556 42.013,59.343 L42.013,41.464 C42.013,39.253 42.156,37.22 42.442,35.362 C42.726,33.507 43.261,31.867 44.048,30.438 C45.332,28.083 47.187,26.194 49.614,24.764 C52.04,23.336 54.928,22.623 58.284,22.623 C60.781,22.623 63.047,23.051 65.082,23.907 C67.115,24.763 68.83,25.959 70.22,27.495 C71.612,29.028 72.682,30.831 73.432,32.898 C74.18,34.968 74.555,37.181 74.555,39.535 L74.555,54.521 L52.932,54.521 L52.932,54.523 Z M52.932,45.963 L63.637,45.963 L63.637,39.752 C63.637,37.682 63.156,36.133 62.192,35.098 C61.229,34.063 59.926,33.544 58.284,33.544 C56.642,33.544 55.341,34.063 54.377,35.098 C53.415,36.133 52.932,37.682 52.932,39.752 L52.932,45.963 L52.932,45.963 Z" id="Shape"></path>
                <path d="M81.94,1.324 L92.859,1.324 L92.859,62.234 C92.859,64.304 93.233,65.713 93.983,66.463 C94.732,67.21 96.141,67.693 98.211,67.907 L98.211,78.183 C95.713,78.183 93.448,77.986 91.414,77.594 C89.38,77.202 87.666,76.455 86.275,75.348 C84.884,74.24 83.813,72.689 83.063,70.691 C82.314,68.693 81.94,66.123 81.94,62.981 L81.94,1.324 L81.94,1.324 Z" id="Shape"></path>
                <path d="M103.047,1.324 L113.966,1.324 L113.966,62.234 C113.966,64.304 114.34,65.713 115.092,66.463 C115.84,67.21 117.248,67.693 119.319,67.907 L119.319,78.183 C116.821,78.183 114.556,77.986 112.521,77.594 C110.487,77.202 108.775,76.455 107.383,75.348 C105.991,74.24 104.923,72.689 104.173,70.691 C103.422,68.693 103.047,66.123 103.047,62.981 L103.047,1.324 L103.047,1.324 Z" id="Shape"></path>
                <path d="M123.837,41.465 C123.837,39.254 123.977,37.221 124.264,35.363 C124.548,33.508 125.082,31.868 125.869,30.439 C127.156,28.084 129.011,26.195 131.436,24.765 C133.862,23.337 136.752,22.624 140.107,22.624 C143.459,22.624 146.349,23.337 148.778,24.765 C151.201,26.195 153.058,28.083 154.345,30.439 C155.128,31.868 155.663,33.507 155.948,35.363 C156.234,37.22 156.376,39.254 156.376,41.465 L156.376,59.344 C156.376,61.557 156.233,63.591 155.948,65.446 C155.663,67.301 155.128,68.941 154.345,70.371 C153.058,72.726 151.2,74.618 148.778,76.045 C146.348,77.472 143.459,78.185 140.107,78.185 C136.752,78.185 133.861,77.472 131.436,76.045 C129.011,74.618 127.156,72.727 125.869,70.371 C125.083,68.941 124.548,67.302 124.264,65.446 C123.977,63.591 123.837,61.557 123.837,59.344 L123.837,41.465 L123.837,41.465 Z M134.754,61.056 C134.754,63.126 135.236,64.678 136.199,65.713 C137.161,66.748 138.464,67.264 140.107,67.264 C141.748,67.264 143.05,66.748 144.013,65.713 C144.978,64.678 145.458,63.126 145.458,61.056 L145.458,39.752 C145.458,37.682 144.978,36.133 144.013,35.098 C143.051,34.063 141.748,33.544 140.107,33.544 C138.464,33.544 137.161,34.063 136.199,35.098 C135.237,36.133 134.754,37.682 134.754,39.752 L134.754,61.056 L134.754,61.056 Z" id="Shape"></path>
                <path d="M163.7,19.307 C163.7,16.241 164.234,13.527 165.304,11.171 C166.375,8.816 167.783,6.872 169.532,5.337 C171.281,3.804 173.242,2.644 175.419,1.858 C177.597,1.075 179.79,0.68 182.002,0.68 C184.215,0.68 186.41,1.075 188.588,1.858 C190.764,2.644 192.726,3.804 194.475,5.337 C196.222,6.873 197.632,8.816 198.703,11.171 C199.771,13.526 200.309,16.24 200.309,19.307 L200.309,23.162 L189.39,23.162 L189.39,19.307 C189.39,16.668 188.658,14.723 187.197,13.473 C185.734,12.225 184.001,11.6 182.003,11.6 C180.005,11.6 178.275,12.225 176.812,13.473 C175.348,14.723 174.618,16.669 174.618,19.307 L174.618,59.557 C174.618,62.201 175.348,64.144 176.812,65.391 C178.275,66.642 180.004,67.264 182.003,67.264 C184.001,67.264 185.734,66.642 187.197,65.391 C188.658,64.144 189.39,62.201 189.39,59.557 L189.39,45.213 L180.719,45.213 L180.719,35.578 L200.309,35.578 L200.309,59.557 C200.309,62.699 199.772,65.43 198.703,67.747 C197.632,70.066 196.222,71.994 194.475,73.527 C192.726,75.063 190.764,76.222 188.588,77.006 C186.41,77.792 184.215,78.184 182.002,78.184 C179.79,78.184 177.597,77.792 175.419,77.006 C173.242,76.223 171.281,75.064 169.532,73.527 C167.783,71.994 166.375,70.066 165.304,67.747 C164.235,65.43 163.7,62.698 163.7,59.557 L163.7,19.307 L163.7,19.307 Z" id="Shape"></path>
                <path d="M208.017,1.324 L218.935,1.324 L218.935,28.193 L219.149,28.193 C220.362,26.411 221.807,25.033 223.483,24.071 C225.161,23.108 227.071,22.626 229.211,22.626 C231.85,22.626 233.903,23.091 235.366,24.019 C236.828,24.946 238.026,26.123 238.952,27.55 C239.666,28.695 240.13,30.191 240.343,32.046 C240.559,33.903 240.666,36.793 240.666,40.716 L240.666,61.376 C240.666,64.375 240.52,66.767 240.236,68.549 C239.951,70.335 239.489,71.834 238.845,73.046 C236.988,76.473 233.813,78.185 229.317,78.185 C226.606,78.185 224.536,77.651 223.11,76.58 C221.682,75.511 220.29,74.19 218.935,72.618 L218.935,77.543 L208.017,77.543 L208.017,1.324 L208.017,1.324 Z M229.744,39.967 C229.744,38.256 229.37,36.756 228.621,35.472 C227.871,34.186 226.463,33.544 224.392,33.544 C222.823,33.544 221.519,34.097 220.487,35.205 C219.45,36.309 218.934,37.721 218.934,39.433 L218.934,60.521 C218.934,62.519 219.432,64.143 220.431,65.39 C221.431,66.641 222.749,67.263 224.392,67.263 C226.246,67.263 227.604,66.586 228.461,65.23 C229.316,63.876 229.743,62.09 229.743,59.878 L229.743,39.967 L229.744,39.967 Z" id="Shape"></path>
                <path d="M255.863,23.269 L263.356,57.095 L263.571,57.095 L270.957,23.269 L282.196,23.269 L266.57,86.963 C265.995,89.386 265.193,91.404 264.158,93.01 C263.125,94.616 261.929,95.901 260.573,96.865 C259.217,97.827 257.772,98.505 256.239,98.896 C254.704,99.288 253.115,99.485 251.473,99.485 L248.476,99.485 L248.476,89.209 L250.939,89.209 C252.008,89.209 252.937,89.064 253.722,88.781 C254.506,88.496 255.201,87.871 255.811,86.908 C256.415,85.943 256.97,84.516 257.468,82.625 C257.966,80.734 258.537,78.218 259.181,75.081 L244.303,23.269 L255.863,23.269 L255.863,23.269 Z" id="Shape"></path>
                <path d="M295.791,54.523 L295.791,61.912 C295.791,63.624 296.273,64.945 297.236,65.871 C298.199,66.8 299.501,67.264 301.143,67.264 C303.21,67.264 304.582,66.66 305.262,65.446 C305.941,64.232 306.351,63.02 306.493,61.806 L317.413,61.806 C317.413,64.092 317.037,66.232 316.287,68.23 C315.54,70.228 314.449,71.94 313.024,73.367 C311.594,74.867 309.881,76.045 307.884,76.9 C305.886,77.756 303.637,78.184 301.142,78.184 C297.788,78.184 294.895,77.471 292.472,76.044 C290.042,74.617 288.189,72.726 286.905,70.37 C286.119,68.94 285.582,67.301 285.298,65.445 C285.013,63.59 284.87,61.556 284.87,59.343 L284.87,41.464 C284.87,39.253 285.013,37.22 285.298,35.362 C285.581,33.507 286.118,31.867 286.905,30.438 C288.189,28.083 290.043,26.194 292.472,24.764 C294.895,23.336 297.787,22.623 301.142,22.623 C303.637,22.623 305.905,23.051 307.94,23.907 C309.972,24.763 311.686,25.959 313.076,27.495 C314.468,29.028 315.54,30.831 316.287,32.898 C317.037,34.968 317.413,37.181 317.413,39.535 L317.413,54.521 L295.791,54.521 L295.791,54.523 Z M295.791,45.963 L306.494,45.963 L306.494,39.752 C306.494,37.682 306.013,36.133 305.05,35.098 C304.086,34.063 302.783,33.544 301.144,33.544 C299.501,33.544 298.2,34.063 297.237,35.098 C296.274,36.133 295.792,37.682 295.792,39.752 L295.792,45.963 L295.791,45.963 Z" id="Shape"></path>
            </g>
            <path d="M339.953,12.218 C339.953,9.098 337.425,6.569 334.306,6.569 L322.449,6.569 L322.449,4.302 C322.449,2.052 320.616,0.216 318.363,0.216 L310.397,0.216 C308.144,0.216 306.309,2.052 306.309,4.302 L306.309,6.569 L294.305,6.569 C291.187,6.569 288.657,9.098 288.657,12.218 L288.657,36.824 C288.657,39.942 291.186,42.474 294.305,42.474 L325.201,42.474 L322.251,54.428 L337.85,41.22 C337.931,41.15 338.006,41.083 338.084,41.015 L338.223,40.887 C339.313,39.905 339.953,38.42 339.953,36.823 L339.953,12.218 L339.953,12.218 Z M309.507,4.301 C309.507,3.811 309.907,3.417 310.397,3.417 L318.363,3.417 C318.852,3.417 319.249,3.811 319.249,4.301 L319.249,6.568 L309.508,6.568 L309.508,4.301 L309.507,4.301 Z" id="Shape" fill="#EF4056" sketch:type="MSShapeGroup"></path>
        </g>
    </g>
</svg>