<?xml version="1.0" encoding="utf-8"?>
<!-- Generator: Adobe Illustrator 19.1.1, SVG Export Plug-In . SVG Version: 6.00 Build 0)  -->
<svg version="1.1" id="Layer_1" xmlns="http://www.w3.org/2000/svg" xmlns:xlink="http://www.w3.org/1999/xlink" x="0px" y="0px"
	 viewBox="0 0 1224 792" style="enable-background:new 0 0 1224 792;" xml:space="preserve">
<style type="text/css">
	.st0{fill:#EE3A3D;}
	.st1{fill:#FFFFFF;}
</style>
<path class="st0" d="M840.9,272.8c0-27.8-22.6-50.4-50.4-50.4H684.7v-20.2c0-20.1-16.4-36.5-36.5-36.5h-71.1
	c-20.1,0-36.5,16.4-36.5,36.5v20.2H433.5c-27.8,0-50.4,22.6-50.4,50.4v219.6c0,27.8,22.6,50.4,50.4,50.4h275.7l-26.3,106.7
	l139.2-117.9c0.7-0.6,1.4-1.2,2.1-1.8l1.2-1.1c9.7-8.8,15.4-22,15.4-36.3V272.8z M569.2,202.1c0-4.4,3.5-7.9,7.9-7.9h71.1
	c4.4,0,7.9,3.5,7.9,7.9v20.2h-86.9V202.1z"/>
<g>
	<path class="st1" d="M423.9,331.9h13v38.8h16v-38.8h13v90.6h-13v-40.4h-16v40.4h-13V331.9z"/>
	<path class="st1" d="M486.8,395.2v8.8c0,2,0.6,3.6,1.7,4.7c1.1,1.1,2.7,1.7,4.6,1.7c2.5,0,4.1-0.7,4.9-2.2c0.8-1.4,1.3-2.9,1.5-4.3
		h13c0,2.7-0.4,5.3-1.3,7.6c-0.9,2.4-2.2,4.4-3.9,6.1c-1.7,1.8-3.7,3.2-6.1,4.2c-2.4,1-5.1,1.5-8,1.5c-4,0-7.4-0.8-10.3-2.5
		c-2.9-1.7-5.1-3.9-6.6-6.7c-0.9-1.7-1.6-3.6-1.9-5.9c-0.3-2.2-0.5-4.6-0.5-7.3v-21.3c0-2.6,0.2-5,0.5-7.3c0.3-2.2,1-4.2,1.9-5.9
		c1.5-2.8,3.7-5,6.6-6.7c2.9-1.7,6.3-2.5,10.3-2.5c3,0,5.7,0.5,8.1,1.5c2.4,1,4.5,2.4,6.1,4.3c1.7,1.8,2.9,4,3.8,6.4
		c0.9,2.5,1.3,5.1,1.3,7.9v17.8H486.8z M486.8,385h12.7v-7.4c0-2.5-0.6-4.3-1.7-5.5c-1.1-1.2-2.7-1.8-4.6-1.8c-2,0-3.5,0.6-4.6,1.8
		c-1.1,1.2-1.7,3.1-1.7,5.5V385z"/>
	<path class="st1" d="M521.3,331.9h13v72.4c0,2.5,0.4,4.1,1.3,5c0.9,0.9,2.6,1.5,5,1.7v12.2c-3,0-5.7-0.2-8.1-0.7
		c-2.4-0.5-4.5-1.4-6.1-2.7c-1.7-1.3-2.9-3.2-3.8-5.5c-0.9-2.4-1.3-5.4-1.3-9.2V331.9z"/>
	<path class="st1" d="M546.4,331.9h13v72.4c0,2.5,0.4,4.1,1.3,5c0.9,0.9,2.6,1.5,5,1.7v12.2c-3,0-5.7-0.2-8.1-0.7
		c-2.4-0.5-4.5-1.4-6.1-2.7c-1.7-1.3-2.9-3.2-3.8-5.5c-0.9-2.4-1.3-5.4-1.3-9.2V331.9z"/>
	<path class="st1" d="M571.2,379.6c0-2.6,0.2-5,0.5-7.3c0.3-2.2,1-4.2,1.9-5.9c1.5-2.8,3.7-5,6.6-6.7c2.9-1.7,6.3-2.5,10.3-2.5
		c4,0,7.4,0.8,10.3,2.5c2.9,1.7,5.1,3.9,6.6,6.7c0.9,1.7,1.6,3.7,1.9,5.9c0.3,2.2,0.5,4.6,0.5,7.3v21.3c0,2.6-0.2,5.1-0.5,7.3
		c-0.3,2.2-1,4.2-1.9,5.9c-1.5,2.8-3.7,5.1-6.6,6.7c-2.9,1.7-6.3,2.5-10.3,2.5c-4,0-7.4-0.8-10.3-2.5c-2.9-1.7-5.1-3.9-6.6-6.7
		c-0.9-1.7-1.6-3.6-1.9-5.9c-0.3-2.2-0.5-4.6-0.5-7.3V379.6z M584.1,402.9c0,2.5,0.6,4.3,1.7,5.5c1.1,1.2,2.7,1.8,4.6,1.8
		c2,0,3.5-0.6,4.6-1.8c1.1-1.2,1.7-3.1,1.7-5.5v-25.3c0-2.5-0.6-4.3-1.7-5.5c-1.1-1.2-2.7-1.8-4.6-1.8c-2,0-3.5,0.6-4.6,1.8
		c-1.1,1.2-1.7,3.1-1.7,5.5V402.9z"/>
	<path class="st1" d="M618.6,353.3c0-3.6,0.6-6.9,1.9-9.7c1.3-2.8,2.9-5.1,5-6.9c2.1-1.8,4.4-3.2,7-4.1c2.6-0.9,5.2-1.4,7.8-1.4
		c2.6,0,5.2,0.5,7.8,1.4c2.6,0.9,4.9,2.3,7,4.1c2.1,1.8,3.8,4.1,5,6.9c1.3,2.8,1.9,6,1.9,9.7v4.6h-13v-4.6c0-3.1-0.9-5.5-2.6-6.9
		c-1.7-1.5-3.8-2.2-6.2-2.2c-2.4,0-4.4,0.7-6.2,2.2c-1.7,1.5-2.6,3.8-2.6,6.9v47.9c0,3.1,0.9,5.5,2.6,6.9c1.7,1.5,3.8,2.2,6.2,2.2
		c2.4,0,4.4-0.7,6.2-2.2c1.7-1.5,2.6-3.8,2.6-6.9v-17.1h-10.3v-11.5h23.3v28.5c0,3.7-0.6,7-1.9,9.7c-1.3,2.8-3,5.1-5,6.9
		c-2.1,1.8-4.4,3.2-7,4.1c-2.6,0.9-5.2,1.4-7.8,1.4c-2.6,0-5.2-0.5-7.8-1.4c-2.6-0.9-4.9-2.3-7-4.1c-2.1-1.8-3.8-4.1-5-6.9
		c-1.3-2.8-1.9-6-1.9-9.7V353.3z"/>
	<path class="st1" d="M671.3,331.9h13v32h0.3c1.4-2.1,3.2-3.8,5.2-4.9c2-1.1,4.3-1.7,6.8-1.7c3.1,0,5.6,0.6,7.3,1.7
		c1.7,1.1,3.2,2.5,4.3,4.2c0.8,1.4,1.4,3.1,1.7,5.3c0.3,2.2,0.4,5.6,0.4,10.3v24.6c0,3.6-0.2,6.4-0.5,8.5c-0.3,2.1-0.9,3.9-1.7,5.3
		c-2.2,4.1-6,6.1-11.3,6.1c-3.2,0-5.7-0.6-7.4-1.9c-1.7-1.3-3.4-2.8-5-4.7v5.9h-13V331.9z M697.1,377.9c0-2-0.4-3.8-1.3-5.3
		c-0.9-1.5-2.6-2.3-5-2.3c-1.9,0-3.4,0.7-4.6,2c-1.2,1.3-1.8,3-1.8,5v25.1c0,2.4,0.6,4.3,1.8,5.8c1.2,1.5,2.8,2.2,4.7,2.2
		c2.2,0,3.8-0.8,4.8-2.4c1-1.6,1.5-3.7,1.5-6.4V377.9z"/>
	<path class="st1" d="M728.2,358l8.9,40.2h0.3l8.8-40.2h13.4l-18.6,75.8c-0.7,2.9-1.6,5.3-2.9,7.2c-1.2,1.9-2.7,3.4-4.3,4.6
		c-1.6,1.1-3.3,2-5.2,2.4c-1.8,0.5-3.7,0.7-5.7,0.7h-3.6v-12.2h2.9c1.3,0,2.4-0.2,3.3-0.5c0.9-0.3,1.8-1.1,2.5-2.2
		c0.7-1.1,1.4-2.8,2-5.1c0.6-2.3,1.3-5.2,2-9L714.4,358H728.2z"/>
	<path class="st1" d="M775.7,395.2v8.8c0,2,0.6,3.6,1.7,4.7c1.1,1.1,2.7,1.7,4.6,1.7c2.5,0,4.1-0.7,4.9-2.2c0.8-1.4,1.3-2.9,1.5-4.3
		h13c0,2.7-0.4,5.3-1.3,7.6c-0.9,2.4-2.2,4.4-3.9,6.1c-1.7,1.8-3.7,3.2-6.1,4.2c-2.4,1-5.1,1.5-8,1.5c-4,0-7.4-0.8-10.3-2.5
		c-2.9-1.7-5.1-3.9-6.6-6.7c-0.9-1.7-1.6-3.6-1.9-5.9c-0.3-2.2-0.5-4.6-0.5-7.3v-21.3c0-2.6,0.2-5,0.5-7.3c0.3-2.2,1-4.2,1.9-5.9
		c1.5-2.8,3.7-5,6.6-6.7c2.9-1.7,6.3-2.5,10.3-2.5c3,0,5.7,0.5,8.1,1.5c2.4,1,4.5,2.4,6.1,4.3c1.7,1.8,2.9,4,3.8,6.4
		c0.9,2.5,1.3,5.1,1.3,7.9v17.8H775.7z M775.7,385h12.7v-7.4c0-2.5-0.6-4.3-1.7-5.5c-1.1-1.2-2.7-1.8-4.6-1.8c-2,0-3.5,0.6-4.6,1.8
		c-1.1,1.2-1.7,3.1-1.7,5.5V385z"/>
</g>
</svg>
