<svg xmlns="http://www.w3.org/2000/svg" xmlns:xlink="http://www.w3.org/1999/xlink" width="1762" height="1152" viewBox="0 0 1762 1152">
    <defs>
        <radialGradient id="a" cx="51.254%" cy="43.29%" r="98.681%" fx="51.254%" fy="43.29%">
            <stop offset="0%" stop-color="#FFF"/>
            <stop offset="100%" stop-color="#D8D8D8" stop-opacity="0"/>
        </radialGradient>
        <linearGradient id="c" x1="50%" x2="50%" y1="97.874%" y2="3.466%">
            <stop offset="0%" stop-color="#F2F7F9"/>
            <stop offset="100%" stop-color="#0480D1"/>
        </linearGradient>
        <path id="b" d="M91.412 0h1811.639v1390.977H91.412z"/>
        <linearGradient id="d" x1="50%" x2="50%" y1="0%" y2="100%">
            <stop offset="0%" stop-color="#FBDA61"/>
            <stop offset="100%" stop-color="#E72C3B"/>
        </linearGradient>
        <radialGradient id="f" cy="43.015%" r="54.41%" fx="50%" fy="43.015%">
            <stop offset="0%" stop-color="#F5F5F5" stop-opacity=".007"/>
            <stop offset="4.275%" stop-color="#F5F5F5" stop-opacity=".045"/>
            <stop offset="100%" stop-color="#EEE"/>
        </radialGradient>
        <linearGradient id="g" x1="50%" x2="50%" y1="0%" y2="100%">
            <stop offset="0%" stop-color="#8CD6FB"/>
            <stop offset="100%" stop-color="#D8D8D8" stop-opacity=".021"/>
        </linearGradient>
        <radialGradient id="h" cx="52.765%" cy="45.571%" r="157.571%" fx="52.765%" fy="45.571%">
            <stop offset="0%" stop-color="#FDD348"/>
            <stop offset="30.647%" stop-color="#FFFDFD" stop-opacity=".015"/>
            <stop offset="100%" stop-color="#FFF" stop-opacity="0"/>
        </radialGradient>
        <linearGradient id="i" x1="93.955%" x2="0%" y1="81.849%" y2="15.165%">
            <stop offset="0%" stop-color="#FBDA61"/>
            <stop offset="100%" stop-color="#E9B135"/>
        </linearGradient>
        <linearGradient id="j" x1="47.983%" x2="47.983%" y1="16.475%" y2="92.242%">
            <stop offset="0%" stop-color="#FFF"/>
            <stop offset="100%" stop-color="#FCFCFC" stop-opacity="0"/>
        </linearGradient>
        <linearGradient id="k" x1="50%" x2="50%" y1="-2.322%" y2="100%">
            <stop offset="0%" stop-color="#FFF" stop-opacity="1.023"/>
            <stop offset="0%" stop-color="#FFF"/>
            <stop offset="100%" stop-color="#FFF" stop-opacity="0"/>
        </linearGradient>
        <linearGradient id="l" x1="36.519%" x2="36.519%" y1="-10.838%" y2="100%">
            <stop offset="0%" stop-color="#FCFEFE"/>
            <stop offset="100%" stop-color="#FFF" stop-opacity="0"/>
        </linearGradient>
        <path id="m" d="M.668 0h455.077v203.978H.668z"/>
        <linearGradient id="n" x1="43.188%" x2="57.323%" y1="0%" y2="35.113%">
            <stop offset="0%" stop-color="#0F709F"/>
            <stop offset="26.039%" stop-color="#36A9BD"/>
            <stop offset="49.638%" stop-color="#43AFDC"/>
            <stop offset="75.787%" stop-color="#75C6E7" stop-opacity=".479"/>
            <stop offset="100%" stop-color="#FAFEFE" stop-opacity=".014"/>
        </linearGradient>
        <path id="p" d="M.668 0h455.077v203.978H.668z"/>
        <linearGradient id="q" x1="40.395%" x2="34.834%" y1="-.959%" y2="23.185%">
            <stop offset="0%" stop-color="#0F709F" stop-opacity="0"/>
            <stop offset="26.039%" stop-color="#74CCDB" stop-opacity="0"/>
            <stop offset="100%" stop-color="#FAFDFD"/>
        </linearGradient>
        <linearGradient id="s" x1="104.891%" x2="16.071%" y1="122.709%" y2="0%">
            <stop offset="0%" stop-opacity=".367"/>
            <stop offset="13.526%" stop-color="#FFF" stop-opacity=".206"/>
            <stop offset="74.494%" stop-color="#F9F8EE"/>
            <stop offset="100%" stop-color="#EFD797" stop-opacity=".319"/>
        </linearGradient>
        <linearGradient id="t" x1="100%" x2="-8.053%" y1="100%" y2="0%">
            <stop offset="0%" stop-color="#F5F7F8" stop-opacity="0"/>
            <stop offset="62.584%" stop-color="#F9F8F2"/>
            <stop offset="100%" stop-color="#FAEBB4" stop-opacity=".318"/>
        </linearGradient>
        <linearGradient id="u" x1="50%" x2="50%" y1="3.782%" y2="100%">
            <stop offset="0%" stop-color="#FFF" stop-opacity=".016"/>
            <stop offset="32.306%" stop-color="#FCFEFF" stop-opacity=".534"/>
            <stop offset="100%" stop-color="#E1F3FF"/>
        </linearGradient>
        <radialGradient id="v" cx="49.225%" cy="48.665%" r="48.672%" fx="49.225%" fy="48.665%">
            <stop offset="0%" stop-color="#428EB4"/>
            <stop offset="100%" stop-color="#0F709F" stop-opacity="0"/>
        </radialGradient>
        <linearGradient id="w" x1="57.557%" x2="57.557%" y1="29.624%" y2="100%">
            <stop offset="0%" stop-color="#FDFDFE" stop-opacity="1.12"/>
            <stop offset="100%" stop-color="#FFF" stop-opacity="0"/>
        </linearGradient>
        <linearGradient id="x" x1="50%" x2="73.024%" y1="-92.585%" y2="78.002%">
            <stop offset="0%" stop-color="#FF9F48"/>
            <stop offset="100%" stop-color="#0C7FA7"/>
        </linearGradient>
        <linearGradient id="y" x1="50%" x2="98.508%" y1="76.877%" y2="22.874%">
            <stop offset="0%" stop-color="#035471" stop-opacity="0"/>
            <stop offset="100%" stop-color="#035471"/>
        </linearGradient>
        <linearGradient id="z" x1="42.028%" x2="42.028%" y1="-7.22%" y2="87.703%">
            <stop offset="0%" stop-color="#009EE1" stop-opacity=".987"/>
            <stop offset="22.224%" stop-color="#009EE1" stop-opacity=".986"/>
            <stop offset="100%" stop-color="#E5F3FD"/>
        </linearGradient>
        <linearGradient id="A" x1="57.557%" x2="57.557%" y1="33.816%" y2="100%">
            <stop offset="0%" stop-color="#FDFDFE" stop-opacity="1.12"/>
            <stop offset="100%" stop-color="#FFF" stop-opacity="0"/>
        </linearGradient>
        <linearGradient id="C" x1="50%" x2="74.627%" y1="-92.585%" y2="97.288%">
            <stop offset="0%" stop-color="#FF9F48"/>
            <stop offset="100%" stop-color="#035471"/>
        </linearGradient>
        <!-- seagulls: too dark, remove them -->
        <!-- <path id="B" d="M12.578 5.128C10.714 2.678 7.143.322.324.322v4.085c9.764 0 10.196 5.526 10.21 6.13l4.086.025c.017-.629.448-6.155 10.213-6.155V.322c-6.821 0-10.39 2.356-12.255 4.806z"/>
        <path id="D" d="M12.578 5.128C10.714 2.678 7.143.322.324.322v4.085c9.764 0 10.196 5.526 10.21 6.13l4.086.025c.017-.629.448-6.155 10.213-6.155V.322c-6.821 0-10.39 2.356-12.255 4.806z"/> -->
    </defs>
    <g fill="none" fill-rule="evenodd" transform="translate(-129.5 -23)">
        <path fill="url(#a)" fill-opacity=".9" d="M129.5 23h1762v1156h-1762z"/>
        <mask id="e" fill="#fff">
            <use xlink:href="#b"/>
        </mask>
        <use fill="url(#c)" opacity=".409" xlink:href="#b"/>
        <ellipse cx="703.805" cy="137.019" fill="url(#d)" mask="url(#e)" opacity=".457" rx="74.488" ry="74.729"/>
        <path fill="url(#f)" d="M91.412 0h1811.639v1427.102H91.412z" mask="url(#e)"/>
        <path fill="url(#g)" d="M395.231 2.842h1494.16v83.836H92.217V48.221l-1.145-.624 1.145-.185V2.842h276.234l3.867-.624 1.146.624h17.52l3.246-.535 1.001.535z" mask="url(#e)" opacity=".446"/>
        <ellipse cx="677.164" cy="140.578" fill="url(#h)" mask="url(#e)" opacity=".165" rx="191.54" ry="192.161"/>
        <ellipse cx="687.805" cy="137.019" fill="url(#i)" mask="url(#e)" opacity=".05" rx="74.488" ry="74.729"/>
        <path fill="url(#j)" d="M797.827 167.918a62.585 62.585 0 0 0-20.974 3.6c-17.156-21.05-43.3-34.499-72.59-34.499-70.139 0-93.479 93.469-140.245 93.469h396.549c-38.189 0-59.195-41.714-100.107-41.714-4.882 0-9.565.847-13.92 2.385-11.483-14.175-29.036-23.241-48.713-23.241z" opacity=".861" transform="matrix(-1 0 0 1 1524.585 0)"/>
        <path fill="url(#k)" d="M1841.766 315.795c-11.14-13.753-28.17-22.548-47.26-22.548a60.718 60.718 0 0 0-20.348 3.492c-16.644-20.422-42.007-33.47-70.425-33.47-68.046 0-90.69 90.682-136.061 90.682h384.72c-37.05 0-57.43-40.47-97.12-40.47-4.737 0-9.281.821-13.506 2.314" opacity=".831" transform="matrix(-1 0 0 1 3520.064 0)"/>
        <path fill="url(#a)" fill-opacity=".7" d="M94.431 19.6H1892.75v1371.377H94.431z" style="mix-blend-mode:overlay"/>
        <path fill="url(#l)" d="M1432.91 101.473a102.432 102.432 0 0 0-34.328 5.891c-28.08-34.452-70.868-56.463-118.809-56.463-114.794 0-152.995 152.98-229.537 152.98h649.028c-62.503 0-96.885-68.273-163.844-68.273a68.288 68.288 0 0 0-22.784 3.903c-18.794-23.2-47.523-38.038-79.727-38.038z"/>

        <!-- city buildings -->
        <g opacity=".351">
            <g transform="matrix(-1 0 0 1 1658.554 515.115)">
                <mask id="o" fill="#fff">
                    <use xlink:href="#m"/>
                </mask>
                <path fill="url(#n)" d="M699.16 135.949H574.503v-17.626c0-.916-.969-2.012-1.876-2.012H554.19h2.39c.455 0 .565-11.898.565-11.898l2.216.784c1.313-.918-21.657-9.032-21.657-9.032l-15.794 5.391c.257 1.636 2.602 1.034 2.602 1.034v7.408h-11.997c-.907 0-1.89 1.242-1.89 2.158v23.793h-17.357v-18.192l3.83 1.591c2.165-1.863 1.956-2.835 1.093-3.16l-29.224-11.07V84.014c0-.575-16.804-13.633-16.804-13.633-1.107-.21-21.165 12.248-21.165 12.248-.436.278-.912 43.052-.912 43.052l-9.706 2.539a1.687 1.687 0 0 0-1.194 2.055 1.678 1.678 0 0 0 1.62 1.264c.136 0 5.114-1.22 5.114-1.22v5.63h-11.804V57.652c0-1.105-1.074-2.36-2.168-2.36h-25.604v-13.64c0-1.104-1.02-1.79-2.113-1.79h-35.64c-1.092 0-1.823.686-1.823 1.79v21.355h-25.894c-1.092 0-1.184 1.54-1.184 2.644v70.298h-6.249v-86.02c0-1.392-.91-2.352-2.289-2.352h-17.846V29.603c0-1.392-1.399-2.518-2.777-2.518-1.378 0-2.777 1.126-2.777 2.518v17.974h-16.492c-1.377 0-2.255.96-2.255 2.352v86.02h-4.86V21.595c0-.89-.65-1.717-1.409-2.169-.754-.443-1.79-.468-2.565-.034L225.213 38.89c-.794.443-1.34 1.29-1.34 2.204v63.293h-8.664c-.906 0-1.538 1.245-1.538 2.162v29.4h-6.46V99.72l4.206 1.592c1.247.105 1.877-.313 2.128-.991a1.697 1.697 0 0 0-.985-2.17l-48.816-18.346a1.669 1.669 0 0 0-2.15.991c-.319.873.04 1.845.903 2.17l4.443 1.7v17.154l-31.931 8.363c-.893.234-1.389 1.153-1.16 2.055a1.698 1.698 0 0 0 1.636 1.265c.137 0 5.766-1.22 5.766-1.22v23.665H54.462v-5.7l2.296.785c1.373-.919-21.737-9.032-21.737-9.032l-15.714 5.39c.318 1.637 3.216 1.035 3.216 1.035v7.522h-99.48V603.54h772.269" mask="url(#o)"/>
            </g>
            <g transform="matrix(-1 0 0 1 1658.554 515.115)">
                <mask id="r" fill="#fff">
                    <use xlink:href="#p"/>
                </mask>
                <path fill="url(#q)" d="M699.16 135.949H574.503v-17.626c0-.916-.969-2.012-1.876-2.012H554.19h2.39c.455 0 .565-11.898.565-11.898l2.216.784c1.313-.918-21.657-9.032-21.657-9.032l-15.794 5.391c.257 1.636 2.602 1.034 2.602 1.034v7.408h-11.997c-.907 0-1.89 1.242-1.89 2.158v23.793h-17.357v-18.192l3.83 1.591c2.165-1.863 1.956-2.835 1.093-3.16l-29.224-11.07V84.014c0-.575-16.804-13.633-16.804-13.633-1.107-.21-21.165 12.248-21.165 12.248-.436.278-.912 43.052-.912 43.052l-9.706 2.539a1.687 1.687 0 0 0-1.194 2.055 1.678 1.678 0 0 0 1.62 1.264c.136 0 5.114-1.22 5.114-1.22v5.63h-11.804V57.652c0-1.105-1.074-2.36-2.168-2.36h-25.604v-13.64c0-1.104-1.02-1.79-2.113-1.79h-35.64c-1.092 0-1.823.686-1.823 1.79v21.355h-25.894c-1.092 0-1.184 1.54-1.184 2.644v70.298h-6.249v-86.02c0-1.392-.91-2.352-2.289-2.352h-17.846V29.603c0-1.392-1.399-2.518-2.777-2.518-1.378 0-2.777 1.126-2.777 2.518v17.974h-16.492c-1.377 0-2.255.96-2.255 2.352v86.02h-4.86V21.595c0-.89-.65-1.717-1.409-2.169-.754-.443-1.79-.468-2.565-.034L225.213 38.89c-.794.443-1.34 1.29-1.34 2.204v63.293h-8.664c-.906 0-1.538 1.245-1.538 2.162v29.4h-6.46V99.72l4.206 1.592c1.247.105 1.877-.313 2.128-.991a1.697 1.697 0 0 0-.985-2.17l-48.816-18.346a1.669 1.669 0 0 0-2.15.991c-.319.873.04 1.845.903 2.17l4.443 1.7v17.154l-31.931 8.363c-.893.234-1.389 1.153-1.16 2.055a1.698 1.698 0 0 0 1.636 1.265c.137 0 5.766-1.22 5.766-1.22v23.665H54.462v-5.7l2.296.785c1.373-.919-21.737-9.032-21.737-9.032l-15.714 5.39c.318 1.637 3.216 1.035 3.216 1.035v7.522h-99.48V603.54h772.269" mask="url(#r)" opacity=".8"/>
            </g>
            <path fill="url(#s)" d="M34.638 0h7.698v7.776h-7.698V0zm0 20.735h7.698v7.775h-7.698v-7.775zm0 20.735h7.698v7.775h-7.698V41.47zm0 31.102h7.698v7.775h-7.698v-7.775zm0-62.205h7.698v7.776h-7.698v-7.776zm0 20.735h7.698v7.776h-7.698v-7.776zm0 31.102h7.698v7.776h-7.698v-7.776zm0-10.367h7.698v7.775h-7.698v-7.775zm0 31.102h7.698v7.776h-7.698v-7.776zM23.092 0h7.698v7.776h-7.698V0zm0 20.735h7.698v7.775h-7.698v-7.775zm0 20.735h7.698v7.775h-7.698V41.47zm0 31.102h7.698v7.775h-7.698v-7.775zm0-62.205h7.698v7.776h-7.698v-7.776zm0 20.735h7.698v7.776h-7.698v-7.776zm0 31.102h7.698v7.776h-7.698v-7.776zm0-10.367h7.698v7.775h-7.698v-7.775zm0 31.102h7.698v7.776h-7.698v-7.776zM11.546 0h7.697v7.776h-7.697V0zm0 20.735h7.697v7.775h-7.697v-7.775zm0 20.735h7.697v7.775h-7.697V41.47zm0 31.102h7.697v7.775h-7.697v-7.775zM0 72.572h7.697v7.775H0v-7.775zm11.546-62.205h7.697v7.776h-7.697v-7.776zm0 20.735h7.697v7.776h-7.697v-7.776zm0 31.102h7.697v7.776h-7.697v-7.776zM0 62.204h7.697v7.776H0v-7.776zm11.546-10.367h7.697v7.775h-7.697v-7.775zm0 31.102h7.697v7.776h-7.697v-7.776zM0 82.94h7.697v7.776H0v-7.776z" opacity=".758" transform="matrix(-1 0 0 1 1440.444 560.114)"/>
            <g fill="url(#t)" opacity=".549" transform="matrix(-1 0 0 1 1335.309 585.907)">
                <path d="M0 .327h86.5V2.87H0V.327zm0 4.226h86.5v9.068H0V4.553zm0 10.46h86.5v9.069H0v-9.068zm0 10.461h86.5v9.068H0v-9.068z"/>
            </g>
        </g>
        <path fill="url(#l)" d="M575.81 130.094a84.856 84.856 0 0 0-28.438 4.88c-23.26-28.54-58.707-46.774-98.422-46.774-95.096 0-126.742 126.73-190.15 126.73h537.66c-51.778 0-80.26-56.558-135.73-56.558a56.57 56.57 0 0 0-18.875 3.233c-15.568-19.22-39.367-31.51-66.046-31.51z" transform="matrix(-1 0 0 1 1055.26 0)"/>
        <path fill="url(#u)" d="M94 565h1798.319v888.591H94z" opacity=".5"/>
        <path fill="url(#v)" d="M352.234 23h1310.148v1105H352.234z" opacity=".25"/>
        <path fill="url(#w)" d="M1740.699 651.878a63.959 63.959 0 0 1 22.3 4c18.24-23.393 46.036-38.337 77.179-38.337 74.571 0 99.387 103.869 149.11 103.869h-421.616c40.603 0 62.937-46.355 106.434-46.355 5.191 0 10.17.94 14.802 2.65 12.208-15.753 30.87-25.827 51.79-25.827z"/>
        <path fill="url(#w)" d="M536.038 671.26c12.238 0 23.978 2.211 34.887 6.258 28.537-36.597 72.024-59.977 120.746-59.977 116.666 0 155.49 162.501 233.28 162.501H265.34c63.522 0 98.464-72.522 166.515-72.522 8.12 0 15.911 1.472 23.156 4.146 19.1-24.644 48.297-40.405 81.026-40.405z" opacity=".824" transform="matrix(-1 0 0 1 1190.291 0)"/>
        <path fill="url(#w)" d="M212.466 453.319a78.438 78.438 0 0 1 27.348 4.905c22.37-28.688 56.459-47.016 94.652-47.016 91.454 0 121.887 127.384 182.866 127.384H.268c49.794 0 77.185-56.85 130.53-56.85a52.291 52.291 0 0 1 18.152 3.25c14.972-19.318 37.86-31.673 63.516-31.673z" opacity=".824" transform="matrix(-1 0 0 1 517.6 0)"/>
        <!-- airplane: too dark, remove them -->
        <!-- <g opacity=".701">
            <path fill="url(#x)" d="M84.153 1.402l19.086 8.11s12.635-4.676 13.501-5.06c1.96-.699 6.56-2.338 8.541-1.122 1.353.835 1.353 2.18.998 2.792-.653 1.124-4.124 3.153-7.762 4.69-1.908.804-28.835 10.33-28.835 10.33l-9.183.315-8.018-3.822 3.06-1.286 8.266 2.579 8.876-4.61L79.327 2.693l4.826-1.292z" transform="rotate(-3 9161.103 -26876.326)"/>
            <path stroke="url(#y)" stroke-linecap="square" stroke-width=".794" d="M71.456 35.99L3.76 73.588M63.596 33.91L.537 68.218" opacity=".5" transform="translate(1419.615 437.4)"/>
        </g> -->
        <path fill="url(#z)" d="M1650.61 841.525c10.074 0 19.738 1.509 28.717 4.27 23.49-24.978 59.285-40.936 99.39-40.936 96.031 0 127.988 110.912 192.02 110.912H1427.79c52.287 0 81.049-49.498 137.064-49.498a65.096 65.096 0 0 1 19.06 2.83c15.722-16.82 39.755-27.578 66.696-27.578" opacity=".107" transform="matrix(-1 0 0 1 3398.527 0)"/>
        <path fill="url(#z)" d="M580.664 896.98c10.073 0 19.737 1.51 28.717 4.272 23.49-24.979 59.284-40.937 99.389-40.937 96.032 0 127.988 110.912 192.02 110.912H357.844c52.288 0 81.05-49.498 137.064-49.498a65.096 65.096 0 0 1 19.06 2.83c15.722-16.82 39.755-27.578 66.696-27.578" opacity=".107"/>
        <path fill="url(#A)" d="M1375.88 707.85c12.669 0 24.822 1.972 36.115 5.58 29.542-32.635 74.558-53.485 124.995-53.485 120.772 0 160.962 144.914 241.49 144.914h-682.824c65.758 0 101.93-64.673 172.375-64.673a79.037 79.037 0 0 1 23.971 3.697c19.772-21.977 49.997-36.033 83.878-36.033z" opacity=".813"/>
        <g opacity=".7">
            <use fill="url(#C)" transform="matrix(-1 0 0 1 369.494 324.32)" xlink:href="#B"/>
            <g transform="matrix(-1 0 0 1 401.494 352.32)">
                <mask id="E" fill="#fff">
                    <use xlink:href="#D"/>
                </mask>
                <use fill="url(#C)" xlink:href="#D"/>
                <path d="M-5.263 16.15H30.42V-5.264H-5.263z" mask="url(#E)"/>
            </g>
        </g>
    </g>
</svg>
