<?xml version="1.0" encoding="utf-8"?>
<svg version="1.1" id="Layer_1" xmlns="http://www.w3.org/2000/svg" xmlns:xlink="http://www.w3.org/1999/xlink" x="0px" y="0px"
	 viewBox="0 0 1224 792" style="enable-background:new 0 0 1224 792;" xml:space="preserve">
<style type="text/css">
	.st0{fill:#EE3A3D;}
</style>
<path class="st0" d="M840.9,272.8c0-27.8-22.6-50.4-50.4-50.4H684.7v-20.2c0-20.1-16.4-36.5-36.5-36.5h-71.1
	c-20.1,0-36.5,16.4-36.5,36.5v20.2H433.5c-27.8,0-50.4,22.6-50.4,50.4v219.6c0,27.8,22.6,50.4,50.4,50.4h275.7l-26.3,106.7
	l139.2-117.9c0.7-0.6,1.4-1.2,2.1-1.8l1.2-1.1c9.7-8.8,15.4-22,15.4-36.3V272.8z M569.2,202.1c0-4.4,3.5-7.9,7.9-7.9h71.1
	c4.4,0,7.9,3.5,7.9,7.9v20.2h-86.9V202.1z"/>
</svg>
