<svg id="Layer_1" data-name="Layer 1" xmlns="http://www.w3.org/2000/svg" width="189.8" height="75.54" viewBox="0 0 189.8 75.54"><defs><style>.cls-1,.cls-4{fill:#fff;}.cls-2{fill:#ee3a3c;}.cls-3,.cls-4{isolation:isolate;}.cls-4{font-size:9px;font-family:DIN Next LT Pro;}</style></defs><title>hgb_logo</title><g id="Page-1"><g id="Onboarding_Splash_screen" data-name="Onboarding Splash screen"><g id="logo_onboardong" data-name="logo onboardong"><g id="Control-Box"><g id="Desktop---Control-Box---Responding"><g id="Sidebar"><g id="Logo"><g id="Group"><polyline id="Fill-1" class="cls-1" points="0 21.52 6.1 21.52 6.1 39.49 13.63 39.49 13.63 21.52 19.72 21.52 19.72 63.46 13.63 63.46 13.63 44.79 6.1 44.79 6.1 63.46 0 63.46 0 21.52"/><path id="Fill-2" class="cls-1" d="M29.56,50.91V55a2.86,2.86,0,0,0,.81,2.18,3,3,0,0,0,2.18.77,2.41,2.41,0,0,0,2.3-1,5.34,5.34,0,0,0,.69-2h6.1A9.85,9.85,0,0,1,41,58.46a7.8,7.8,0,0,1-1.82,2.83,8.57,8.57,0,0,1-2.87,1.94,9.59,9.59,0,0,1-3.77.71,9.49,9.49,0,0,1-4.84-1.18,7.91,7.91,0,0,1-4-5.83,21.78,21.78,0,0,1-.24-3.36V43.73a21.82,21.82,0,0,1,.24-3.36,8,8,0,0,1,.9-2.71,8.12,8.12,0,0,1,3.11-3.12,9.48,9.48,0,0,1,4.84-1.18,9.82,9.82,0,0,1,3.8.71,8,8,0,0,1,2.87,2A8.84,8.84,0,0,1,41,39a10.52,10.52,0,0,1,.63,3.65v8.25H29.56Zm0-4.71h6V42.79a3.6,3.6,0,0,0-.81-2.56,3.21,3.21,0,0,0-4.36,0,3.6,3.6,0,0,0-.81,2.56V46.2h0Z" transform="translate(-0.03 -0.12)"/><path id="Fill-3" class="cls-1" d="M45.75,21.64h6.1V55.16a3.27,3.27,0,0,0,.63,2.33,4,4,0,0,0,2.36.79v5.66A20.45,20.45,0,0,1,51,63.61a6.55,6.55,0,0,1-2.87-1.24,5.78,5.78,0,0,1-1.79-2.56,12.09,12.09,0,0,1-.63-4.24V21.64" transform="translate(-0.03 -0.12)"/><path id="Fill-4" class="cls-1" d="M57.54,21.64h6.1V55.16a3.27,3.27,0,0,0,.63,2.33,4,4,0,0,0,2.36.79v5.66a20.47,20.47,0,0,1-3.8-.32A6.55,6.55,0,0,1,60,62.38a5.77,5.77,0,0,1-1.79-2.56,12.07,12.07,0,0,1-.63-4.24V21.64" transform="translate(-0.03 -0.12)"/><path id="Fill-5" class="cls-1" d="M69.15,43.73a21.82,21.82,0,0,1,.24-3.36,8,8,0,0,1,.9-2.71,8.13,8.13,0,0,1,3.11-3.12,10.54,10.54,0,0,1,9.68,0,7.9,7.9,0,0,1,4,5.83,21.89,21.89,0,0,1,.24,3.36v9.84a21.85,21.85,0,0,1-.24,3.36,7.9,7.9,0,0,1-4,5.83,10.54,10.54,0,0,1-9.68,0,7.91,7.91,0,0,1-4-5.83,21.79,21.79,0,0,1-.24-3.36V43.73h0Zm6.1,10.78a3.61,3.61,0,0,0,.81,2.56,3.21,3.21,0,0,0,4.36,0,3.6,3.6,0,0,0,.81-2.56V42.79a3.6,3.6,0,0,0-.81-2.56,3.21,3.21,0,0,0-4.36,0,3.6,3.6,0,0,0-.81,2.56V54.51h0Z" transform="translate(-0.03 -0.12)"/><path id="Fill-6" class="cls-1" d="M91.41,31.54a10.59,10.59,0,0,1,.9-4.48,9.36,9.36,0,0,1,2.36-3.21A10.23,10.23,0,0,1,98,21.93a10.75,10.75,0,0,1,7.35,0,10.24,10.24,0,0,1,3.29,1.91A9.37,9.37,0,0,1,111,27.06a10.6,10.6,0,0,1,.9,4.48v2.12h-6.1V31.54a4,4,0,0,0-1.23-3.21,4.59,4.59,0,0,0-5.8,0,4,4,0,0,0-1.23,3.21V53.68a4,4,0,0,0,1.23,3.21,4.59,4.59,0,0,0,5.8,0,4,4,0,0,0,1.23-3.21V45.79h-4.84v-5.3h10.94v13.2a10.54,10.54,0,0,1-.9,4.51,9.42,9.42,0,0,1-2.36,3.18,10.17,10.17,0,0,1-3.29,1.91,10.75,10.75,0,0,1-7.35,0,10.16,10.16,0,0,1-3.29-1.91,9.41,9.41,0,0,1-2.36-3.18,10.53,10.53,0,0,1-.9-4.51V31.54" transform="translate(-0.03 -0.12)"/><path id="Fill-7" class="cls-1" d="M116.15,21.64h6.1V36.42h0.12a7.34,7.34,0,0,1,2.42-2.27,6.38,6.38,0,0,1,3.2-.8,5.8,5.8,0,0,1,5.44,2.71,5.87,5.87,0,0,1,.78,2.47,45,45,0,0,1,.18,4.77V54.69a25.76,25.76,0,0,1-.24,3.95,7.88,7.88,0,0,1-.78,2.47A5.57,5.57,0,0,1,128,63.94a5.77,5.77,0,0,1-3.47-.88,14.76,14.76,0,0,1-2.33-2.18v2.71h-6.1V21.64h0ZM128.29,42.9a4.77,4.77,0,0,0-.63-2.47,2.51,2.51,0,0,0-2.36-1.06,2.87,2.87,0,0,0-2.18.91,3.24,3.24,0,0,0-.87,2.33v11.6a4.11,4.11,0,0,0,.84,2.68,2.7,2.7,0,0,0,2.21,1,2.5,2.5,0,0,0,2.27-1.12,5.39,5.39,0,0,0,.72-2.94v-11h0Z" transform="translate(-0.03 -0.12)"/><path id="Fill-8" class="cls-1" d="M142.87,33.72l4.18,18.61h0.12l4.12-18.61h6.28l-8.73,35.05a10.59,10.59,0,0,1-1.35,3.33,7.66,7.66,0,0,1-2,2.12,7.32,7.32,0,0,1-2.42,1.12,10.89,10.89,0,0,1-2.66.32h-1.67V70h1.38a4.63,4.63,0,0,0,1.55-.24,2.4,2.4,0,0,0,1.17-1,8.76,8.76,0,0,0,.93-2.36q0.42-1.56,1-4.15l-8.31-28.51h6.45" transform="translate(-0.03 -0.12)"/><path id="Fill-9" class="cls-1" d="M165.17,50.91V55a2.86,2.86,0,0,0,.81,2.18,3,3,0,0,0,2.18.77,2.41,2.41,0,0,0,2.3-1,5.33,5.33,0,0,0,.69-2h6.1a9.84,9.84,0,0,1-.63,3.53,7.8,7.8,0,0,1-1.82,2.83,8.58,8.58,0,0,1-2.87,1.94,9.59,9.59,0,0,1-3.76.71,9.48,9.48,0,0,1-4.84-1.18,7.91,7.91,0,0,1-4-5.83,21.85,21.85,0,0,1-.24-3.36V43.73a21.89,21.89,0,0,1,.24-3.36,8,8,0,0,1,.9-2.71,8.11,8.11,0,0,1,3.11-3.12,9.48,9.48,0,0,1,4.84-1.18,9.82,9.82,0,0,1,3.8.71,8,8,0,0,1,2.87,2,8.82,8.82,0,0,1,1.79,3,10.51,10.51,0,0,1,.63,3.65v8.25H165.17Zm0-4.71h6V42.79a3.6,3.6,0,0,0-.81-2.56,3.21,3.21,0,0,0-4.36,0,3.6,3.6,0,0,0-.81,2.56V46.2h0Z" transform="translate(-0.03 -0.12)"/><path id="Fill-10" class="cls-2" d="M189.82,6.72a3.13,3.13,0,0,0-3.15-3.11h-6.62V2.37A2.27,2.27,0,0,0,177.77.12h-4.45A2.27,2.27,0,0,0,171,2.37V3.61h-6.7a3.13,3.13,0,0,0-3.15,3.11V20.26a3.13,3.13,0,0,0,3.15,3.11h17.25L179.94,30l8.71-7.27,0.13-.11,0.08-.07a3,3,0,0,0,1-2.24V6.72h0Zm-17-4.36a0.49,0.49,0,0,1,.5-0.49h4.45a0.49,0.49,0,0,1,.49.49V3.61h-5.44V2.37h0Z" transform="translate(-0.03 -0.12)"/></g></g></g></g></g><g id="BETA" class="cls-3"><text class="cls-4" transform="translate(163.97 16.88)">BE<tspan x="10.84" y="0">T</tspan><tspan x="15.38" y="0">A</tspan></text></g></g></g></g><rect class="cls-2" x="162.97" y="8.55" width="23.75" height="12.08"/></svg>