<?xml version="1.0" encoding="utf-8"?>
<!-- Generator: Adobe Illustrator 19.2.1, SVG Export Plug-In . SVG Version: 6.00 Build 0)  -->
<svg version="1.1" id="Layer_1" xmlns="http://www.w3.org/2000/svg" xmlns:xlink="http://www.w3.org/1999/xlink" x="0px" y="0px"
	 viewBox="0 0 189.8 75.5" style="enable-background:new 0 0 189.8 75.5;" xml:space="preserve">
<style type="text/css">
	.st0{fill:#225A73;}
	.st1{fill:#EE3A3C;}
	.st2{fill:#FFFFFF;}
	.st3{font-family:'DINNextLTPro-Regular';}
	.st4{font-size:9px;}
</style>
<title>hgb_logo</title>
<g id="Page-1">
	<g id="Onboarding_Splash_screen">
		<g id="logo_onboardong">
			<g id="Control-Box">
				<g id="Desktop---Control-Box---Responding">
					<g id="Sidebar">
						<g id="Logo">
							<g id="Group">
								<polyline id="Fill-1" class="st0" points="0,21.5 6.1,21.5 6.1,39.5 13.6,39.5 13.6,21.5 19.7,21.5 19.7,63.5 13.6,63.5 
									13.6,44.8 6.1,44.8 6.1,63.5 0,63.5 0,21.5 								"/>
								<path id="Fill-2" class="st0" d="M29.5,50.8v4.1c-0.1,0.8,0.2,1.6,0.8,2.2c0.6,0.5,1.4,0.8,2.2,0.8c0.9,0.1,1.8-0.3,2.3-1
									c0.4-0.6,0.6-1.3,0.7-2h6.1c0,1.2-0.2,2.4-0.6,3.5c-0.4,1.1-1,2-1.8,2.8c-0.8,0.8-1.8,1.5-2.9,1.9c-1.2,0.5-2.5,0.7-3.8,0.7
									c-1.7,0-3.4-0.4-4.8-1.2c-2.2-1.2-3.7-3.4-4-5.8c-0.2-1.1-0.2-2.2-0.2-3.4v-9.8c0-1.1,0.1-2.2,0.2-3.4
									c0.1-0.9,0.4-1.9,0.9-2.7c0.7-1.3,1.8-2.4,3.1-3.1c1.5-0.8,3.2-1.2,4.8-1.2c1.3,0,2.6,0.2,3.8,0.7c1.1,0.4,2.1,1.1,2.9,2
									c0.8,0.9,1.4,1.8,1.8,2.9c0.4,1.2,0.6,2.4,0.6,3.7v8.3L29.5,50.8L29.5,50.8z M29.5,46.1h6v-3.4c0.1-0.9-0.2-1.8-0.8-2.6
									c-1.2-1.1-3.1-1.1-4.4,0c-0.6,0.7-0.9,1.6-0.8,2.6L29.5,46.1L29.5,46.1L29.5,46.1z"/>
								<path id="Fill-3" class="st0" d="M45.7,21.5h6.1V55c-0.1,0.8,0.1,1.7,0.6,2.3c0.7,0.5,1.5,0.8,2.4,0.8v5.7
									c-1.3,0-2.6-0.1-3.8-0.3c-1-0.2-2-0.6-2.9-1.2c-0.8-0.7-1.4-1.6-1.8-2.6c-0.5-1.4-0.7-2.8-0.6-4.2L45.7,21.5"/>
								<path id="Fill-4" class="st0" d="M57.5,21.5h6.1V55c-0.1,0.8,0.1,1.7,0.6,2.3c0.7,0.5,1.5,0.8,2.4,0.8v5.7
									c-1.3,0-2.5-0.1-3.8-0.3c-1-0.2-2-0.6-2.8-1.2c-0.8-0.7-1.4-1.6-1.8-2.6c-0.5-1.4-0.7-2.8-0.6-4.2L57.5,21.5"/>
								<path id="Fill-5" class="st0" d="M69.1,43.6c0-1.1,0.1-2.2,0.2-3.4c0.1-0.9,0.4-1.9,0.9-2.7c0.7-1.3,1.8-2.4,3.1-3.1
									c3-1.6,6.6-1.6,9.7,0c2.2,1.2,3.7,3.4,4,5.8c0.2,1.1,0.2,2.2,0.2,3.4v9.8c0,1.1-0.1,2.2-0.2,3.4c-0.3,2.5-1.8,4.6-4,5.8
									c-3,1.6-6.6,1.6-9.7,0c-2.2-1.2-3.7-3.4-4-5.8c-0.2-1.1-0.2-2.2-0.2-3.4L69.1,43.6L69.1,43.6L69.1,43.6z M75.2,54.4
									c-0.1,0.9,0.2,1.8,0.8,2.6c1.2,1.1,3.1,1.1,4.4,0c0.6-0.7,0.9-1.6,0.8-2.6V42.7c0.1-0.9-0.2-1.8-0.8-2.6
									c-1.2-1.1-3.1-1.1-4.4,0c-0.6,0.7-0.9,1.6-0.8,2.6V54.4L75.2,54.4z"/>
								<path id="Fill-6" class="st0" d="M91.4,31.4c0-1.5,0.3-3.1,0.9-4.5c0.5-1.2,1.4-2.3,2.4-3.2c1-0.8,2.1-1.5,3.3-1.9
									c2.4-0.9,5-0.9,7.3,0c1.2,0.4,2.3,1.1,3.3,1.9c1,0.9,1.8,2,2.4,3.2c0.6,1.4,0.9,2.9,0.9,4.5v2.1h-6.1v-2.1
									c0.1-1.2-0.4-2.4-1.2-3.2c-1.7-1.4-4.1-1.4-5.8,0c-0.9,0.8-1.3,2-1.2,3.2v22.1c-0.1,1.2,0.4,2.4,1.2,3.2
									c1.7,1.4,4.1,1.4,5.8,0c0.9-0.8,1.3-2,1.2-3.2v-7.9h-4.8v-5.3h10.9v13.2c0,1.6-0.3,3.1-0.9,4.5c-0.6,1.2-1.4,2.3-2.4,3.2
									c-1,0.8-2.1,1.5-3.3,1.9c-2.4,0.9-5,0.9-7.3,0c-1.2-0.4-2.3-1.1-3.3-1.9c-1-0.9-1.8-2-2.4-3.2c-0.6-1.4-0.9-3-0.9-4.5
									L91.4,31.4"/>
								<path id="Fill-7" class="st0" d="M116.1,21.5h6.1v14.8h0.1c0.6-0.9,1.5-1.7,2.4-2.3c1-0.5,2.1-0.8,3.2-0.8
									c2.2-0.2,4.3,0.9,5.4,2.7c0.4,0.8,0.7,1.6,0.8,2.5c0.1,1.6,0.2,3.2,0.2,4.8v11.4c0,1.3-0.1,2.6-0.2,4
									c-0.1,0.9-0.4,1.7-0.8,2.5c-1.1,1.9-3.2,3-5.4,2.8c-1.2,0.1-2.4-0.2-3.5-0.9c-0.9-0.6-1.6-1.4-2.3-2.2v2.7h-6.1L116.1,21.5
									L116.1,21.5L116.1,21.5z M128.3,42.8c0-0.9-0.2-1.7-0.6-2.5c-0.5-0.8-1.4-1.2-2.4-1.1c-0.8,0-1.6,0.3-2.2,0.9
									c-0.6,0.6-0.9,1.5-0.9,2.3v11.6c0,1,0.3,1.9,0.8,2.7c0.5,0.7,1.4,1,2.2,1c0.9,0.1,1.8-0.4,2.3-1.1c0.5-0.9,0.8-1.9,0.7-2.9
									L128.3,42.8L128.3,42.8L128.3,42.8z"/>
								<path id="Fill-8" class="st0" d="M142.8,33.6l4.2,18.6h0.1l4.1-18.6h6.3l-8.7,35c-0.3,1.2-0.7,2.3-1.4,3.3
									c-0.5,0.8-1.2,1.5-2,2.1c-0.7,0.5-1.6,0.9-2.4,1.1c-0.9,0.2-1.8,0.3-2.7,0.3h-1.7v-5.7h1.4c0.5,0,1.1-0.1,1.6-0.2
									c0.5-0.2,0.9-0.5,1.2-1c0.4-0.7,0.7-1.5,0.9-2.4c0.3-1,0.6-2.4,1-4.1l-8.3-28.5L142.8,33.6"/>
								<path id="Fill-9" class="st0" d="M165.1,50.8v4.1c-0.1,0.8,0.2,1.6,0.8,2.2c0.6,0.5,1.4,0.8,2.2,0.8c0.9,0.1,1.8-0.3,2.3-1
									c0.4-0.6,0.6-1.3,0.7-2h6.1c0,1.2-0.2,2.4-0.6,3.5c-0.4,1.1-1,2-1.8,2.8c-0.8,0.8-1.8,1.5-2.9,1.9c-1.2,0.5-2.5,0.7-3.8,0.7
									c-1.7,0-3.4-0.4-4.8-1.2c-2.2-1.2-3.7-3.4-4-5.8c-0.2-1.1-0.2-2.2-0.2-3.4v-9.9c0-1.1,0.1-2.2,0.2-3.4
									c0.1-0.9,0.4-1.9,0.9-2.7c0.7-1.3,1.8-2.4,3.1-3.1c1.5-0.8,3.2-1.2,4.8-1.2c1.3,0,2.6,0.2,3.8,0.7c1.1,0.4,2.1,1.1,2.9,2
									c0.8,0.9,1.4,1.9,1.8,3c0.4,1.2,0.6,2.4,0.6,3.7v8.3L165.1,50.8L165.1,50.8z M165.1,46.1h6v-3.4c0.1-0.9-0.2-1.8-0.8-2.6
									c-1.2-1.1-3.1-1.1-4.4,0c-0.6,0.7-0.9,1.6-0.8,2.6L165.1,46.1L165.1,46.1L165.1,46.1z"/>
								<path id="Fill-10" class="st1" d="M189.8,6.6c0-1.7-1.4-3.1-3.1-3.1c0,0,0,0,0,0H180V2.3c0-1.2-1-2.3-2.3-2.3h-4.4
									C172,0,171,1,171,2.2c0,0,0,0,0,0v1.2h-6.7c-1.7,0-3.1,1.4-3.1,3.1c0,0,0,0,0,0v13.5c0,1.7,1.4,3.1,3.1,3.1c0,0,0,0,0,0
									h17.3l-1.6,6.6l8.7-7.3l0.1-0.1l0.1-0.1c0.6-0.6,1-1.4,1-2.2L189.8,6.6L189.8,6.6L189.8,6.6z M172.8,2.2
									c0-0.3,0.2-0.5,0.5-0.5c0,0,0,0,0,0h4.4c0.3,0,0.5,0.2,0.5,0.5c0,0,0,0,0,0v1.3h-5.4V2.2L172.8,2.2L172.8,2.2z"/>
							</g>
						</g>
					</g>
				</g>
			</g>
			<g id="BETA">
				<text transform="matrix(1 0 0 1 163.97 16.88)" class="st2 st3 st4">BE</text>
				<text transform="matrix(1 0 0 1 174.81 16.88)" class="st2 st3 st4">T</text>
				<text transform="matrix(1 0 0 1 179.35 16.88)" class="st2 st3 st4">A</text>
			</g>
		</g>
	</g>
</g>
<rect x="163" y="8.6" class="st1" width="23.8" height="12.1"/>
</svg>
