<?xml version="1.0" encoding="UTF-8" standalone="no"?>
<svg width="100px" height="100px" viewBox="0 0 100 100" version="1.1" xmlns="http://www.w3.org/2000/svg" xmlns:xlink="http://www.w3.org/1999/xlink">
    <!-- Generator: sketchtool 3.7 (28169) - http://www.bohemiancoding.com/sketch -->
    <title>FFF8A8BA-EDE6-4C4B-8CC9-87188760EA88</title>
    <desc>Created with sketchtool.</desc>
    <defs></defs>
    <g id="Responsive-Web" stroke="none" stroke-width="1" fill="none" fill-rule="evenodd">
        <g id="Onbording---CNC---spaceing+hotel_watermark_a1" transform="translate(-771.000000, -439.000000)" fill="#B9B9B9">
            <g id="Group-6" transform="translate(771.000000, 439.000000)">
                <path d="M28.125,96.875 L71.875,96.875 L71.875,3.125 L28.125,3.125 L28.125,96.875 Z M73.4375,100 L26.5625,100 C25.6984375,100 25,99.3015625 25,98.4375 L25,1.5625 C25,0.6984375 25.6984375,0 26.5625,0 L73.4375,0 C74.3015625,0 75,0.6984375 75,1.5625 L75,98.4375 C75,99.3015625 74.3015625,100 73.4375,100 L73.4375,100 Z" id="Fill-81"></path>
                <polygon id="Fill-82" points="31.25 85.9375 68.75 85.9375 68.75 82.8125 31.25 82.8125"></polygon>
                <polygon id="Fill-83" points="34.375 98.4375 37.5 98.4375 37.5 84.375 34.375 84.375"></polygon>
                <polygon id="Fill-84" points="62.5 98.4375 65.625 98.4375 65.625 84.375 62.5 84.375"></polygon>
                <polygon id="Fill-85" points="48.4375 98.4375 51.5625 98.4375 51.5625 84.375 48.4375 84.375"></polygon>
                <polygon id="Fill-86" points="54.6875 92.1875 57.8125 92.1875 57.8125 89.0625 54.6875 89.0625"></polygon>
                <polygon id="Fill-87" points="42.1875 92.1875 45.3125 92.1875 45.3125 89.0625 42.1875 89.0625"></polygon>
                <path d="M60.9375,75 L64.0625,75 L64.0625,71.875 L60.9375,71.875 L60.9375,75 Z M65.625,78.125 L59.375,78.125 C58.5109375,78.125 57.8125,77.4265625 57.8125,76.5625 L57.8125,70.3125 C57.8125,69.4484375 58.5109375,68.75 59.375,68.75 L65.625,68.75 C66.4890625,68.75 67.1875,69.4484375 67.1875,70.3125 L67.1875,76.5625 C67.1875,77.4265625 66.4890625,78.125 65.625,78.125 L65.625,78.125 Z" id="Fill-88"></path>
                <path d="M48.4375,75 L51.5625,75 L51.5625,71.875 L48.4375,71.875 L48.4375,75 Z M53.125,78.125 L46.875,78.125 C46.0109375,78.125 45.3125,77.4265625 45.3125,76.5625 L45.3125,70.3125 C45.3125,69.4484375 46.0109375,68.75 46.875,68.75 L53.125,68.75 C53.9890625,68.75 54.6875,69.4484375 54.6875,70.3125 L54.6875,76.5625 C54.6875,77.4265625 53.9890625,78.125 53.125,78.125 L53.125,78.125 Z" id="Fill-89"></path>
                <path d="M35.9375,75 L39.0625,75 L39.0625,71.875 L35.9375,71.875 L35.9375,75 Z M40.625,78.125 L34.375,78.125 C33.5109375,78.125 32.8125,77.4265625 32.8125,76.5625 L32.8125,70.3125 C32.8125,69.4484375 33.5109375,68.75 34.375,68.75 L40.625,68.75 C41.4890625,68.75 42.1875,69.4484375 42.1875,70.3125 L42.1875,76.5625 C42.1875,77.4265625 41.4890625,78.125 40.625,78.125 L40.625,78.125 Z" id="Fill-90"></path>
                <path d="M60.9375,60.9375 L64.0625,60.9375 L64.0625,57.8125 L60.9375,57.8125 L60.9375,60.9375 Z M65.625,64.0625 L59.375,64.0625 C58.5109375,64.0625 57.8125,63.3640625 57.8125,62.5 L57.8125,56.25 C57.8125,55.3859375 58.5109375,54.6875 59.375,54.6875 L65.625,54.6875 C66.4890625,54.6875 67.1875,55.3859375 67.1875,56.25 L67.1875,62.5 C67.1875,63.3640625 66.4890625,64.0625 65.625,64.0625 L65.625,64.0625 Z" id="Fill-91"></path>
                <path d="M48.4375,60.9375 L51.5625,60.9375 L51.5625,57.8125 L48.4375,57.8125 L48.4375,60.9375 Z M53.125,64.0625 L46.875,64.0625 C46.0109375,64.0625 45.3125,63.3640625 45.3125,62.5 L45.3125,56.25 C45.3125,55.3859375 46.0109375,54.6875 46.875,54.6875 L53.125,54.6875 C53.9890625,54.6875 54.6875,55.3859375 54.6875,56.25 L54.6875,62.5 C54.6875,63.3640625 53.9890625,64.0625 53.125,64.0625 L53.125,64.0625 Z" id="Fill-92"></path>
                <path d="M35.9375,60.9375 L39.0625,60.9375 L39.0625,57.8125 L35.9375,57.8125 L35.9375,60.9375 Z M40.625,64.0625 L34.375,64.0625 C33.5109375,64.0625 32.8125,63.3640625 32.8125,62.5 L32.8125,56.25 C32.8125,55.3859375 33.5109375,54.6875 34.375,54.6875 L40.625,54.6875 C41.4890625,54.6875 42.1875,55.3859375 42.1875,56.25 L42.1875,62.5 C42.1875,63.3640625 41.4890625,64.0625 40.625,64.0625 L40.625,64.0625 Z" id="Fill-93"></path>
                <path d="M60.9375,46.875 L64.0625,46.875 L64.0625,43.75 L60.9375,43.75 L60.9375,46.875 Z M65.625,50 L59.375,50 C58.5109375,50 57.8125,49.3015625 57.8125,48.4375 L57.8125,42.1875 C57.8125,41.3234375 58.5109375,40.625 59.375,40.625 L65.625,40.625 C66.4890625,40.625 67.1875,41.3234375 67.1875,42.1875 L67.1875,48.4375 C67.1875,49.3015625 66.4890625,50 65.625,50 L65.625,50 Z" id="Fill-94"></path>
                <path d="M48.4375,46.875 L51.5625,46.875 L51.5625,43.75 L48.4375,43.75 L48.4375,46.875 Z M53.125,50 L46.875,50 C46.0109375,50 45.3125,49.3015625 45.3125,48.4375 L45.3125,42.1875 C45.3125,41.3234375 46.0109375,40.625 46.875,40.625 L53.125,40.625 C53.9890625,40.625 54.6875,41.3234375 54.6875,42.1875 L54.6875,48.4375 C54.6875,49.3015625 53.9890625,50 53.125,50 L53.125,50 Z" id="Fill-95"></path>
                <path d="M35.9375,46.875 L39.0625,46.875 L39.0625,43.75 L35.9375,43.75 L35.9375,46.875 Z M40.625,50 L34.375,50 C33.5109375,50 32.8125,49.3015625 32.8125,48.4375 L32.8125,42.1875 C32.8125,41.3234375 33.5109375,40.625 34.375,40.625 L40.625,40.625 C41.4890625,40.625 42.1875,41.3234375 42.1875,42.1875 L42.1875,48.4375 C42.1875,49.3015625 41.4890625,50 40.625,50 L40.625,50 Z" id="Fill-96"></path>
                <path d="M60.9375,32.8125 L64.0625,32.8125 L64.0625,29.6875 L60.9375,29.6875 L60.9375,32.8125 Z M65.625,35.9375 L59.375,35.9375 C58.5109375,35.9375 57.8125,35.2390625 57.8125,34.375 L57.8125,28.125 C57.8125,27.2609375 58.5109375,26.5625 59.375,26.5625 L65.625,26.5625 C66.4890625,26.5625 67.1875,27.2609375 67.1875,28.125 L67.1875,34.375 C67.1875,35.2390625 66.4890625,35.9375 65.625,35.9375 L65.625,35.9375 Z" id="Fill-97"></path>
                <path d="M48.4375,32.8125 L51.5625,32.8125 L51.5625,29.6875 L48.4375,29.6875 L48.4375,32.8125 Z M53.125,35.9375 L46.875,35.9375 C46.0109375,35.9375 45.3125,35.2390625 45.3125,34.375 L45.3125,28.125 C45.3125,27.2609375 46.0109375,26.5625 46.875,26.5625 L53.125,26.5625 C53.9890625,26.5625 54.6875,27.2609375 54.6875,28.125 L54.6875,34.375 C54.6875,35.2390625 53.9890625,35.9375 53.125,35.9375 L53.125,35.9375 Z" id="Fill-98"></path>
                <path d="M35.9375,32.8125 L39.0625,32.8125 L39.0625,29.6875 L35.9375,29.6875 L35.9375,32.8125 Z M40.625,35.9375 L34.375,35.9375 C33.5109375,35.9375 32.8125,35.2390625 32.8125,34.375 L32.8125,28.125 C32.8125,27.2609375 33.5109375,26.5625 34.375,26.5625 L40.625,26.5625 C41.4890625,26.5625 42.1875,27.2609375 42.1875,28.125 L42.1875,34.375 C42.1875,35.2390625 41.4890625,35.9375 40.625,35.9375 L40.625,35.9375 Z" id="Fill-99"></path>
                <path d="M60.9375,18.75 L64.0625,18.75 L64.0625,15.625 L60.9375,15.625 L60.9375,18.75 Z M65.625,21.875 L59.375,21.875 C58.5109375,21.875 57.8125,21.1765625 57.8125,20.3125 L57.8125,14.0625 C57.8125,13.1984375 58.5109375,12.5 59.375,12.5 L65.625,12.5 C66.4890625,12.5 67.1875,13.1984375 67.1875,14.0625 L67.1875,20.3125 C67.1875,21.1765625 66.4890625,21.875 65.625,21.875 L65.625,21.875 Z" id="Fill-100"></path>
                <path d="M48.4375,18.75 L51.5625,18.75 L51.5625,15.625 L48.4375,15.625 L48.4375,18.75 Z M53.125,21.875 L46.875,21.875 C46.0109375,21.875 45.3125,21.1765625 45.3125,20.3125 L45.3125,14.0625 C45.3125,13.1984375 46.0109375,12.5 46.875,12.5 L53.125,12.5 C53.9890625,12.5 54.6875,13.1984375 54.6875,14.0625 L54.6875,20.3125 C54.6875,21.1765625 53.9890625,21.875 53.125,21.875 L53.125,21.875 Z" id="Fill-101"></path>
                <path d="M35.9375,18.75 L39.0625,18.75 L39.0625,15.625 L35.9375,15.625 L35.9375,18.75 Z M40.625,21.875 L34.375,21.875 C33.5109375,21.875 32.8125,21.1765625 32.8125,20.3125 L32.8125,14.0625 C32.8125,13.1984375 33.5109375,12.5 34.375,12.5 L40.625,12.5 C41.4890625,12.5 42.1875,13.1984375 42.1875,14.0625 L42.1875,20.3125 C42.1875,21.1765625 41.4890625,21.875 40.625,21.875 L40.625,21.875 Z" id="Fill-102"></path>
                <path d="M75,96.875 L96.875,96.875 L96.875,35.9375 L75,35.9375 L75,96.875 Z M98.4375,100 L73.4375,100 C72.5734375,100 71.875,99.3015625 71.875,98.4375 L71.875,34.375 C71.875,33.5109375 72.5734375,32.8125 73.4375,32.8125 L98.4375,32.8125 C99.3015625,32.8125 100,33.5109375 100,34.375 L100,98.4375 C100,99.3015625 99.3015625,100 98.4375,100 L98.4375,100 Z" id="Fill-103"></path>
                <polygon id="Fill-104" points="78.125 43.75 81.25 43.75 81.25 40.625 78.125 40.625"></polygon>
                <polygon id="Fill-105" points="84.375 43.75 87.5 43.75 87.5 40.625 84.375 40.625"></polygon>
                <polygon id="Fill-106" points="90.625 43.75 93.75 43.75 93.75 40.625 90.625 40.625"></polygon>
                <polygon id="Fill-107" points="78.125 50 81.25 50 81.25 46.875 78.125 46.875"></polygon>
                <polygon id="Fill-108" points="84.375 50 87.5 50 87.5 46.875 84.375 46.875"></polygon>
                <polygon id="Fill-109" points="90.625 50 93.75 50 93.75 46.875 90.625 46.875"></polygon>
                <polygon id="Fill-110" points="78.125 71.875 81.25 71.875 81.25 68.75 78.125 68.75"></polygon>
                <polygon id="Fill-111" points="84.375 71.875 87.5 71.875 87.5 68.75 84.375 68.75"></polygon>
                <polygon id="Fill-112" points="90.625 71.875 93.75 71.875 93.75 68.75 90.625 68.75"></polygon>
                <polygon id="Fill-113" points="78.125 78.125 81.25 78.125 81.25 75 78.125 75"></polygon>
                <polygon id="Fill-114" points="84.375 78.125 87.5 78.125 87.5 75 84.375 75"></polygon>
                <polygon id="Fill-115" points="90.625 78.125 93.75 78.125 93.75 75 90.625 75"></polygon>
                <polygon id="Fill-116" points="78.125 57.8125 81.25 57.8125 81.25 54.6875 78.125 54.6875"></polygon>
                <polygon id="Fill-117" points="84.375 57.8125 87.5 57.8125 87.5 54.6875 84.375 54.6875"></polygon>
                <polygon id="Fill-118" points="90.625 57.8125 93.75 57.8125 93.75 54.6875 90.625 54.6875"></polygon>
                <polygon id="Fill-119" points="78.125 64.0625 81.25 64.0625 81.25 60.9375 78.125 60.9375"></polygon>
                <polygon id="Fill-120" points="84.375 64.0625 87.5 64.0625 87.5 60.9375 84.375 60.9375"></polygon>
                <polygon id="Fill-121" points="90.625 64.0625 93.75 64.0625 93.75 60.9375 90.625 60.9375"></polygon>
                <polygon id="Fill-122" points="32.8125 9.375 67.1875 9.375 67.1875 6.25 32.8125 6.25"></polygon>
                <polygon id="Fill-123" points="78.125 34.375 81.25 34.375 81.25 29.6875 78.125 29.6875"></polygon>
                <polygon id="Fill-124" points="92.1875 34.375 95.3125 34.375 95.3125 29.6875 92.1875 29.6875"></polygon>
                <polygon id="Fill-125" points="73.4375 85.9375 98.4375 85.9375 98.4375 82.8125 73.4375 82.8125"></polygon>
                <polygon id="Fill-126" points="73.4375 92.1875 98.4375 92.1875 98.4375 89.0625 73.4375 89.0625"></polygon>
                <path d="M3.125,96.875 L25,96.875 L25,35.9375 L3.125,35.9375 L3.125,96.875 Z M26.5625,100 L1.5625,100 C0.6984375,100 0,99.3015625 0,98.4375 L0,34.375 C0,33.5109375 0.6984375,32.8125 1.5625,32.8125 L26.5625,32.8125 C27.4265625,32.8125 28.125,33.5109375 28.125,34.375 L28.125,98.4375 C28.125,99.3015625 27.4265625,100 26.5625,100 L26.5625,100 Z" id="Fill-127"></path>
                <polygon id="Fill-128" points="6.25 43.75 9.375 43.75 9.375 40.625 6.25 40.625"></polygon>
                <polygon id="Fill-129" points="12.5 43.75 15.625 43.75 15.625 40.625 12.5 40.625"></polygon>
                <polygon id="Fill-130" points="18.75 43.75 21.875 43.75 21.875 40.625 18.75 40.625"></polygon>
                <polygon id="Fill-131" points="6.25 50 9.375 50 9.375 46.875 6.25 46.875"></polygon>
                <polygon id="Fill-132" points="12.5 50 15.625 50 15.625 46.875 12.5 46.875"></polygon>
                <polygon id="Fill-133" points="18.75 50 21.875 50 21.875 46.875 18.75 46.875"></polygon>
                <polygon id="Fill-134" points="6.25 71.875 9.375 71.875 9.375 68.75 6.25 68.75"></polygon>
                <polygon id="Fill-135" points="12.5 71.875 15.625 71.875 15.625 68.75 12.5 68.75"></polygon>
                <polygon id="Fill-136" points="18.75 71.875 21.875 71.875 21.875 68.75 18.75 68.75"></polygon>
                <polygon id="Fill-137" points="6.25 78.125 9.375 78.125 9.375 75 6.25 75"></polygon>
                <polygon id="Fill-138" points="12.5 78.125 15.625 78.125 15.625 75 12.5 75"></polygon>
                <polygon id="Fill-139" points="18.75 78.125 21.875 78.125 21.875 75 18.75 75"></polygon>
                <polygon id="Fill-140" points="6.25 57.8125 9.375 57.8125 9.375 54.6875 6.25 54.6875"></polygon>
                <polygon id="Fill-141" points="12.5 57.8125 15.625 57.8125 15.625 54.6875 12.5 54.6875"></polygon>
                <polygon id="Fill-142" points="18.75 57.8125 21.875 57.8125 21.875 54.6875 18.75 54.6875"></polygon>
                <polygon id="Fill-143" points="6.25 64.0625 9.375 64.0625 9.375 60.9375 6.25 60.9375"></polygon>
                <polygon id="Fill-144" points="12.5 64.0625 15.625 64.0625 15.625 60.9375 12.5 60.9375"></polygon>
                <polygon id="Fill-145" points="18.75 64.0625 21.875 64.0625 21.875 60.9375 18.75 60.9375"></polygon>
                <polygon id="Fill-146" points="6.25 34.375 9.375 34.375 9.375 29.6875 6.25 29.6875"></polygon>
                <polygon id="Fill-147" points="20.3125 34.375 23.4375 34.375 23.4375 29.6875 20.3125 29.6875"></polygon>
                <polygon id="Fill-148" points="1.5625 85.9375 26.5625 85.9375 26.5625 82.8125 1.5625 82.8125"></polygon>
                <polygon id="Fill-149" points="1.5625 92.1875 26.5625 92.1875 26.5625 89.0625 1.5625 89.0625"></polygon>
            </g>
        </g>
    </g>
</svg>