<?xml version="1.0" encoding="UTF-8" standalone="no"?>
<svg width="26px" height="20px" viewBox="0 0 26 20" version="1.1" xmlns="http://www.w3.org/2000/svg" xmlns:xlink="http://www.w3.org/1999/xlink">
    <!-- Generator: sketchtool 3.8.3 (29802) - http://www.bohemiancoding.com/sketch -->
    <title>BD62A790-3D08-4D96-8C8E-C1A21F7AB122</title>
    <desc>Created with sketchtool.</desc>
    <defs></defs>
    <g id="Desktop" stroke="none" stroke-width="1" fill="none" fill-rule="evenodd">
        <g id="Travel-Companions-Main-Page---Behavior" transform="translate(-1113.000000, -267.000000)">
            <g id="Group-3" transform="translate(312.000000, 63.000000)">
                <g id="Invited-by-mail" transform="translate(802.000000, 202.000000)">
                    <g id="Group" transform="translate(0.000000, 3.000000)" stroke="#005076" stroke-width="1.4" stroke-linecap="round" stroke-linejoin="round">
                        <path d="M20.891,3.31034483 L12.964,10.0121842 C12.3638,10.5196386 11.4143,10.5196386 10.8141,10.0121842 L2.8872,3.31034483" id="Shape"></path>
                        <path d="M15.581,11.5531862 L20.8912,15.2301001" id="Shape"></path>
                        <path d="M8.1977,11.5531862 L2.8874,15.2301001" id="Shape"></path>
                        <path d="M0.5,2.7908 L0.5,15.2123 C0.5,16.4763 1.525,17.5 2.8423,17.5 L21.1503,17.5 C22.4674,17.5 23.4999,16.4763 23.4999,15.2122 L23.4999,2.7908 C23.5,1.5266 22.4675,0.5 21.1504,0.5 L2.8423,0.5 C1.525,0.5 0.5,1.5266 0.5,2.7908 L0.5,2.7908 Z" id="Shape"></path>
                    </g>
                    <rect id="Rectangle-path" x="0" y="0" width="24" height="24"></rect>
                </g>
            </g>
        </g>
    </g>
</svg>