<svg xmlns="http://www.w3.org/2000/svg" width="30" height="29" viewBox="0 0 30 29">
    <g fill="none" fill-rule="evenodd">
        <path fill="#FFF" d="M15.412 27.328c-.316-.156-.827-.157-1.145 0l-1.877.924A2.642 2.642 0 0 1 8.9 27.115l-.983-1.867c-.165-.313-.579-.616-.927-.678l-2.05-.362a2.672 2.672 0 0 1-2.17-2.982l.295-2.1c.05-.351-.108-.842-.354-1.098L1.252 16.51c-.979-1.02-.975-2.676 0-3.692l1.458-1.519c.245-.255.403-.745.354-1.097l-.295-2.1A2.674 2.674 0 0 1 4.94 5.12l2.05-.363c.347-.06.761-.363.927-.678l.983-1.867a2.648 2.648 0 0 1 3.491-1.137L14.267 2c.317.155.828.156 1.145 0l1.878-.925a2.642 2.642 0 0 1 3.49 1.137l.984 1.867c.165.314.578.617.926.678l2.05.363a2.672 2.672 0 0 1 2.17 2.982l-.294 2.1c-.05.35.108.841.354 1.097l1.458 1.519c.978 1.02.975 2.676 0 3.692l-1.458 1.518c-.245.255-.404.745-.354 1.098l.294 2.1a2.674 2.674 0 0 1-2.17 2.982l-2.05.362c-.346.061-.76.364-.926.678l-.983 1.867a2.648 2.648 0 0 1-3.491 1.137l-1.878-.924zm3.104-1.406l.983-1.866c.533-1.014 1.618-1.808 2.746-2.007 0 0 2.135-.432 2.13-.467l-.294-2.1c-.159-1.13.253-2.404 1.042-3.226 0 0 1.484-1.638 1.458-1.665l-1.458-1.519c-.79-.823-1.2-2.098-1.042-3.226 0 0 .255-2.198.214-2.205l-2.05-.363c-1.129-.2-2.213-.994-2.746-2.006 0 0-1.051-1.914-1.078-1.9l-1.877.924c-1.03.508-2.378.507-3.408 0 0 0-1.959-.916-1.972-.89l-.983 1.866c-.534 1.013-1.619 1.807-2.746 2.006l-2.05.363c-.04.007.214 2.205.214 2.205.159 1.129-.253 2.404-1.042 3.226l-1.458 1.519c-.026.027 1.458 1.665 1.458 1.665.79.822 1.2 2.098 1.042 3.226l-.295 2.1c-.005.036 2.131.467 2.131.467 1.128.2 2.213.994 2.746 2.007 0 0 1.05 1.913 1.078 1.9l1.877-.925c1.03-.507 2.378-.507 3.408 0 0 0 1.958.917 1.972.891z"/>
        <path stroke="#FFF" stroke-width="2.8" d="M10.02 15.479l3.163 3.167 7.228-7.239"/>
    </g>
</svg>
