<svg xmlns="http://www.w3.org/2000/svg" xmlns:xlink="http://www.w3.org/1999/xlink" width="740" height="298" viewBox="0 0 740 298">
    <defs>
        <linearGradient id="b" x1="50%" x2="50%" y1="0%" y2="100%">
            <stop offset="0%" stop-color="#F8FBFD"/>
            <stop offset="50.846%" stop-color="#E8F0F3"/>
            <stop offset="100%" stop-color="#E6EDF1"/>
        </linearGradient>
        <path id="a" d="M0 .526h435.266v297H0z"/>
        <linearGradient id="d" x1="60.363%" x2="38.463%" y1="34.35%" y2="126.49%">
            <stop offset="0%" stop-color="#FFFBF1"/>
            <stop offset="100%" stop-color="#F3F5F9"/>
        </linearGradient>
        <linearGradient id="e" x1="70.779%" x2="33.973%" y1="0%" y2="100%">
            <stop offset="0%" stop-color="#FFFBF1"/>
            <stop offset="100%" stop-color="#FFF"/>
        </linearGradient>
        <linearGradient id="f" x1="50%" x2="74.993%" y1="0%" y2="100%">
            <stop offset="0%" stop-color="#FFFBF1"/>
            <stop offset="100%" stop-color="#FFF"/>
        </linearGradient>
        <linearGradient id="g" x1="76.65%" x2="76.65%" y1="61.145%" y2="100%">
            <stop offset="0%" stop-color="#EEF6F8"/>
            <stop offset="100%" stop-color="#FFF" stop-opacity=".003"/>
        </linearGradient>
        <linearGradient id="h" x1="50%" x2="50%" y1="0%" y2="100%">
            <stop offset="0%" stop-color="#FFFBF1"/>
            <stop offset="100%" stop-color="#FFF"/>
        </linearGradient>
        <linearGradient id="i" x1="26.973%" x2="60.076%" y1="7.72%" y2="112.451%">
            <stop offset="0%" stop-color="#FFFBF1"/>
            <stop offset="100%" stop-color="#F5FBFF"/>
        </linearGradient>
        <linearGradient id="j" x1="42.914%" x2="80.356%" y1="20.4%" y2="122.536%">
            <stop offset="0%" stop-color="#FCF8EF"/>
            <stop offset="100%" stop-color="#F5FCFF"/>
        </linearGradient>
        <linearGradient id="k" x1="50%" x2="119.04%" y1="0%" y2="100%">
            <stop offset="0%" stop-color="#FFF7E8"/>
            <stop offset="100%" stop-color="#F6FAFD"/>
        </linearGradient>
        <linearGradient id="l" x1="76.65%" x2="76.65%" y1="61.145%" y2="100%">
            <stop offset="0%" stop-color="#EEF5F8"/>
            <stop offset="100%" stop-color="#EEF5F8" stop-opacity="0"/>
        </linearGradient>
        <linearGradient id="m" x1="50%" x2="50%" y1="0%" y2="100%">
            <stop offset="0%" stop-color="#EEF6F8"/>
            <stop offset="100%" stop-color="#E6EEF1"/>
        </linearGradient>
        <linearGradient id="n" x1="50%" x2="50%" y1="13.064%" y2="89.708%">
            <stop offset="0%" stop-color="#FDFAF4"/>
            <stop offset="100%" stop-color="#FFF" stop-opacity=".012"/>
        </linearGradient>
        <linearGradient id="p" x1="50%" x2="50%" y1="0%" y2="96.486%">
            <stop offset="0%" stop-color="#F6FAFB"/>
            <stop offset="100%" stop-color="#F3F8F9"/>
        </linearGradient>
        <path id="o" d="M.269 0h301.087v145H.269z"/>
        <linearGradient id="r" x1="50%" x2="50%" y1="13.064%" y2="89.251%">
            <stop offset="0%" stop-color="#FFF"/>
            <stop offset="100%" stop-color="#F3F8F9"/>
        </linearGradient>
        <linearGradient id="t" x1="50%" x2="50%" y1="0%" y2="100%">
            <stop offset="0%" stop-color="#F5F9FB"/>
            <stop offset="100%" stop-color="#EEF6F8"/>
        </linearGradient>
        <path id="s" d="M.269.488h146.174v145H.269z"/>
        <linearGradient id="v" x1="26.973%" x2="50%" y1="7.72%" y2="100%">
            <stop offset="0%" stop-color="#FFFBF1"/>
            <stop offset="100%" stop-color="#FFF"/>
        </linearGradient>
        <linearGradient id="x" x1="50%" x2="50%" y1="0%" y2="97.59%">
            <stop offset="0%" stop-color="#F5F9FB"/>
            <stop offset="100%" stop-color="#EEF6F8"/>
        </linearGradient>
        <path id="w" d="M604.768 154.878h146.174v145H604.768z"/>
    </defs>
    <g fill="none" fill-rule="evenodd" transform="translate(-8.04 -1.24)">
        <g transform="translate(5.4 .4)">
            <mask id="c" fill="#fff">
                <use xlink:href="#a"/>
            </mask>
            <use fill="url(#b)" xlink:href="#a"/>
            <g mask="url(#c)">
                <path fill="#E3EFF6" d="M116.3 207.364l-25.4-9.569v-18.247c0-.497-14.44-11.786-14.44-11.786-.884-.168-15.636 8.996-17.909 10.402v37.158l-9.492 2.444a1.458 1.458 0 0 0-1.033 1.777c.169.658.618 1.094 1.262 1.094.117 0 4.287-1.055 4.287-1.055v14.558h58.475v-25.417l3.31 1.373c1.873-1.611 1.688-2.45.94-2.732M145.088 146.75v-10.405c0-1.203 1.295-2.177 2.488-2.177s2.488.974 2.488 2.177v10.405h8.337c1.192 0 1.616.988 1.616 2.19l-.063 84.76h-38.569l.063-84.76c0-1.202 1.233-2.19 2.425-2.19h21.215z"/>
                <path fill="url(#d)" d="M274.979 197.476h-57.232v-20.61s-4.763 1.055-4.882 1.055c-.643 0-1.14-.436-1.308-1.094-.198-.78.212-1.574.985-1.775l27.6-7.231v-14.832l-3.81-1.47c-.747-.28-1.02-1.122-.744-1.874a1.443 1.443 0 0 1 1.857-.859l42.247 15.862a1.461 1.461 0 0 1 .84 1.876c-.217.586-.786.948-1.865.857l-3.688-1.613" transform="translate(-128.691 36.484)"/>
                <path fill="#E3EFF6" d="M453.595 233.96h-57.231v-20.61s-4.764 1.055-4.882 1.055c-.643 0-1.14-.436-1.31-1.094-.197-.78.214-1.574.986-1.775l27.6-7.231v-14.832l-3.809-1.47c-.748-.28-1.021-1.122-.745-1.874a1.443 1.443 0 0 1 1.857-.859l42.247 15.862a1.461 1.461 0 0 1 .841 1.876c-.218.586-.786.948-1.866.857l-3.688-1.613"/>
                <path fill="#C4E6F6" d="M418.422 201.947v2.318l1.325-2.318h-1.325zm3.764 0l-3.764 6.586v3.302l5.65-9.888h-1.886zm4.326 0l-8.09 14.156v18.29h-3.506v-18.29l-8.091-14.156h-1.767c-7.043 0-10.716-8.803-3.698-13.006 1.352-7.975 10.658-11.44 16.89-6.344 4.679-.562 7.933 1.989 8.967 5.254 4.846-.457 8.744 3.065 8.744 7.027 0 3.83-3.594 7.069-7.848 7.069h-1.6zm-17.247 0l5.651 9.888v-3.302l-3.765-6.586h-1.886zm4.326 0l1.325 2.318v-2.318h-1.325z"/>
                <path fill="url(#e)" d="M184.706 187.668v-2.013a10.395 10.395 0 0 0 6.659-3.425h2.526c-2.038 3.017-5.364 5.097-9.185 5.438zm-6.281-5.438h4.05v1.651a8.605 8.605 0 0 1-4.05-1.651zm4.05 5.438c-3.82-.341-7.146-2.42-9.185-5.438h2.526a10.396 10.396 0 0 0 6.659 3.425v2.013zm2.231-5.438h4.05a8.605 8.605 0 0 1-4.05 1.651v-1.651zm13.414-14.778a5.714 5.714 0 0 0 1.456-3.8c0-3.251-2.755-5.887-6.153-5.887a6.345 6.345 0 0 0-2.937.713c-2.187-2.182-5.405-3.563-8.995-3.563-6.59 0-11.932 4.646-11.932 10.377 0 .74.09 1.461.26 2.157-.116-.005-.23-.017-.347-.017-4.27 0-7.731 3.313-7.731 7.4 0 4.085 3.461 7.398 7.731 7.398h1.482c2.283 4.15 6.548 7.054 11.521 7.435v8.795h2.231v-8.795c4.974-.381 9.238-3.286 11.52-7.435h1.483c4.27 0 7.732-3.313 7.732-7.399 0-3.953-3.243-7.173-7.32-7.379z" transform="translate(-128.691 36.484)"/>
                <path fill="#C3E6F5" d="M72.269 207.053c5.123 4.922 16.55-.733 15.082-13.109a17.603 17.603 0 0 0-3.344-.824c.997-2.873 1.034-6.447-.577-10.372-1.937-.129-3.695.046-5.265.447 1.168-4.386-.45-10.301-6.702-14.19-6.253 3.889-7.872 9.804-6.703 14.19-1.57-.401-3.328-.576-5.265-.447-1.611 3.925-1.574 7.499-.578 10.372-1.073.152-2.19.42-3.343.824-1.457 12.282 9.786 17.944 14.964 13.22l-.82 25.921a.938.938 0 0 0 .942.97h1.49c.536 0 .96-.436.943-.97l-.824-26.032z"/>
                <path fill="url(#f)" d="M592.38 172.246l-7.329 12.663v14.31h-2.778v-14.31l-7.33-12.663c-3.122-1.403-5.118-3.545-5.118-5.944 0-4.227 6.195-7.654 13.837-7.654 7.642 0 13.837 3.427 13.837 7.654 0 2.4-1.995 4.54-5.118 5.944zm-2.442.88a20.97 20.97 0 0 1-1.731.408l-3.156 5.452v2.583l4.887-8.443zm-3.84.713c-.345.034-.694.06-1.047.08v1.727l1.046-1.807zm-3.825.08c-.353-.02-.702-.046-1.046-.08l1.046 1.807v-1.727zm-3.156-.385a20.97 20.97 0 0 1-1.731-.408l4.887 8.443v-2.583l-3.156-5.452z" transform="translate(-128.691 36.484)"/>
                <path fill="url(#g)" d="M150.543 184.775h466.56v51.011h-466.56z" transform="matrix(1 0 0 -1 -128.691 457.045)"/>
                <path fill="#E0EDF5" d="M254.51 233.7h70.917V117.09c0-1.17-1.146-2.242-1.964-2.242h-19.526v-14.7c0-1.17-.375-2.06-1.192-2.06h-26.64c-.818 0-1.18.89-1.18 2.06v22.32h-19.54c-.817 0-.875 1.922-.875 3.09v108.143z"/>
                <path fill="#E3EFF6" d="M380.09 146.84l-30.062 14.375c-.687.327-.962.951-.962 1.626v46.456h-8.017c-.785 0-1.936 1.127-1.936 1.803v22.6h44.79v-85.236c0-.657-.813-1.267-1.468-1.6-.654-.327-1.676-.344-2.346-.024zM213.39 109.425V99.02c0-1.203-1.296-2.177-2.489-2.177-1.193 0-2.488.974-2.488 2.177v10.405h-10.826c-1.192 0-1.616.988-1.616 2.191l-2.425 122.085h38.57l2.424-122.085c0-1.203-1.233-2.19-2.425-2.19H213.39z"/>
                <path fill="url(#h)" d="M339.656 89.292c.697.415 1.56 1.175 1.56 1.994v106.208h-47.594v-28.161c0-.842 1.223-2.246 2.057-2.246h8.52V109.2c0-.841.291-1.618 1.021-2.026l31.944-17.912c.711-.398 1.798-.377 2.492.03zm-11.48 23.419v5.488h5.438v-5.488h-5.439zm0 14.635v5.488h5.438v-5.488h-5.439zm0 14.636v5.488h5.438v-5.488h-5.439zm0 21.953v5.488h5.438v-5.488h-5.439zm0-43.907v5.489h5.438v-5.489h-5.439zm0 14.636v5.488h5.438v-5.488h-5.439zm0 21.953v5.488h5.438v-5.488h-5.439zm0-7.318v5.489h5.438v-5.489h-5.439zm0 21.953v5.489h5.438v-5.489h-5.439zm-8.159-58.541v5.488h5.439v-5.488h-5.439zm0 14.635v5.488h5.439v-5.488h-5.439zm0 14.636v5.488h5.439v-5.488h-5.439zm0 21.953v5.488h5.439v-5.488h-5.439zm0-43.907v5.489h5.439v-5.489h-5.439zm0 14.636v5.488h5.439v-5.488h-5.439zm0 21.953v5.488h5.439v-5.488h-5.439zm0-7.318v5.489h5.439v-5.489h-5.439zm0 21.953v5.489h5.439v-5.489h-5.439zm-8.157-58.541v5.488h5.438v-5.488h-5.438zm0 14.635v5.488h5.438v-5.488h-5.438zm0 14.636v5.488h5.438v-5.488h-5.438zm0 21.953v5.488h5.438v-5.488h-5.438zm0-43.907v5.489h5.438v-5.489h-5.438zm0 14.636v5.488h5.438v-5.488h-5.438zm0 21.953v5.488h5.438v-5.488h-5.438zm0-7.318v5.489h5.438v-5.489h-5.438zm0 21.953v5.489h5.438v-5.489h-5.438z" transform="translate(-128.691 36.484)"/>
                <path fill="#C3E6F5" d="M376.093 198.583c4.82 4.63 15.571-.69 14.19-12.334a16.562 16.562 0 0 0-3.146-.776c.938-2.703.973-6.065-.543-9.758-1.822-.122-3.476.043-4.953.42 1.099-4.127-.425-9.692-6.306-13.352-5.883 3.66-7.406 9.225-6.307 13.352-1.477-.377-3.13-.542-4.954-.42-1.515 3.693-1.48 7.055-.543 9.758-1.01.143-2.06.396-3.146.776-1.37 11.555 9.208 16.883 14.08 12.438l-.773 24.388a.883.883 0 0 0 .887.913h1.403c.503 0 .902-.41.887-.913l-.776-24.492z"/>
                <path fill="url(#i)" d="M559.764 170.88l-25.401-9.569v-18.247c0-.497-14.439-11.786-14.439-11.786-.884-.168-15.636 8.996-17.91 10.402v37.158l-9.49 2.444a1.458 1.458 0 0 0-1.035 1.777c.17.658.619 1.094 1.263 1.094.117 0 4.286-1.055 4.286-1.055v14.558h58.476v-25.417l3.31 1.373c1.873-1.611 1.687-2.45.94-2.732" transform="translate(-128.691 36.484)"/>
                <path fill="url(#j)" d="M401.864 197.217v-88.3c0-.954.067-2.524 1.012-2.524h22.627V88.17c0-.956.418-1.684 1.365-1.684h30.846c.947 0 1.381.728 1.381 1.684v12.002h22.609c.947 0 2.274.875 2.274 1.83v95.215h-82.114zm70.65-4.977a.975.975 0 0 0 .979-.977v-86.381a.975.975 0 0 0-.978-.977.975.975 0 0 0-.978.977v86.381c0 .543.438.977.978.977zm-4.976 0a.975.975 0 0 0 .978-.977v-86.381a.975.975 0 0 0-.978-.977.975.975 0 0 0-.978.977v86.381c0 .543.438.977.978.977zm-4.977 0a.975.975 0 0 0 .978-.977v-86.381a.975.975 0 0 0-.978-.977.975.975 0 0 0-.978.977v86.381c0 .543.438.977.978.977zm-4.976 0a.975.975 0 0 0 .978-.977v-86.381a.975.975 0 0 0-.978-.977.975.975 0 0 0-.978.977v86.381c0 .543.438.977.978.977zm-4.977 0a.975.975 0 0 0 .978-.977v-86.381a.975.975 0 0 0-.978-.977.975.975 0 0 0-.978.977v86.381c0 .543.438.977.978.977zm-4.977 0a.975.975 0 0 0 .979-.977v-86.381a.975.975 0 0 0-.979-.977.975.975 0 0 0-.978.977v86.381c0 .543.438.977.978.977zm-4.976 0a.975.975 0 0 0 .978-.977v-86.381a.975.975 0 0 0-.978-.977.975.975 0 0 0-.978.977v86.381c0 .543.438.977.978.977z" transform="translate(-128.691 36.484)"/>
                <path fill="#C3E6F5" d="M272.005 208.942l4.106-7.116h1.829l-5.935 10.284v-3.168zm-5.14-7.116h1.743v3.02l-1.742-3.02zm1.743 10.283l-5.934-10.283h1.828l4.106 7.116v3.167zm3.397-10.283h1.743l-1.743 3.02v-3.02zm13.61-5.183c0-2.77-2.273-5.026-5.13-5.17a4.004 4.004 0 0 0 1.02-2.661c0-2.279-1.93-4.126-4.31-4.126-.745 0-1.446.181-2.058.5-1.532-1.528-3.786-2.496-6.301-2.496-4.617 0-8.36 3.255-8.36 7.27 0 .518.064 1.023.183 1.511-.081-.003-.161-.012-.243-.012-2.992 0-5.417 2.32-5.417 5.184 0 2.827 2.368 5.122 5.308 5.178l8.301 14.385v17.55h3.397v-17.55l8.301-14.385c2.941-.056 5.308-2.35 5.308-5.178z"/>
                <path fill="url(#k)" d="M375.736 123.952h14.994c1.192 0 2.425.988 2.425 2.19v106.052h-38.57V126.143c0-1.203.425-2.191 1.617-2.191h14.558V108.57c0-1.203 1.295-2.177 2.488-2.177s2.488.974 2.488 2.177v15.382zm-16.174 9.19c0 .346.28.622.625.622h27.367a.622.622 0 1 0 0-1.244h-27.367a.626.626 0 0 0-.625.622zm0 7.465c0 .346.28.622.625.622h27.367a.622.622 0 1 0 0-1.244h-27.367a.626.626 0 0 0-.625.622zm0 2.489c0 .346.28.622.625.622h27.367a.622.622 0 1 0 0-1.244h-27.367a.626.626 0 0 0-.625.622zm0-7.471v2.5c0 .336.28.616.625.616h27.367a.623.623 0 0 0 .624-.616v-2.5a.623.623 0 0 0-.624-.616h-27.367a.623.623 0 0 0-.625.616z" transform="translate(-128.691 36.484)"/>
                <path fill="url(#l)" d="M503.263 102.038h207.775v77.138H503.263z" transform="matrix(0 -1 -1 0 619.066 784.241)"/>
                <path fill="url(#l)" d="M51.633 102.038h207.775v77.138H51.633z" transform="rotate(-90 109.416 223.195)"/>
                <path fill="url(#m)" d="M150.543 214.635h466.56v38.569h-466.56z" transform="translate(-128.691 36.484)"/>
                <path fill="url(#m)" d="M0 214.635h466.56v38.569H0z" transform="translate(-128.691 36.484)"/>
                <path fill="url(#n)" d="M240.227 83.692a31.842 31.842 0 0 0-24.76-11.756c-3.739 0-7.326.643-10.66 1.82-8.72-10.647-22.007-17.45-36.895-17.45-35.65 0-47.512 47.279-71.282 47.279h201.554c-19.41 0-30.087-21.1-50.882-21.1a21.3 21.3 0 0 0-7.075 1.207" transform="translate(-128.691 36.484)"/>
                <path fill="url(#n)" d="M561.635 28.107a31.842 31.842 0 0 0-24.76-11.755c-3.739 0-7.326.643-10.66 1.82C517.496 7.525 504.209.722 489.32.722c-35.65 0-47.512 47.279-71.282 47.279h201.554c-19.41 0-30.087-21.1-50.882-21.1a21.3 21.3 0 0 0-7.075 1.206" transform="matrix(-1 0 0 1 908.938 36.484)"/>
                <path fill="url(#n)" d="M614.28 110.989c-5.297-6.416-13.392-10.519-22.467-10.519a29.36 29.36 0 0 0-9.673 1.63c-7.913-9.527-19.97-15.614-33.48-15.614-32.348 0-43.113 42.302-64.682 42.302H666.87c-17.613 0-27.302-18.879-46.17-18.879-2.252 0-4.412.383-6.42 1.08" transform="matrix(-1 0 0 1 1022.157 36.484)"/>
                <g transform="translate(38.095 124.214)">
                    <rect width="44.95" height="105.063" x="148.561" y="27.57" fill="#9AD5EF" rx="3.11"/>
                    <rect width="44.95" height="105.063" x="60.159" y="27.57" fill="#9AD5EF" rx="2.488"/>
                    <rect width="62.93" height="126.672" x="95.37" fill="#9AD5EF" rx="2.488"/>
                    <path stroke="#E9F1F4" stroke-linecap="square" stroke-width="4.479" d="M105.484 98.364h42.762M140.272 101.683v23.292M112.9 101.683v23.292"/>
                    <path fill="#EBF3F5" d="M124.588 111.277h4.495v4.471h-4.495z" opacity=".9"/>
                    <path fill="#FFF" d="M108.855 13.412h13.485V30.83h-13.485zM131.33 13.412h13.485V30.83H131.33zM164.294 87.665h13.485v17.418h-13.485zM164.294 62.782h13.485V80.2h-13.485zM164.294 37.899h13.485v17.418h-13.485zM75.892 87.665h13.485v17.418H75.892zM75.892 62.782h13.485V80.2H75.892zM75.892 37.899h13.485v17.418H75.892zM108.855 40.237h13.485v17.418h-13.485zM131.33 40.237h13.485v17.418H131.33zM108.855 67.062h13.485V84.48h-13.485zM131.33 67.062h13.485V84.48H131.33z" opacity=".6"/>
                    <path fill="#7AA7BB" d="M69.878 60.973c7.56-.314 12.599 7.241 12.599 11.019 0 3.777-.315 5.981.315 7.555.63 1.574 3.464 6.296 4.094 11.333.63 5.037-.945 6.611-4.41 14.796 1.26 14.482-10.708 16.056-11.023 16.056h-2.52s-12.283-.63-11.338-16.056c-.945-1.259-4.725-9.13-4.095-14.796.63-5.666 4.41-10.388 4.41-11.962 0-1.575-.945-6.297.315-9.445 1.26-3.148 4.094-8.185 11.653-8.5z"/>
                    <path fill="#ECF4F6" d="M68.933 138.102h2.52l-.315-23.926 8.504-9.444-8.504 7.24-.63-26.758 3.465-5.982-3.465 4.408-.315-12.593-.63 26.444-8.819-7.87 8.82 9.13z"/>
                    <g transform="translate(129.324 114.463)">
                        <path fill="#7AA7BB" d="M44.79 9.953C43.12 9.471 41.472 1.348 37.325 0H22.71c-2.76 1.08-8.282 10.257-9.938 10.797-1.657.54-4.418.825-7.73 1.08C1.727 12.13 0 22.673 1.381 22.673c1.383 0 49.629 0 49.629-.278 0-.279-1.245-8.309-2.489-9.953-1.244-1.645-2.064-2.006-3.732-2.489z"/>
                        <ellipse cx="13.133" cy="23.587" fill="#5B98B3" rx="6.221" ry="6.065" transform="matrix(-1 0 0 1 26.266 0)"/>
                        <ellipse cx="40.781" cy="23.587" fill="#5B98B2" rx="6.221" ry="6.065" transform="matrix(-1 0 0 1 81.562 0)"/>
                        <ellipse cx="40.781" cy="23.587" fill="#EAF2F4" rx="2.765" ry="2.696" transform="matrix(-1 0 0 1 81.562 0)"/>
                        <ellipse cx="13.133" cy="23.587" fill="#ECF4F6" rx="2.765" ry="2.696" transform="matrix(-1 0 0 1 26.266 0)"/>
                        <path stroke="#7AA7BB" stroke-linecap="square" stroke-width="1.369" d="M14.918 31.674H1.658M27.363 31.674h-9.107M34.284 31.674h-2.212M49.5 31.674H36.209"/>
                        <path fill="#EAF2F4" d="M24.883 3.732c-1.244 0-6.22 6.221-4.976 6.221h17.418c1.244 0-1.244-6.22-2.489-6.22h-9.953z"/>
                        <path fill="#7AA7BB" d="M27.372 3.732h2.488v6.221h-2.488z"/>
                    </g>
                    <path fill="#5B98B2" d="M40.42 124.452l-.758.505-1.012-.757v1.767s-1.264 1.767-1.517 1.767c-.253 0-2.781 1.767-3.034 1.767-.253 0-4.552-.253-5.057-.253-.506 0-1.012.505-1.517.505-.506 0-2.782-1.262-2.782-1.767 0-.505.253-2.02 0-2.02s-.758 1.515-.758 2.02c0 .505 1.011 2.02 2.781 2.777-.506 1.01 0 2.524-.253 3.03-.253.504-1.77 1.766-2.023 2.271-.253.505 0 2.525 0 2.777 0 .252 1.77.252 2.023.252.253 0 .253-.504 0-.757-.253-.252-1.264-.252-1.264-.252s-.253-.758 0-1.01 2.781-1.767 2.781-1.767.506.757.506 1.01c0 .252 2.276 2.776 2.276 2.776h2.023s0-1.01-.506-1.01-1.012.253-1.264 0c-.253-.252-.759-.757-.759-1.009 0-.252.759-2.524.759-2.777 0-.252-.506-1.01-.253-1.01s4.298 1.01 4.551 1.01c.253 0 .506 2.525.506 2.777 0 .252 0 2.02.506 2.02h2.275s.253-1.01-.253-1.01c-.505 0-1.011.252-1.264 0-.253-.253 0-2.272 0-2.272s.759-.253 1.012 0c.252.252 1.77 2.272 1.77 2.272s0 1.01.252 1.01h2.023c.253 0 0-1.01-.253-1.01h-.758l-2.276-4.04s-.253-1.261-.253-1.514c0-.252.759-.757.759-1.01v-1.514s.253.252.506 0c.252-.253 0-.758 0-.758l.505-.757s.759.505 1.012.505.505-.252.505-.252.253.252.506 0c.253-.253 1.012-.758.253-1.263-.759-.505-1.77-1.767-2.023-1.767-.253 0-.253-1.262-.253-1.262z"/>
                    <path fill="#0A5C80" d="M18.6 122.937l20.986 4.292-.506.505-20.734-4.292z"/>
                    <path fill="#7AA7BB" d="M15.989 106.024c.253-.505 0-1.01-.253-1.262-.253-.253-1.011-.253-1.517-.253s-2.529.758-2.529 1.263c0 .505.253 3.029.759 3.029h.758c.253 0 0 1.262-.252 1.262h-.506c-.253 0-1.012.757-1.264 1.515-.253.757-.253 2.272-.253 2.777 0 .504-1.517 7.825-1.517 8.078 0 .252.505.252.758.252s1.264 5.806 1.264 6.059c0 .252-4.298 7.825-4.298 8.078 0 .252 0 .504-.253.757-.253.252-.506 1.01 0 1.01s3.54.757 3.793.757c.253 0-.253-1.01-.759-1.262-.505-.253-1.264-.758-1.264-.758l5.563-8.33s2.276 7.068 2.528 7.826c.253.757 0 1.767.253 1.767s4.552-.758 4.552-1.01c0-.253-1.012-.505-1.517-.505-.506 0-1.518-.252-1.518-.252s-1.264-7.574-1.77-8.583c-.252-.758-1.517-5.302-1.517-5.554 0-.252-.505-2.272-.505-2.524 0-.253.252-2.02.252-2.02s2.529 3.03 2.782 3.282c.253.252.253 1.262.506 1.514.252.253.505 0 .505.253 0 .252.253.505.506.505s.253 0 .253-.505c.253-.253.253-1.01 0-1.262-.253-.253-.759-1.01-.759-1.01l-.505-.505s-1.77-3.03-2.023-3.282c-.253-.252-1.265-2.02-1.265-2.02s0-3.028-.252-3.28c-.253-.253 0-1.768 0-2.02 0-.253.758 0 1.011-.253.253-.252.253-1.262.253-1.262s.253 0 .253-.252c0-.253-.253-.758-.253-.758s-.253-.757 0-1.262z"/>
                    <path stroke="#7AA7BB" stroke-linecap="square" stroke-width="1.369" d="M22.118 141.16H.968M29.583 141.264H26.82M50.112 141.264H33.039"/>
                </g>
            </g>
        </g>
        <g transform="translate(449.28 .4)">
            <mask id="q" fill="#fff">
                <use xlink:href="#o"/>
            </mask>
            <use fill="url(#p)" xlink:href="#o"/>
            <path fill="url(#n)" d="M2.024 64.591a31.842 31.842 0 0 0-24.76-11.755c-3.739 0-7.326.643-10.66 1.82-8.72-10.647-22.007-17.45-36.895-17.45-35.65 0-47.512 47.279-71.282 47.279H59.98c-19.41 0-30.088-21.1-50.882-21.1a21.3 21.3 0 0 0-7.075 1.206" mask="url(#q)" transform="matrix(-1 0 0 1 -81.593 0)"/>
            <path fill="url(#r)" d="M251.396 81.738a55.208 55.208 0 0 0-18.421 3.146c-15.068-18.4-38.03-30.154-63.756-30.154-61.602 0-82.101 81.697-123.176 81.697H394.33c-33.541 0-51.991-36.46-87.923-36.46-4.288 0-8.402.74-12.227 2.084-10.085-12.39-25.502-20.313-42.783-20.313z" mask="url(#q)" transform="matrix(-1 0 0 1 440.372 0)"/>
        </g>
        <g transform="translate(449.28 153.6)">
            <mask id="u" fill="#fff">
                <use xlink:href="#s"/>
            </mask>
            <use fill="url(#t)" xlink:href="#s"/>
            <g mask="url(#u)">
                <path fill="#E0EDF5" d="M28.38 81.72h40.848V14.553c0-.674-.66-1.291-1.132-1.291H56.85V4.795c0-.674-.216-1.188-.687-1.188H40.818c-.471 0-.68.514-.68 1.188V17.65H28.884c-.47 0-.504 1.108-.504 1.78v62.29z"/>
                <path fill="url(#j)" d="M43.662 78.233v-50.86c0-.55.039-1.455.584-1.455h13.032V15.422c0-.55.241-.97.787-.97h17.767c.545 0 .796.42.796.97v6.913H89.65c.546 0 1.31.504 1.31 1.054v54.844H43.662zm40.695-2.867a.573.573 0 0 0 .564-.571V25.056a.564.564 0 0 0-.564-.571.573.573 0 0 0-.563.571v49.739c0 .321.252.571.563.571zm-2.866 0a.573.573 0 0 0 .563-.571V25.056a.564.564 0 0 0-.563-.571.573.573 0 0 0-.564.571v49.739c0 .321.253.571.564.571zm-2.867 0a.573.573 0 0 0 .564-.571V25.056a.564.564 0 0 0-.564-.571.573.573 0 0 0-.563.571v49.739c0 .321.252.571.563.571zm-2.866 0a.573.573 0 0 0 .563-.571V25.056a.564.564 0 0 0-.563-.571.573.573 0 0 0-.564.571v49.739c0 .321.252.571.564.571zm-2.867 0a.573.573 0 0 0 .563-.571V25.056a.564.564 0 0 0-.563-.571.573.573 0 0 0-.563.571v49.739c0 .321.252.571.563.571zm-2.866 0a.573.573 0 0 0 .563-.571V25.056a.564.564 0 0 0-.563-.571.573.573 0 0 0-.564.571v49.739c0 .321.252.571.564.571zm-2.867 0a.573.573 0 0 0 .563-.571V25.056a.564.564 0 0 0-.563-.571.573.573 0 0 0-.563.571v49.739c0 .321.252.571.563.571z" transform="translate(-4.533 3.488)"/>
                <path fill="#C3E6F5" d="M38.457 67.46l2.365-4.1h1.053l-3.418 5.924v-1.825zm-2.96-4.1H36.5v1.74l-1.004-1.74zm1.003 5.924l-3.418-5.923h1.053l2.365 4.098v1.825zm1.957-5.923h1.003L38.457 65.1v-1.74zm7.838-2.986c0-1.595-1.308-2.895-2.954-2.977.366-.414.588-.95.588-1.534 0-1.312-1.112-2.376-2.483-2.376-.43 0-.833.105-1.185.288-.883-.88-2.181-1.438-3.63-1.438-2.66 0-4.815 1.875-4.815 4.188 0 .298.037.59.105.87-.047-.002-.093-.007-.14-.007-1.723 0-3.12 1.337-3.12 2.986 0 1.629 1.364 2.95 3.057 2.983l4.782 8.285v10.11h1.957v-10.11l4.781-8.285c1.694-.033 3.057-1.354 3.057-2.983z"/>
                <path fill="url(#k)" d="M12.534 15.885h8.636c.687 0 1.397.57 1.397 1.262v61.086H.35V17.147c0-.693.244-1.262.931-1.262h8.385v-8.86c0-.692.746-1.254 1.434-1.254.687 0 1.433.562 1.433 1.255v8.86zM3.218 21.18c0 .192.16.358.36.358H19.34a.36.36 0 0 0 .36-.358.363.363 0 0 0-.36-.358H3.577a.36.36 0 0 0-.36.358zm0 4.3c0 .192.16.358.36.358H19.34a.36.36 0 0 0 .36-.358.363.363 0 0 0-.36-.358H3.577a.36.36 0 0 0-.36.358zm0 1.433c0 .192.16.359.36.359H19.34a.36.36 0 0 0 .36-.359.363.363 0 0 0-.36-.358H3.577a.36.36 0 0 0-.36.358zm0-4.303v1.44c0 .186.16.355.36.355H19.34c.196 0 .36-.159.36-.355v-1.44a.364.364 0 0 0-.36-.355H3.577a.359.359 0 0 0-.36.355z" transform="translate(-4.533 3.488)"/>
            </g>
            <g mask="url(#u)" opacity=".6">
                <path fill="#C4E6F6" d="M106.039 59.915v1.565l-.895-1.565h.895zm-2.541 0l2.54 4.446v2.228l-3.814-6.674h1.274zm-2.92 0l5.46 9.556v12.345h2.367V69.47l5.461-9.556h1.193c4.754 0 7.234-5.942 2.496-8.779-.913-5.383-7.194-7.722-11.401-4.282-3.158-.38-5.355 1.343-6.053 3.546-3.27-.308-5.902 2.07-5.902 4.744 0 2.585 2.426 4.771 5.298 4.771h1.08zm11.642 0l-3.815 6.674v-2.228l2.541-4.446h1.274zm-2.92 0l-.895 1.565v-1.565h.894z"/>
                <path fill="#C3E6F5" d="M141.609 57.644c-3.254 3.126-10.51-.466-9.579-8.325a11.18 11.18 0 0 1 2.124-.524c-.633-1.824-.657-4.094.366-6.587 1.23-.082 2.347.03 3.344.284-.742-2.785.286-6.542 4.257-9.012 3.97 2.47 4.999 6.227 4.256 9.012a10.604 10.604 0 0 1 3.344-.284c1.023 2.493 1 4.763.367 6.587a11.18 11.18 0 0 1 2.124.524c.924 7.8-6.215 11.396-9.504 8.395l.521 16.463a.596.596 0 0 1-.598.616h-.947a.596.596 0 0 1-.599-.616l.524-16.533z"/>
                <path fill="url(#v)" d="M49.984 30.535l-17.146-6.459V11.76c0-.336-9.746-7.956-9.746-7.956-.597-.113-10.554 6.072-12.089 7.02v25.083l-6.407 1.65a.984.984 0 0 0-.697 1.199c.114.444.417.738.852.738.079 0 2.893-.712 2.893-.712v9.827h39.471V31.452l2.234.927c1.265-1.087 1.14-1.653.635-1.844" transform="matrix(-1 0 0 1 154.482 33.037)"/>
            </g>
        </g>
        <mask id="y" fill="#fff">
            <use xlink:href="#w"/>
        </mask>
        <use fill="url(#x)" xlink:href="#w"/>
        <path fill="#E3EFF6" d="M637.868 185.557v-4.162c0-.48-.518-.87-.995-.87-.478 0-.996.39-.996.87v4.162h-4.33c-.477 0-.646.396-.646.877l-.97 48.834h15.427l.97-48.834c0-.481-.493-.877-.97-.877h-7.49z" mask="url(#y)" transform="matrix(-1 0 0 1 1276.259 0)"/>
        <path fill="url(#j)" d="M624.368 198.938v33.942c0 .223.175.397.391.397.21 0 .391-.178.391-.397v-33.942h1.209v33.942c0 .223.175.397.39.397.21 0 .392-.178.392-.397v-33.942h1.208v33.942c0 .223.175.397.391.397.21 0 .392-.178.392-.397v-33.942h3.789c.378 0 .405.628.405 1.01v35.32H600.48v-38.086c0-.382.531-.732.91-.732h9.043v-4.801c0-.382.174-.674.553-.674h12.338c.379 0 .546.292.546.674v7.29h.498zm-1.6 34.339c.21 0 .392-.178.392-.397v-34.54a.391.391 0 0 0-.392-.397.398.398 0 0 0-.39.397v34.54c0 .223.174.397.39.397zm-1.99 0c.21 0 .391-.178.391-.397v-34.54a.391.391 0 0 0-.391-.397.398.398 0 0 0-.391.397v34.54c0 .223.175.397.39.397zm-1.99 0c.209 0 .39-.178.39-.397v-34.54a.391.391 0 0 0-.39-.397.398.398 0 0 0-.392.397v34.54c0 .223.175.397.391.397zm-1.992 0c.21 0 .392-.178.392-.397v-34.54a.391.391 0 0 0-.392-.397.398.398 0 0 0-.39.397v34.54c0 .223.174.397.39.397z" mask="url(#y)"/>
        <path fill="url(#k)" d="M647.075 191.97h5.997c.477 0 .97.396.97.877v42.42h-15.428v-42.42c0-.481.17-.876.647-.876h5.823v-6.153c0-.481.518-.87.995-.87.478 0 .996.389.996.87v6.153zm-6.47 3.677c0 .133.107.249.24.249h10.967c.126 0 .24-.112.24-.249a.247.247 0 0 0-.24-.249h-10.968a.248.248 0 0 0-.239.249zm0 2.986c0 .133.107.249.24.249h10.967c.126 0 .24-.112.24-.249a.247.247 0 0 0-.24-.249h-10.968a.248.248 0 0 0-.239.249zm0 .995c0 .134.107.25.24.25h10.967c.126 0 .24-.112.24-.25a.247.247 0 0 0-.24-.248h-10.968a.248.248 0 0 0-.239.248zm0-2.988v1c0 .13.107.247.24.247h10.967c.126 0 .24-.11.24-.247v-1a.247.247 0 0 0-.24-.246h-10.968c-.126 0-.239.11-.239.246z" mask="url(#y)" transform="matrix(-1 0 0 1 1292.656 0)"/>
    </g>
</svg>
