<?xml version="1.0" encoding="UTF-8" standalone="no"?>
<svg width="34px" height="35px" viewBox="0 0 34 35" version="1.1" xmlns="http://www.w3.org/2000/svg" xmlns:xlink="http://www.w3.org/1999/xlink">
    <!-- Generator: sketchtool 39.1 (31720) - http://www.bohemiancoding.com/sketch -->
    <title>99C40ACF-5FE5-4E70-A359-B79286E91930</title>
    <desc>Created with sketchtool.</desc>
    <defs>
        <polygon id="path-1" points="21.8389 0.277 0.656 0.277 0.656 9.0419 21.8389 9.0419 21.8389 0.277"></polygon>
        <polygon id="path-3" points="21.8389 0.277 0.656 0.277 0.656 9.0419 21.8389 9.0419 21.8389 0.277"></polygon>
    </defs>
    <g id="Responsive-web" stroke="none" stroke-width="1" fill="none" fill-rule="evenodd">
        <g id="hotel_details_Amenities_Icons" transform="translate(-55.000000, -104.000000)">
            <g id="Air-Conditioning" transform="translate(55.000000, 104.000000)">
                <path d="M34,17.4662 C34,26.8552 26.389,34.4662 17,34.4662 C7.611,34.4662 0,26.8552 0,17.4662 C0,8.0772 7.611,0.4662 17,0.4662 C26.389,0.4662 34,8.0772 34,17.4662" id="Fill-446" fill="#F0F0F0"></path>
                <g id="Group-454" transform="translate(6.000000, 9.973000)">
                    <g id="Group-450">
                        <mask id="mask-2" fill="white">
                            <use xlink:href="#path-1"></use>
                        </mask>
                        <g id="Clip-449"></g>
                        <path d="M21.1089,7.2119 C21.1089,7.8179 20.6169,8.3109 20.0119,8.3109 L2.4839,8.3109 C1.8789,8.3109 1.3859,7.8179 1.3859,7.2119 L1.3859,2.1069 C1.3859,1.4989 1.8789,1.0069 2.4839,1.0069 L20.0119,1.0069 C20.6169,1.0069 21.1089,1.4989 21.1089,2.1069 L21.1089,7.2119 Z M20.0119,0.2759 L2.4839,0.2759 C1.4759,0.2759 0.6549,1.0969 0.6549,2.1069 L0.6549,7.2119 C0.6549,8.2219 1.4759,9.0419 2.4839,9.0419 L20.0119,9.0419 C21.0199,9.0419 21.8389,8.2219 21.8389,7.2119 L21.8389,2.1069 C21.8389,1.0969 21.0199,0.2759 20.0119,0.2759 L20.0119,0.2759 Z" id="Fill-448" fill="#888888" mask="url(#mask-2)"></path>
                    </g>
                    <g id="Group-453">
                        <mask id="mask-4" fill="white">
                            <use xlink:href="#path-3"></use>
                        </mask>
                        <g id="Clip-452"></g>
                        <path d="M21.1089,7.2119 C21.1089,7.8179 20.6169,8.3109 20.0119,8.3109 L2.4839,8.3109 C1.8789,8.3109 1.3859,7.8179 1.3859,7.2119 L1.3859,2.1069 C1.3859,1.4989 1.8789,1.0069 2.4839,1.0069 L20.0119,1.0069 C20.6169,1.0069 21.1089,1.4989 21.1089,2.1069 L21.1089,7.2119 L21.1089,7.2119 Z M20.0119,0.2759 L2.4839,0.2759 C1.4759,0.2759 0.6549,1.0969 0.6549,2.1069 L0.6549,7.2119 C0.6549,8.2219 1.4759,9.0419 2.4839,9.0419 L20.0119,9.0419 C21.0199,9.0419 21.8389,8.2219 21.8389,7.2119 L21.8389,2.1069 C21.8389,1.0969 21.0199,0.2759 20.0119,0.2759 L20.0119,0.2759 Z" id="Stroke-451" stroke="#888888" stroke-width="0.2" mask="url(#mask-4)"></path>
                    </g>
                </g>
                <g id="Group-464" transform="translate(8.000000, 14.973000)">
                    <polygon id="Fill-455" fill="#888888" points="0.847 1.121 17.648 1.121 17.648 0.39 0.847 0.39"></polygon>
                    <polygon id="Stroke-457" stroke="#888888" stroke-width="0.2" points="0.847 1.121 17.648 1.121 17.648 0.39 0.847 0.39"></polygon>
                    <path d="M5.751,5.7393 C5.864,5.6123 5.792,5.4523 5.591,5.3813 C5.391,5.3093 5.137,5.3543 5.024,5.4823 C4.268,6.3353 4.268,7.3933 5.024,8.2463 C5.64,8.9403 5.64,9.8013 5.024,10.4963 C4.912,10.6233 4.983,10.7833 5.184,10.8543 C5.249,10.8773 5.318,10.8873 5.387,10.8873 C5.533,10.8873 5.674,10.8393 5.751,10.7543 C6.508,9.9003 6.508,8.8423 5.751,7.9893 C5.135,7.2953 5.135,6.4333 5.751,5.7393" id="Fill-458" fill="#888888"></path>
                    <path d="M5.751,5.7393 C5.864,5.6123 5.792,5.4523 5.591,5.3813 C5.391,5.3093 5.137,5.3543 5.024,5.4823 C4.268,6.3353 4.268,7.3933 5.024,8.2463 C5.64,8.9403 5.64,9.8013 5.024,10.4963 C4.912,10.6233 4.983,10.7833 5.184,10.8543 C5.249,10.8773 5.318,10.8873 5.387,10.8873 C5.533,10.8873 5.674,10.8393 5.751,10.7543 C6.508,9.9003 6.508,8.8423 5.751,7.9893 C5.135,7.2953 5.135,6.4333 5.751,5.7393 L5.751,5.7393 Z" id="Stroke-459" stroke="#888888" stroke-width="0.2"></path>
                    <path d="M9.5444,5.7393 C9.6564,5.6123 9.5854,5.4523 9.3844,5.3813 C9.1844,5.3093 8.9304,5.3543 8.8174,5.4823 C8.0604,6.3353 8.0604,7.3933 8.8174,8.2463 C9.4334,8.9403 9.4334,9.8013 8.8174,10.4963 C8.7054,10.6233 8.7764,10.7833 8.9774,10.8543 C9.0414,10.8773 9.1114,10.8873 9.1804,10.8873 C9.3264,10.8873 9.4674,10.8393 9.5444,10.7543 C10.3014,9.9003 10.3014,8.8423 9.5444,7.9893 C8.9284,7.2953 8.9284,6.4333 9.5444,5.7393" id="Fill-460" fill="#888888"></path>
                    <path d="M9.5444,5.7393 C9.6564,5.6123 9.5854,5.4523 9.3844,5.3813 C9.1844,5.3093 8.9304,5.3543 8.8174,5.4823 C8.0604,6.3353 8.0604,7.3933 8.8174,8.2463 C9.4334,8.9403 9.4334,9.8013 8.8174,10.4963 C8.7054,10.6233 8.7764,10.7833 8.9774,10.8543 C9.0414,10.8773 9.1114,10.8873 9.1804,10.8873 C9.3264,10.8873 9.4674,10.8393 9.5444,10.7543 C10.3014,9.9003 10.3014,8.8423 9.5444,7.9893 C8.9284,7.2953 8.9284,6.4333 9.5444,5.7393 L9.5444,5.7393 Z" id="Stroke-461" stroke="#888888" stroke-width="0.2"></path>
                    <path d="M13.3384,5.7393 C13.4504,5.6123 13.3794,5.4523 13.1784,5.3813 C12.9784,5.3093 12.7244,5.3543 12.6114,5.4823 C11.8544,6.3353 11.8544,7.3933 12.6114,8.2463 C13.2274,8.9403 13.2274,9.8013 12.6114,10.4963 C12.4984,10.6233 12.5704,10.7833 12.7704,10.8543 C12.8354,10.8773 12.9054,10.8873 12.9744,10.8873 C13.1194,10.8873 13.2614,10.8393 13.3384,10.7543 C14.0954,9.9003 14.0954,8.8423 13.3384,7.9893 C12.7214,7.2953 12.7214,6.4333 13.3384,5.7393" id="Fill-462" fill="#888888"></path>
                    <path d="M13.3384,5.7393 C13.4504,5.6123 13.3794,5.4523 13.1784,5.3813 C12.9784,5.3093 12.7244,5.3543 12.6114,5.4823 C11.8544,6.3353 11.8544,7.3933 12.6114,8.2463 C13.2274,8.9403 13.2274,9.8013 12.6114,10.4963 C12.4984,10.6233 12.5704,10.7833 12.7704,10.8543 C12.8354,10.8773 12.9054,10.8873 12.9744,10.8873 C13.1194,10.8873 13.2614,10.8393 13.3384,10.7543 C14.0954,9.9003 14.0954,8.8423 13.3384,7.9893 C12.7214,7.2953 12.7214,6.4333 13.3384,5.7393 L13.3384,5.7393 Z" id="Stroke-463" stroke="#888888" stroke-width="0.2"></path>
                </g>
            </g>
        </g>
    </g>
</svg>