<?xml version="1.0" encoding="UTF-8" standalone="no"?>
<svg width="34px" height="34px" viewBox="0 0 34 34" version="1.1" xmlns="http://www.w3.org/2000/svg" xmlns:xlink="http://www.w3.org/1999/xlink">
    <!-- Generator: sketchtool 39.1 (31720) - http://www.bohemiancoding.com/sketch -->
    <title>E0DBD854-E42C-4B54-BC5B-66104CD8E1DD</title>
    <desc>Created with sketchtool.</desc>
    <defs></defs>
    <g id="Responsive-web" stroke="none" stroke-width="1" fill="none" fill-rule="evenodd">
        <g id="hotel_details_Amenities_Icons" transform="translate(-55.000000, -155.000000)">
            <g id="Bathrobes" transform="translate(55.000000, 154.973000)">
                <path d="M34,17.0029 C34,26.3919 26.389,34.0029 17,34.0029 C7.611,34.0029 0,26.3919 0,17.0029 C0,7.6139 7.611,0.0029 17,0.0029 C26.389,0.0029 34,7.6139 34,17.0029" id="Fill-434" fill="#F0F0F0"></path>
                <path d="M19.5786,20.9814 C19.3186,21.4514 18.8276,21.9414 18.0496,21.7194 C18.1246,22.6044 17.7316,23.0194 17.2576,23.3554 L17.2576,25.7284 C19.0756,25.7524 20.4676,25.3504 21.9526,25.0434 C21.8056,23.7124 21.7506,22.2904 21.5826,20.9814 L19.5786,20.9814 Z M13.6186,20.9814 C13.5536,22.3764 13.3996,23.6814 13.3016,25.0434 C14.3236,25.2524 15.2776,25.5274 16.4136,25.6234 L16.4136,23.3024 C15.6356,23.0434 15.5566,22.0854 15.6226,20.9814 L13.6186,20.9814 Z M19.6316,20.1894 L21.5306,20.1894 L21.5306,19.3984 L19.6316,19.3984 L19.6316,20.1894 Z M13.6706,20.1894 L15.6226,20.1894 L15.6226,19.3984 L13.7236,19.3984 C13.6996,19.6564 13.7786,20.0164 13.6706,20.1894 L13.6706,20.1894 Z M18.7876,18.8184 C17.7926,17.9244 17.9746,20.3144 18.1546,20.9284 C18.1956,20.9404 18.2586,20.9294 18.2596,20.9814 C19.1976,21.0224 18.6336,19.5614 18.7876,18.8184 L18.7876,18.8184 Z M17.2046,20.9284 C17.2046,20.1434 17.2456,19.2944 17.1526,18.7654 C17.0766,18.7364 17.0236,18.6834 16.9946,18.6074 C16.7736,18.5804 16.6366,18.6364 16.5186,18.7124 C16.4266,19.2624 16.4666,20.0194 16.4666,20.7174 C16.4666,21.4104 16.3196,22.1764 16.6776,22.5634 C17.4436,22.6124 17.2046,21.5784 17.2046,20.9284 L17.2046,20.9284 Z M23.3246,12.6464 C23.1966,11.8694 23.1616,10.7914 22.8496,10.2734 C22.4376,9.5904 20.9326,9.5404 20.2116,9.2174 C19.4956,11.4564 18.7676,13.6694 18.0496,15.8644 C17.8196,16.5664 17.4096,17.2404 17.4696,17.9744 C17.8016,18.1374 18.1006,17.7864 18.5236,17.8164 C19.1056,17.8564 19.3006,18.2774 19.6316,18.6074 L21.4776,18.6074 C21.3826,17.6704 21.3726,16.7844 21.3196,15.6534 C21.2936,15.0924 20.8866,13.1244 21.5306,13.0684 C22.0596,13.0234 22.0306,13.8984 22.0576,14.4934 C22.1506,16.4834 22.2296,18.4234 22.3746,20.1894 L24.3266,20.1894 C24.1966,17.6874 23.7066,14.9794 23.3246,12.6464 L23.3246,12.6464 Z M16.5726,17.8164 C16.5916,17.0884 17.2156,16.5204 17.2046,15.8114 C17.1996,15.4084 16.8416,14.6714 16.6776,14.1754 C16.1286,12.5164 15.4786,10.7344 14.9896,9.2174 C14.9866,9.1854 14.9816,9.1554 14.9366,9.1654 C13.9196,9.7254 12.2506,9.3024 11.6666,10.2734 C11.3536,10.7914 11.3236,11.8454 11.1916,12.6464 C10.7956,15.0564 10.3066,17.7904 10.1896,20.1894 L12.8796,20.1894 C13.0166,18.4264 13.0786,16.4544 13.1956,14.5984 C13.2346,13.9894 13.1456,13.0464 13.6706,13.0684 C14.1136,13.0864 14.0576,13.8374 14.0396,14.2294 C13.9716,15.7914 13.8346,17.2094 13.7766,18.6074 L15.6756,18.6074 C15.8686,18.2374 16.1536,17.9604 16.5726,17.8164 L16.5726,17.8164 Z M15.7276,8.8484 C16.3286,10.7804 16.9606,12.6794 17.6266,14.5454 C18.2706,12.6584 18.9036,10.7584 19.5256,8.8484 C18.5546,8.1944 16.6986,8.1864 15.7276,8.8484 L15.7276,8.8484 Z M25.0126,20.8764 C24.3456,21.1064 23.2656,20.9214 22.4276,20.9814 C22.4856,22.5094 22.7386,24.1104 22.7436,25.5174 C22.1106,25.9014 21.2256,26.0384 20.3706,26.2044 C17.8126,26.6984 14.6776,26.4744 12.5626,25.5704 C12.4176,24.2384 12.7836,22.5274 12.8276,21.0334 C11.8556,20.8454 10.3896,21.1504 9.5036,20.8764 C9.2636,19.9984 9.4496,19.0094 9.5566,18.0804 C9.7716,16.2114 10.0866,14.5424 10.4006,12.6994 C10.5556,11.7884 10.5606,10.7494 10.8746,10.0614 C11.4996,8.6944 13.3566,8.9204 14.9366,8.3744 C15.6686,8.1204 16.3806,7.6064 17.2576,7.5304 C17.8056,7.4824 18.4626,7.5814 18.9456,7.7414 C19.3816,7.8854 19.7126,8.1824 20.1586,8.3744 C21.3836,8.8974 23.0306,8.8354 23.5876,9.9574 C23.9516,10.6864 23.9676,11.7154 24.1156,12.5934 C24.5586,15.2304 25.1916,18.0544 25.0126,20.8764 L25.0126,20.8764 Z" id="Fill-436" fill="#888888"></path>
            </g>
        </g>
    </g>
</svg>