<?xml version="1.0" encoding="UTF-8" standalone="no"?>
<svg width="34px" height="35px" viewBox="0 0 34 35" version="1.1" xmlns="http://www.w3.org/2000/svg" xmlns:xlink="http://www.w3.org/1999/xlink">
    <!-- Generator: sketchtool 39.1 (31720) - http://www.bohemiancoding.com/sketch -->
    <title>6F06747D-248F-4420-8FFF-4E585CE09B92</title>
    <desc>Created with sketchtool.</desc>
    <defs></defs>
    <g id="Responsive-web" stroke="none" stroke-width="1" fill="none" fill-rule="evenodd">
        <g id="hotel_details_Amenities_Icons" transform="translate(-55.000000, -1053.000000)">
            <g id="Bathtub-or-Shower-Copy" transform="translate(55.000000, 1052.000000)">
                <g id="Group-349" transform="translate(0.000000, 0.973000)" fill="#F0F0F0">
                    <path d="M34,17.1982 C34,26.5872 26.389,34.1982 17,34.1982 C7.611,34.1982 0,26.5872 0,17.1982 C0,7.8092 7.611,0.1982 17,0.1982 C26.389,0.1982 34,7.8092 34,17.1982" id="Fill-343"></path>
                </g>
                <g id="Group-7" transform="translate(8.000000, 10.000000)">
                    <path d="M16.480004,11.5115352 C16.2299017,12.7826516 15.1318589,13.6975835 13.8566046,13.6975835 L4.76331232,13.6975835 C3.53620603,13.6975835 2.46624959,12.8485865 2.16799923,11.6379671 L1.33744555,8.25965223 L17.3867921,6.90016941 L16.480004,11.5115352" id="Fill-54" stroke="#888888" stroke-width="1.2"></path>
                    <path d="M2.49144201,4.81450061 L0.612999734,4.97423984 C0.417732684,4.99055363 0.239183704,5.09387433 0.124832109,5.25565278 C0.0111492376,5.41743124 -0.0276366833,5.62271315 0.0198426337,5.81575971 L0.182342268,6.4771481 C0.262589001,6.80070501 0.560170635,7.01754252 0.886507349,6.98967313 L17.9389381,5.54522262 C18.2365197,5.52007219 18.4812723,5.29779675 18.5394511,5.00074975 L18.6745331,4.31421093 C18.7153252,4.10485057 18.6571463,3.88801306 18.5173833,3.72895357 C18.3776202,3.56921434 18.1729911,3.48560614 17.9630121,3.50395916 L2.49144201,4.81450061" id="Fill-55" stroke="#888888" stroke-width="1.2"></path>
                    <polyline id="Fill-56" stroke="#888888" stroke-width="1.2" points="5.34978219 15.7368078 4.01233664 15.7368078 4.01233664 14.3773249 6.01850497 14.3773249 5.34978219 15.7368078"></polyline>
                    <polyline id="Fill-57" stroke="#888888" stroke-width="1.2" points="13.3744555 15.7368078 14.711901 15.7368078 14.711901 14.3773249 12.7057327 14.3773249 13.3744555 15.7368078"></polyline>
                    <path d="M2.00616832,2.82172093 L2.00616832,4.63592468 L3.34361387,4.63592468 L3.34361387,2.82172093 C3.34361387,2.07400538 3.94613309,1.46223811 4.68105942,1.46223811 C5.41665447,1.46223811 6.01850497,2.07400538 6.01850497,2.82172093 L7.35595051,2.82172093 C7.35595051,1.32628983 6.15291824,0.102755283 4.68105942,0.102755283 C3.20986932,0.102755283 2.00616832,1.32628983 2.00616832,2.82172093 Z" id="Fill-58" fill="#888888"></path>
                </g>
            </g>
        </g>
    </g>
</svg>