<?xml version="1.0" encoding="UTF-8" standalone="no"?>
<svg width="34px" height="35px" viewBox="0 0 34 35" version="1.1" xmlns="http://www.w3.org/2000/svg" xmlns:xlink="http://www.w3.org/1999/xlink">
    <!-- Generator: sketchtool 39.1 (31720) - http://www.bohemiancoding.com/sketch -->
    <title>B4682A8F-0686-42B5-AECF-71F48A358941</title>
    <desc>Created with sketchtool.</desc>
    <defs></defs>
    <g id="Responsive-web" stroke="none" stroke-width="1" fill="none" fill-rule="evenodd">
        <g id="hotel_details_Amenities_Icons" transform="translate(-55.000000, -255.000000)">
            <g id="Blackout-Drapes/Curtains" transform="translate(55.000000, 254.973000)">
                <path d="M34,17.9004 C34,27.2894 26.389,34.9004 17,34.9004 C7.611,34.9004 0,27.2894 0,17.9004 C0,8.5114 7.611,0.9004 17,0.9004 C26.389,0.9004 34,8.5114 34,17.9004" id="Fill-393" fill="#F0F0F0"></path>
                <path d="M14.2852,14.1514 C14.3682,14.1514 14.4532,14.1214 14.5172,14.0584 L15.5012,13.1044 C15.6292,12.9804 15.6292,12.7784 15.5012,12.6544 C15.3732,12.5314 15.1662,12.5314 15.0382,12.6544 L14.0542,13.6084 C13.9252,13.7314 13.9252,13.9334 14.0542,14.0584 C14.1182,14.1214 14.2022,14.1514 14.2852,14.1514" id="Fill-395" fill="#888888"></path>
                <path d="M14.2852,14.1514 C14.3682,14.1514 14.4532,14.1214 14.5172,14.0584 L15.5012,13.1044 C15.6292,12.9804 15.6292,12.7784 15.5012,12.6544 C15.3732,12.5314 15.1662,12.5314 15.0382,12.6544 L14.0542,13.6084 C13.9252,13.7314 13.9252,13.9334 14.0542,14.0584 C14.1182,14.1214 14.2022,14.1514 14.2852,14.1514 L14.2852,14.1514 Z" id="Stroke-397" stroke="#888888" stroke-width="0.2"></path>
                <path d="M17.1479,13.123 L14.5229,15.667 C14.3939,15.79 14.3939,15.992 14.5229,16.116 C14.5859,16.179 14.6709,16.21 14.7539,16.21 C14.8369,16.21 14.9219,16.179 14.9859,16.116 L17.6099,13.573 C17.7389,13.449 17.7389,13.247 17.6099,13.123 C17.4819,13 17.2749,13 17.1479,13.123" id="Fill-399" fill="#888888"></path>
                <path d="M17.1479,13.123 L14.5229,15.667 C14.3939,15.79 14.3939,15.992 14.5229,16.116 C14.5859,16.179 14.6709,16.21 14.7539,16.21 C14.8369,16.21 14.9219,16.179 14.9859,16.116 L17.6099,13.573 C17.7389,13.449 17.7389,13.247 17.6099,13.123 C17.4819,13 17.2749,13 17.1479,13.123 L17.1479,13.123 Z" id="Stroke-401" stroke="#888888" stroke-width="0.2"></path>
                <path d="M24.8047,25.2725 C24.8047,25.6235 24.5117,25.9095 24.1497,25.9095 C23.7877,25.9095 23.4927,25.6235 23.4927,25.2725 L23.4927,10.3315 L24.8047,10.3315 L24.8047,25.2725 Z M12.9947,23.6825 L22.8377,23.6825 L22.8377,22.7295 L12.9947,22.7295 L12.9947,23.6825 Z M12.3387,25.4345 C12.3387,25.6975 12.1167,25.9095 11.8467,25.9095 C11.5747,25.9095 11.0367,25.6975 11.0367,25.4345 L11.0367,10.3315 L12.3387,10.3315 L12.3387,25.4345 Z M9.4247,25.9095 C9.1527,25.9095 8.9327,25.6975 8.9327,25.4345 L8.9327,10.3315 L10.3797,10.3315 L10.3797,25.4345 C10.3797,25.6975 9.6957,25.9095 9.4247,25.9095 L9.4247,25.9095 Z M12.9947,11.2855 L22.8377,11.2855 L22.8377,10.6485 L12.9947,10.6485 L12.9947,11.2855 Z M12.9947,22.0935 L22.8377,22.0935 L22.8377,11.9205 L12.9947,11.9205 L12.9947,22.0935 Z M25.1337,9.6955 L23.1647,9.6955 C22.9837,9.6955 22.8377,9.8375 22.8377,10.0135 L12.9947,10.0135 C12.9947,9.8375 12.8477,9.6955 12.3477,9.6955 L8.2867,9.6955 C8.4237,9.6955 8.2767,9.8375 8.2767,10.0135 L8.2767,25.4345 C8.2767,26.0455 8.7917,26.5435 9.4247,26.5435 C9.7467,26.5435 10.4997,26.4155 10.7087,26.2085 C10.9167,26.4155 11.5247,26.5435 11.8467,26.5435 C12.4797,26.5435 12.9947,26.0455 12.9947,25.4345 L12.9947,24.3195 L22.8377,24.3195 L22.8377,25.2725 C22.8377,25.9735 23.4257,26.5435 24.1497,26.5435 C24.8737,26.5435 25.4617,25.9735 25.4617,25.2725 L25.4617,10.0135 C25.4617,9.8375 25.3147,9.6955 25.1337,9.6955 L25.1337,9.6955 Z" id="Fill-403" fill="#888888"></path>
                <path d="M24.8047,25.2725 C24.8047,25.6235 24.5117,25.9095 24.1497,25.9095 C23.7877,25.9095 23.4927,25.6235 23.4927,25.2725 L23.4927,10.3315 L24.8047,10.3315 L24.8047,25.2725 L24.8047,25.2725 Z M12.9947,23.6825 L22.8377,23.6825 L22.8377,22.7295 L12.9947,22.7295 L12.9947,23.6825 Z M12.3387,25.4345 C12.3387,25.6975 12.1167,25.9095 11.8467,25.9095 C11.5747,25.9095 11.0367,25.6975 11.0367,25.4345 L11.0367,10.3315 L12.3387,10.3315 L12.3387,25.4345 L12.3387,25.4345 Z M9.4247,25.9095 C9.1527,25.9095 8.9327,25.6975 8.9327,25.4345 L8.9327,10.3315 L10.3797,10.3315 L10.3797,25.4345 C10.3797,25.6975 9.6957,25.9095 9.4247,25.9095 L9.4247,25.9095 Z M12.9947,11.2855 L22.8377,11.2855 L22.8377,10.6485 L12.9947,10.6485 L12.9947,11.2855 Z M12.9947,22.0935 L22.8377,22.0935 L22.8377,11.9205 L12.9947,11.9205 L12.9947,22.0935 Z M25.1337,9.6955 L23.1647,9.6955 C22.9837,9.6955 22.8377,9.8375 22.8377,10.0135 L12.9947,10.0135 C12.9947,9.8375 12.8477,9.6955 12.3477,9.6955 L8.2867,9.6955 C8.4237,9.6955 8.2767,9.8375 8.2767,10.0135 L8.2767,25.4345 C8.2767,26.0455 8.7917,26.5435 9.4247,26.5435 C9.7467,26.5435 10.4997,26.4155 10.7087,26.2085 C10.9167,26.4155 11.5247,26.5435 11.8467,26.5435 C12.4797,26.5435 12.9947,26.0455 12.9947,25.4345 L12.9947,24.3195 L22.8377,24.3195 L22.8377,25.2725 C22.8377,25.9735 23.4257,26.5435 24.1497,26.5435 C24.8737,26.5435 25.4617,25.9735 25.4617,25.2725 L25.4617,10.0135 C25.4617,9.8375 25.3147,9.6955 25.1337,9.6955 L25.1337,9.6955 Z" id="Stroke-405" stroke="#888888" stroke-width="0.2"></path>
            </g>
        </g>
    </g>
</svg>