<?xml version="1.0" encoding="UTF-8" standalone="no"?>
<svg width="34px" height="35px" viewBox="0 0 34 35" version="1.1" xmlns="http://www.w3.org/2000/svg" xmlns:xlink="http://www.w3.org/1999/xlink">
    <!-- Generator: sketchtool 39.1 (31720) - http://www.bohemiancoding.com/sketch -->
    <title>4F4B8985-180F-4325-92E5-032414233641</title>
    <desc>Created with sketchtool.</desc>
    <defs></defs>
    <g id="Responsive-web" stroke="none" stroke-width="1" fill="none" fill-rule="evenodd">
        <g id="hotel_details_Amenities_Icons" transform="translate(-55.000000, -306.000000)">
            <g id="Cable-TV-Service" transform="translate(55.000000, 305.973000)">
                <path d="M34,17.3506 C34,26.7396 26.389,34.3506 17,34.3506 C7.611,34.3506 0,26.7396 0,17.3506 C0,7.9616 7.611,0.3506 17,0.3506 C26.389,0.3506 34,7.9616 34,17.3506" id="Fill-408" fill="#F0F0F0"></path>
                <path d="M22.5308,16.1143 C22.2508,15.8383 21.7978,15.8383 21.5188,16.1143 C21.2388,16.3903 21.2388,16.8403 21.5188,17.1163 C21.7978,17.3933 22.2508,17.3933 22.5308,17.1163 C22.8098,16.8403 22.8098,16.3903 22.5308,16.1143 L22.5308,16.1143 Z" id="Stroke-410" stroke="#888888" stroke-width="1.14" stroke-linecap="round" stroke-linejoin="round"></path>
                <path d="M23.1528,14.3574 C23.7818,14.3574 24.3128,14.8274 24.3128,15.4484 L24.3128,23.3004 C24.3128,23.9234 23.7818,24.5314 23.1528,24.5314 L10.7318,24.5314 C10.1028,24.5314 9.5388,23.9234 9.5388,23.3004 L9.5388,15.4484 C9.5388,14.8274 10.1028,14.3574 10.7318,14.3574 L23.1528,14.3574 L23.1528,14.3574 Z" id="Stroke-412" stroke="#888888" stroke-width="1.14" stroke-linecap="round" stroke-linejoin="round"></path>
                <polyline id="Stroke-414" stroke="#888888" stroke-width="1.14" stroke-linecap="round" stroke-linejoin="round" points="14.3115 11.0176 16.8485 14.3576 19.3855 11.0176"></polyline>
                <path d="M20.4048,10.5088 C20.4048,10.8658 20.1218,11.1548 19.7718,11.1548 C19.4228,11.1548 19.1388,10.8658 19.1388,10.5088 C19.1388,10.1508 19.4228,9.8608 19.7718,9.8608 C20.1218,9.8608 20.4048,10.1508 20.4048,10.5088 L20.4048,10.5088 Z" id="Stroke-416" stroke="#888888" stroke-width="1.14" stroke-linecap="round" stroke-linejoin="round"></path>
                <path d="M14.5576,10.5088 C14.5576,10.8658 14.2746,11.1548 13.9246,11.1548 C13.5756,11.1548 13.2916,10.8658 13.2916,10.5088 C13.2916,10.1508 13.5756,9.8608 13.9246,9.8608 C14.2746,9.8608 14.5576,10.1508 14.5576,10.5088 L14.5576,10.5088 Z" id="Stroke-418" stroke="#888888" stroke-width="1.14" stroke-linecap="round" stroke-linejoin="round"></path>
                <path d="M19.2373,23.0283 L12.1153,23.0283 C11.5533,23.0283 11.0983,22.5733 11.0983,22.0113 L11.0983,16.9243 C11.0983,16.3623 11.5533,15.9063 12.1153,15.9063 L19.2373,15.9063 C19.7993,15.9063 20.2543,16.3623 20.2543,16.9243 L20.2543,22.0113 C20.2543,22.5733 19.7993,23.0283 19.2373,23.0283 L19.2373,23.0283 Z" id="Stroke-420" stroke="#888888" stroke-width="1.14" stroke-linecap="round" stroke-linejoin="round"></path>
            </g>
        </g>
    </g>
</svg>