<?xml version="1.0" encoding="UTF-8" standalone="no"?>
<svg width="35px" height="35px" viewBox="0 0 35 35" version="1.1" xmlns="http://www.w3.org/2000/svg" xmlns:xlink="http://www.w3.org/1999/xlink">
    <!-- Generator: sketchtool 39.1 (31720) - http://www.bohemiancoding.com/sketch -->
    <title>3B60503D-315C-4DA6-B3F0-EF5175F6612D</title>
    <desc>Created with sketchtool.</desc>
    <defs></defs>
    <g id="Responsive-web" stroke="none" stroke-width="1" fill="none" fill-rule="evenodd">
        <g id="hotel_details_Amenities_Icons" transform="translate(-55.000000, -356.000000)">
            <g id="Coffee/Tea-Maker" transform="translate(55.000000, 355.973000)">
                <path d="M34.4604,17.8018 C34.4604,27.1908 26.8494,34.8018 17.4604,34.8018 C8.0714,34.8018 0.4604,27.1908 0.4604,17.8018 C0.4604,8.4128 8.0714,0.8018 17.4604,0.8018 C26.8494,0.8018 34.4604,8.4128 34.4604,17.8018" id="Fill-423" fill="#F0F0F0"></path>
                <path d="M21.9209,13.2295 L21.9209,19.6555 C25.8599,19.1555 25.8079,13.7295 21.9209,13.2295 L21.9209,13.2295 Z" id="Stroke-425" stroke="#888888" stroke-width="1.14" stroke-linecap="round" stroke-linejoin="round"></path>
                <path d="M10.6626,10.7236 C10.6626,10.7236 12.8586,13.5906 12.8586,15.6806 L12.8586,22.9616 C12.8586,23.4406 13.2566,23.8736 13.7346,23.8736 L21.0616,23.8736 C21.5396,23.8736 21.9206,23.4406 21.9206,22.9616 L21.9206,10.7236 L10.6626,10.7236 L10.6626,10.7236 Z" id="Stroke-427" stroke="#888888" stroke-width="1.14" stroke-linecap="round" stroke-linejoin="round"></path>
                <path d="M13.8677,25.3545 L20.9107,25.3545" id="Stroke-429" stroke="#888888" stroke-width="1.14" stroke-linecap="round" stroke-linejoin="round"></path>
                <path d="M14.8662,12.9951 L14.8662,21.5691" id="Stroke-431" stroke="#888888" stroke-width="1.14" stroke-linecap="round" stroke-linejoin="round"></path>
            </g>
        </g>
    </g>
</svg>