<?xml version="1.0" encoding="UTF-8" standalone="no"?>
<svg width="34px" height="35px" viewBox="0 0 34 35" version="1.1" xmlns="http://www.w3.org/2000/svg" xmlns:xlink="http://www.w3.org/1999/xlink">
    <!-- Generator: sketchtool 39.1 (31720) - http://www.bohemiancoding.com/sketch -->
    <title>441CE884-70ED-423A-A57D-0DA4C2A600A4</title>
    <desc>Created with sketchtool.</desc>
    <defs></defs>
    <g id="Responsive-web" stroke="none" stroke-width="1" fill="none" fill-rule="evenodd">
        <g id="hotel_details_Amenities_Icons" transform="translate(-392.000000, -854.000000)">
            <g id="Daily-Housekeeping" transform="translate(392.000000, 854.000000)">
                <circle id="Oval-36" fill-opacity="0.12" fill="#888888" cx="17" cy="17.0589284" r="17"></circle>
                <g id="Page-1" transform="translate(8.000000, 9.058928)" stroke="#888888" stroke-width="1.2" stroke-linejoin="round">
                    <polygon id="Stroke-1" stroke-linecap="round" points="4.20652174 16.5952381 14.3804348 16.5952381 14.3804348 9.30952381 4.20652174 9.30952381"></polygon>
                    <path d="M3.42391304,5.66666667 L3.42391304,3.92457143 C3.42391304,1.8732381 4.90617391,0.404761905 6.88773913,0.404761905 L11.2836522,0.404761905 C13.2667826,0.404761905 15.1630435,1.8732381 15.1630435,3.92457143 L15.1630435,5.66666667" id="Stroke-3"></path>
                    <path d="M1.64050435,9.1798381 L1.64050435,15.8543619 C1.64050435,16.3700286 1.92302609,16.5950762 2.42154783,16.5950762 L3.98833043,16.5950762 L3.98833043,8.09507619" id="Stroke-4" stroke-linecap="round"></path>
                    <path d="M2.29664348,9.25811905 C1.24638261,9.25811905 0.390991304,8.45911905 0.390991304,7.3727381 C0.390991304,6.28797619 1.24951304,5.44688095 2.2989913,5.44688095 C3.35003478,5.44688095 4.2062087,6.36892857 4.2062087,7.45369048 L4.2062087,8.90435714" id="Stroke-5" stroke-linecap="round"></path>
                    <path d="M16.5100696,9.25811905 L16.5100696,15.854119 C16.5100696,16.3697857 16.2494609,16.5948333 15.7509391,16.5948333 L14.1622435,16.5948333 L14.1622435,8.09483333" id="Stroke-6" stroke-linecap="round"></path>
                    <path d="M15.9616957,9.25811905 C17.0119565,9.25811905 17.7045652,8.45911905 17.7045652,7.3727381 C17.7045652,6.28797619 17.0917826,5.44688095 16.043087,5.44688095 C14.9920435,5.44688095 14.3800435,6.36892857 14.3800435,7.45369048 L14.3800435,8.90435714" id="Stroke-7" stroke-linecap="round"></path>
                </g>
            </g>
        </g>
    </g>
</svg>