<?xml version="1.0" encoding="UTF-8" standalone="no"?>
<svg width="34px" height="35px" viewBox="0 0 34 35" version="1.1" xmlns="http://www.w3.org/2000/svg" xmlns:xlink="http://www.w3.org/1999/xlink">
    <!-- Generator: sketchtool 39.1 (31720) - http://www.bohemiancoding.com/sketch -->
    <title>D29F229D-A30F-470E-BA32-B6C81CC3C969</title>
    <desc>Created with sketchtool.</desc>
    <defs></defs>
    <g id="Responsive-web" stroke="none" stroke-width="1" fill="none" fill-rule="evenodd">
        <g id="hotel_details_Amenities_Icons" transform="translate(-55.000000, -407.000000)">
            <g id="Deep-Soaking-Bathtub" transform="translate(55.000000, 407.000000)">
                <path d="M34,17.225 C34,26.614 26.39,34.225 17,34.225 C7.61,34.225 0,26.614 0,17.225 C0,7.836 7.61,0.225 17,0.225 C26.39,0.225 34,7.836 34,17.225 L34,17.225 Z" id="Fill-1" fill="#F0F0F0"></path>
                <path d="M26.1611,19.4339 L26.1611,20.1859 C25.9541,22.9159 23.9291,25.2679 21.1991,25.2679 L13.8201,25.2679 C11.0911,25.2679 9.0651,22.9159 8.8301,20.1859 L8.8301,19.4339" id="Stroke-3" stroke="#888888" stroke-width="1.14" stroke-linecap="round" stroke-linejoin="round"></path>
                <path d="M12.9038,25.1839 L12.2728,26.5259" id="Stroke-5" stroke="#888888" stroke-width="1.14" stroke-linecap="round" stroke-linejoin="round"></path>
                <path d="M22.1582,25.1839 L22.7892,26.5259" id="Stroke-7" stroke="#888888" stroke-width="1.14" stroke-linecap="round" stroke-linejoin="round"></path>
                <path d="M23.6299,19.4339 L26.6369,19.4339" id="Stroke-9" stroke="#888888" stroke-width="1.14" stroke-linecap="round" stroke-linejoin="round"></path>
                <path d="M8.3022,19.4339 L20.3242,19.4339" id="Stroke-11" stroke="#888888" stroke-width="1.14" stroke-linecap="round" stroke-linejoin="round"></path>
                <polygon id="Stroke-13" stroke="#888888" stroke-width="1.14" stroke-linecap="round" stroke-linejoin="round" points="20.325 22.651 23.63 22.651 23.63 18.876 20.325 18.876"></polygon>
                <path d="M20.3247,21.3636 L23.6297,21.3636" id="Stroke-15" stroke="#888888" stroke-width="1.14" stroke-linecap="round" stroke-linejoin="round"></path>
                <path d="M11.8931,14.1312 C12.4591,14.1312 12.9181,13.6752 12.9181,13.1082 C12.9181,12.5412 12.4591,12.0842 11.8931,12.0842 C11.3301,12.0842 10.8721,12.5412 10.8721,13.1082 C10.8721,13.6752 11.3301,14.1312 11.8931,14.1312 L11.8931,14.1312 Z" id="Stroke-16" stroke="#888888" stroke-width="1.14" stroke-linecap="round" stroke-linejoin="round"></path>
                <path d="M16.2769,17.3236 C17.0689,17.3236 17.7089,16.6856 17.7089,15.8936 C17.7089,15.1016 17.0689,14.4666 16.2769,14.4666 C15.4899,14.4666 14.8509,15.1016 14.8509,15.8936 C14.8509,16.6856 15.4899,17.3236 16.2769,17.3236 L16.2769,17.3236 Z" id="Stroke-17" stroke="#888888" stroke-width="1.14" stroke-linecap="round" stroke-linejoin="round"></path>
                <path d="M14.313,9.9808 C14.802,9.9808 15.197,9.5848 15.197,9.0948 C15.197,8.6078 14.802,8.2098 14.313,8.2098 C13.823,8.2098 13.427,8.6078 13.427,9.0948 C13.427,9.5848 13.823,9.9808 14.313,9.9808 L14.313,9.9808 Z" id="Stroke-18" stroke="#888888" stroke-width="1.14" stroke-linecap="round" stroke-linejoin="round"></path>
            </g>
        </g>
    </g>
</svg>