<?xml version="1.0" encoding="UTF-8" standalone="no"?>
<svg width="34px" height="35px" viewBox="0 0 34 35" version="1.1" xmlns="http://www.w3.org/2000/svg" xmlns:xlink="http://www.w3.org/1999/xlink">
    <!-- Generator: sketchtool 39.1 (31720) - http://www.bohemiancoding.com/sketch -->
    <title>D96015F3-20FF-484B-8DF4-08AA0F8D935B</title>
    <desc>Created with sketchtool.</desc>
    <defs></defs>
    <g id="Responsive-web" stroke="none" stroke-width="1" fill="none" fill-rule="evenodd">
        <g id="hotel_details_Amenities_Icons" transform="translate(-55.000000, -457.000000)">
            <g id="Designer-Toiletries" transform="translate(55.000000, 456.973000)">
                <path d="M34,17.7021 C34,27.0911 26.39,34.7021 17,34.7021 C7.61,34.7021 0,27.0911 0,17.7021 C0,8.3131 7.61,0.7021 17,0.7021 C26.39,0.7021 34,8.3131 34,17.7021" id="Fill-219" fill="#F0F0F0"></path>
                <path d="M17.1494,25.1953 L10.1484,15.2203 L10.1484,20.8263 C10.1484,23.2403 12.3674,25.1953 15.1054,25.1953" id="Stroke-221" stroke="#888888" stroke-width="1.2"></path>
                <path d="M17.1494,25.1953 L24.2224,15.2203 L24.2224,20.8263 C24.2224,23.2403 22.0034,25.1953 19.2664,25.1953" id="Stroke-223" stroke="#888888" stroke-width="1.2"></path>
                <path d="M19.7939,12.5273 L17.1489,9.8823 L14.5049,12.5273 L12.2889,10.3123 C12.0149,10.9513 11.8609,11.6543 11.8609,12.3943 C11.8609,15.3163 14.2299,17.6833 17.1489,17.6833 C20.0699,17.6833 22.4379,15.3163 22.4379,12.3943 C22.4379,11.6543 22.2839,10.9513 22.0109,10.3123 L19.7939,12.5273 L19.7939,12.5273 Z" id="Stroke-225" stroke="#888888" stroke-width="1.2"></path>
                <path d="M17.2,18.527 L17.2,24.8071099" id="Line" stroke="#888888" stroke-width="1.2" stroke-linecap="square"></path>
            </g>
        </g>
    </g>
</svg>