<?xml version="1.0" encoding="UTF-8" standalone="no"?>
<svg width="34px" height="35px" viewBox="0 0 34 35" version="1.1" xmlns="http://www.w3.org/2000/svg" xmlns:xlink="http://www.w3.org/1999/xlink">
    <!-- Generator: sketchtool 39.1 (31720) - http://www.bohemiancoding.com/sketch -->
    <title>F94FB8F4-AC9C-49A7-A363-C67F9C92A29D</title>
    <desc>Created with sketchtool.</desc>
    <defs></defs>
    <g id="Responsive-web" stroke="none" stroke-width="1" fill="none" fill-rule="evenodd">
        <g id="hotel_details_Amenities_Icons" transform="translate(-55.000000, -508.000000)">
            <g id="Desk" transform="translate(55.000000, 507.973000)">
                <path d="M34,17.1533 C34,26.5423 26.39,34.1533 17,34.1533 C7.61,34.1533 0,26.5423 0,17.1533 C0,7.7643 7.61,0.1533 17,0.1533 C26.39,0.1533 34,7.7643 34,17.1533" id="Fill-228" fill="#F0F0F0"></path>
                <path d="M12.604,25.793 L16.356,25.793" id="Stroke-230" stroke="#888888" stroke-width="1.2" stroke-linecap="round" stroke-linejoin="round"></path>
                <polyline id="Stroke-232" stroke="#888888" stroke-width="1.2" stroke-linecap="round" stroke-linejoin="round" points="14.271 25.4404 11.644 17.9374 17.624 12.6144"></polyline>
                <path d="M20.6001,10.8662 L18.7271,8.9932 L16.6051,11.1142 L18.4771,12.9902 C18.2081,13.9952 18.4561,15.1112 19.2461,15.9022 L23.5131,11.6372 C22.7231,10.8452 21.6071,10.5962 20.6001,10.8662 L20.6001,10.8662 Z" id="Stroke-234" stroke="#888888" stroke-width="1.2" stroke-linecap="round" stroke-linejoin="round"></path>
            </g>
        </g>
    </g>
</svg>