<?xml version="1.0" encoding="UTF-8" standalone="no"?>
<svg width="34px" height="35px" viewBox="0 0 34 35" version="1.1" xmlns="http://www.w3.org/2000/svg" xmlns:xlink="http://www.w3.org/1999/xlink">
    <!-- Generator: sketchtool 39.1 (31720) - http://www.bohemiancoding.com/sketch -->
    <title>A9A6B280-AEB8-4219-9982-1535B5BE6293</title>
    <desc>Created with sketchtool.</desc>
    <defs></defs>
    <g id="Responsive-web" stroke="none" stroke-width="1" fill="none" fill-rule="evenodd">
        <g id="hotel_details_Amenities_Icons" transform="translate(-392.000000, -954.000000)">
            <g id="Facilities-for-Disabled-Guests-" transform="translate(392.000000, 954.000000)">
                <circle id="Oval-36" fill-opacity="0.12" fill="#888888" cx="17" cy="17.0589284" r="17"></circle>
                <g id="Page-1" transform="translate(8.000000, 8.058928)">
                    <g id="Group-3" transform="translate(0.000000, 6.461766)">
                        <polygon id="Clip-2" points="12.5583387 12.2168343 0 12.2168343 0 0.0141001216 12.5583387 0.0141001216 12.5583387 12.2168343"></polygon>
                        <path d="M12.3348964,6.96150928 C12.1795463,6.92504673 12.0222921,7.02102719 11.9848045,7.17774725 C11.3633102,9.80117145 9.05106807,11.6333207 6.36151573,11.6333207 C3.17451202,11.6333207 0.581472187,9.03097836 0.581472187,5.83261114 C0.581472187,3.58559074 1.89515959,1.52006864 3.92800868,0.57041339 C4.07368262,0.502594297 4.13673413,0.329083925 4.06887573,0.182889142 C4.00126704,0.0370076103 3.82893667,-0.0268018549 3.6827321,0.0415497666 C1.44543383,1.08643367 -6.24272298e-06,3.35967328 -6.24272298e-06,5.83261114 C-6.24272298e-06,9.35297025 2.85366728,12.2168468 6.36151573,12.2168468 C9.32137797,12.2168468 11.8664113,10.2003487 12.550364,7.3128529 C12.5875706,7.15613285 12.4910269,6.99881761 12.3348964,6.96150928" id="Fill-1" stroke="#888888" stroke-width="0.57" fill="#888888"></path>
                    </g>
                    <g id="Group-6" transform="translate(2.247380, 0.008771)">
                        <polygon id="Clip-5" points="15.2420451 15.4355723 15.2420451 0.0225541556 0.0279174571 0.0225541556 0.0279174571 15.4355723 15.2420451 15.4355723"></polygon>
                        <path d="M0.609427101,2.06440379 C0.609427101,1.26028549 1.26160437,0.606089679 2.06307636,0.606089679 C2.86457956,0.606089679 3.51675682,1.26028549 3.51675682,2.06440379 C3.51675682,2.86877269 2.86457956,3.52325043 2.06307636,3.52325043 C1.26160437,3.52325043 0.609427101,2.86877269 0.609427101,2.06440379 M14.951334,14.8519835 L12.8764401,14.8519835 L11.3946674,10.9577893 C11.351499,10.8446739 11.2435935,10.7699946 11.1229529,10.7699946 L5.60753838,10.7699946 L4.06002979,7.22341628 L7.29628858,7.22341628 C7.45697627,7.22341628 7.58701219,7.09291543 7.58701219,6.93165322 C7.58701219,6.770391 7.45697627,6.63989015 7.29628858,6.63989015 L3.80748043,6.63989015 C3.80679373,6.63989015 3.80620067,6.64026606 3.8055764,6.64026606 L2.66072344,4.01659126 C3.49206685,3.75969316 4.09820404,2.98179407 4.09820404,2.06440379 C4.09820404,0.938638173 3.18514338,0.0225322279 2.06307636,0.0225322279 C0.941040544,0.0225322279 0.0279174571,0.938638173 0.0279174571,2.06440379 C0.0279174571,3.19045133 0.941040544,4.10680788 2.06307636,4.10680788 C2.06379427,4.10680788 2.06451218,4.1067139 2.06523009,4.1067139 L5.15128898,11.178914 C5.19754755,11.2849185 5.30205074,11.3535834 5.41760354,11.3535834 L10.9228112,11.3535834 L12.4045839,15.2477463 C12.4477211,15.360893 12.5556266,15.4355723 12.6762984,15.4355723 L14.951334,15.4355723 C15.1120217,15.4355723 15.2420576,15.3050714 15.2420576,15.1437466 C15.2420576,14.9824844 15.1120217,14.8519835 14.951334,14.8519835" id="Fill-4" stroke="#888888" stroke-width="0.57" fill="#888888"></path>
                    </g>
                </g>
            </g>
        </g>
    </g>
</svg>