<?xml version="1.0" encoding="UTF-8" standalone="no"?>
<svg width="34px" height="35px" viewBox="0 0 34 35" version="1.1" xmlns="http://www.w3.org/2000/svg" xmlns:xlink="http://www.w3.org/1999/xlink">
    <!-- Generator: sketchtool 39.1 (31720) - http://www.bohemiancoding.com/sketch -->
    <title>8837BF55-0C20-4CB5-B3D0-D62E23721B64</title>
    <desc>Created with sketchtool.</desc>
    <defs></defs>
    <g id="Responsive-web" stroke="none" stroke-width="1" fill="none" fill-rule="evenodd">
        <g id="hotel_details_Amenities_Icons" transform="translate(-56.000000, -854.000000)">
            <g id="Family-Rooms" transform="translate(56.000000, 854.000000)">
                <circle id="Oval-36" fill-opacity="0.12" fill="#888888" cx="17" cy="17.0589284" r="17"></circle>
                <g id="Page-1" transform="translate(8.000000, 9.058928)" stroke="#888888" stroke-width="1.2" stroke-linecap="round" stroke-linejoin="round">
                    <path d="M4.41071429,16 L1.01785714,16 L1.01785714,11.4782609 L0.339285714,10.7826087 L0.339285714,6.23930435 C0.339285714,5.48313043 0.749142857,4.86956522 1.48539286,4.86956522 L3.56385714,4.86956522 C4.30214286,4.86956522 5.08928571,5.48313043 5.08928571,6.23930435 L5.08928571,10.7826087 L4.41071429,11.4782609 L4.41071429,16 L4.41071429,16 Z" id="Stroke-1"></path>
                    <path d="M4.22118929,2.08695652 C4.22118929,3.04765217 3.46186786,3.82608696 2.52476071,3.82608696 C1.58765357,3.82608696 0.828332143,3.04765217 0.828332143,2.08695652 C0.828332143,1.12626087 1.58765357,0.347826087 2.52476071,0.347826087 C3.46186786,0.347826087 4.22118929,1.12626087 4.22118929,2.08695652 L4.22118929,2.08695652 Z" id="Stroke-3"></path>
                    <path d="M9.83928571,16 L7.80357143,16 L7.80357143,12.912 L7.125,12.4361739 L7.125,9.33286957 C7.125,8.81669565 7.3435,8.34782609 7.84835714,8.34782609 L9.26792857,8.34782609 C9.77142857,8.34782609 10.5178571,8.81669565 10.5178571,9.33286957 L10.5178571,12.4361739 L9.83928571,12.912 L9.83928571,16 L9.83928571,16 Z" id="Stroke-5"></path>
                    <path d="M9.71605714,5.8016 C9.71605714,6.4576 9.19762857,6.98907826 8.55773571,6.98907826 C7.91784286,6.98907826 7.39941429,6.4576 7.39941429,5.8016 C7.39941429,5.1456 7.91784286,4.61412174 8.55773571,4.61412174 C9.19762857,4.61412174 9.71605714,5.1456 9.71605714,5.8016 L9.71605714,5.8016 Z" id="Stroke-7"></path>
                    <path d="M13.9107143,13.2173913 L13.9107143,16 L17.3035714,16 L17.3035714,13.2173913 L18.4713929,13.2173913 L17.9821429,9.39130435 L17.9821429,6.23930435 C17.9821429,5.48243478 17.195,4.86956522 16.4567143,4.86956522 L14.37825,4.86956522 C13.6406429,4.86956522 13.2321429,5.48243478 13.2321429,6.23930435 L13.2321429,9.39130435 L12.3323571,13.2173913 L13.9107143,13.2173913 L13.9107143,13.2173913 Z" id="Stroke-9"></path>
                    <path d="M17.1140464,2.08695652 C17.1140464,3.04765217 16.354725,3.82608696 15.4176179,3.82608696 C14.4805107,3.82608696 13.7211893,3.04765217 13.7211893,2.08695652 C13.7211893,1.12626087 14.4805107,0.347826087 15.4176179,0.347826087 C16.354725,0.347826087 17.1140464,1.12626087 17.1140464,2.08695652 L17.1140464,2.08695652 Z" id="Stroke-11"></path>
                </g>
            </g>
        </g>
    </g>
</svg>