<?xml version="1.0" encoding="UTF-8" standalone="no"?>
<svg width="35px" height="35px" viewBox="0 0 35 35" version="1.1" xmlns="http://www.w3.org/2000/svg" xmlns:xlink="http://www.w3.org/1999/xlink">
    <!-- Generator: sketchtool 39.1 (31720) - http://www.bohemiancoding.com/sketch -->
    <title>431699CE-8820-4E65-8B6E-EE9102BD32CE</title>
    <desc>Created with sketchtool.</desc>
    <defs></defs>
    <g id="Responsive-web" stroke="none" stroke-width="1" fill="none" fill-rule="evenodd">
        <g id="hotel_details_Amenities_Icons" transform="translate(-390.000000, -552.000000)">
            <g id="Free-Weekday-Newspaper" transform="translate(390.000000, 551.973000)">
                <path d="M17.3447,34.2939 C7.9547,34.2939 0.3447,26.6829 0.3447,17.2939 C0.3447,7.9049 7.9547,0.2939 17.3447,0.2939 C26.7347,0.2939 34.3447,7.9049 34.3447,17.2939 C34.3447,26.6829 26.7347,34.2939 17.3447,34.2939 Z" id="Fill-191" fill="#F0F0F0"></path>
                <path d="M24.3525,25.7002 L24.3525,9.5332 C24.3525,9.1482 24.1045,8.8882 23.7015,8.8882 L11.1085,8.8882 C10.7065,8.8882 10.3595,9.1482 10.3595,9.5332 L10.3595,25.1442 C10.3595,25.5292 10.7065,25.7992 11.1085,25.7992 L24.3525,25.7992" id="Stroke-193" stroke="#888888" stroke-linecap="round" stroke-linejoin="round"></path>
                <path d="M22,12 L18,12" id="Stroke-197" stroke="#888888" stroke-width="1.2" stroke-linecap="round" stroke-linejoin="round"></path>
                <path d="M22,14 L18,14" id="Stroke-198" stroke="#888888" stroke-width="1.2" stroke-linecap="round" stroke-linejoin="round"></path>
                <path d="M22,16 L18,16" id="Stroke-199" stroke="#888888" stroke-width="1.2" stroke-linecap="round" stroke-linejoin="round"></path>
                <path d="M22,18 L13,18" id="Stroke-200" stroke="#888888" stroke-width="1.2" stroke-linecap="round" stroke-linejoin="round"></path>
                <path d="M22,20 L13,20" id="Stroke-201" stroke="#888888" stroke-width="1.2" stroke-linecap="round" stroke-linejoin="round"></path>
                <polygon id="Stroke-202" stroke="#888888" stroke-width="1.2" stroke-linecap="round" stroke-linejoin="round" points="13 16 16 16 16 12 13 12"></polygon>
            </g>
        </g>
    </g>
</svg>