<?xml version="1.0" encoding="UTF-8" standalone="no"?>
<svg width="34px" height="35px" viewBox="0 0 34 35" version="1.1" xmlns="http://www.w3.org/2000/svg" xmlns:xlink="http://www.w3.org/1999/xlink">
    <!-- Generator: sketchtool 39.1 (31720) - http://www.bohemiancoding.com/sketch -->
    <title>F6F2B260-55E5-41AD-95BB-EA31D960F7B3</title>
    <desc>Created with sketchtool.</desc>
    <defs></defs>
    <g id="Responsive-web" stroke="none" stroke-width="1" fill="none" fill-rule="evenodd">
        <g id="hotel_details_Amenities_Icons" transform="translate(-391.000000, -451.000000)">
            <g id="Free-Cribs/Infant-Beds" transform="translate(390.000000, 450.973000)">
                <path d="M17.9941,34.4404 C8.6041,34.4404 0.9941,26.8294 0.9941,17.4404 C0.9941,8.0514 8.6041,0.4404 17.9941,0.4404 C27.3851,0.4404 34.9951,8.0514 34.9951,17.4404 C34.9951,26.8294 27.3851,34.4404 17.9941,34.4404 Z" id="Fill-166" fill="#F0F0F0"></path>
                <path d="M10.5513,10.8926 C10.8283,10.8926 11.0563,11.1216 11.0563,11.3986 C11.0563,11.6756 10.8283,11.9026 10.5513,11.9026 C10.2723,11.9026 10.0463,11.6756 10.0463,11.3986 C10.0463,11.1216 10.2723,10.8926 10.5513,10.8926 L10.5513,10.8926 Z M10.9903,21.2946 L13.7393,21.2946 L13.7393,14.5446 L10.9903,14.5446 L10.9903,21.2946 Z M14.6193,21.2946 L17.5543,21.2946 L17.5543,14.5446 L14.6193,14.5446 L14.6193,21.2946 Z M18.4353,21.2946 L21.3693,21.2946 L21.3693,14.5446 L18.4353,14.5446 L18.4353,21.2946 Z M22.2493,21.2946 L24.9983,21.2946 L24.9983,14.5446 L22.2493,14.5446 L22.2493,21.2946 Z M10.9913,23.1976 L24.9983,23.1976 L24.9983,22.1746 L10.9913,22.1746 L10.9913,23.1976 Z M24.9333,11.3986 C24.9333,11.1216 25.1603,10.8926 25.4373,10.8926 C25.7173,10.8926 25.9423,11.1216 25.9423,11.3986 C25.9423,11.6756 25.7173,11.9026 25.4373,11.9026 C25.1603,11.9026 24.9333,11.6756 24.9333,11.3986 L24.9333,11.3986 Z M10.1123,12.7036 L10.1123,24.8946 C10.1123,25.1366 10.3083,25.3336 10.5513,25.3336 C10.7933,25.3336 10.9903,25.1366 10.9903,24.8946 L10.9903,24.0766 L24.9983,24.0766 L24.9983,24.8946 C24.9983,25.1366 25.1953,25.3336 25.4373,25.3336 C25.6803,25.3336 25.8783,25.1366 25.8783,24.8946 L25.8783,12.7036 C26.4253,12.5176 26.8213,12.0056 26.8213,11.3986 C26.8213,10.6346 26.2023,10.0136 25.4373,10.0136 C24.6753,10.0136 24.0543,10.6346 24.0543,11.3986 C24.0543,12.0056 24.4513,12.5176 24.9983,12.7036 L24.9983,13.6636 L10.9903,13.6636 L10.9903,12.7036 C11.5373,12.5176 11.9353,12.0056 11.9353,11.3986 C11.9353,10.6346 11.3143,10.0136 10.5513,10.0136 C9.7883,10.0136 9.1673,10.6346 9.1673,11.3986 C9.1673,12.0056 9.5653,12.5176 10.1123,12.7036 L10.1123,12.7036 Z" id="Fill-168" fill="#888888"></path>
                <path d="M10.5513,10.8926 C10.8283,10.8926 11.0563,11.1216 11.0563,11.3986 C11.0563,11.6756 10.8283,11.9026 10.5513,11.9026 C10.2723,11.9026 10.0463,11.6756 10.0463,11.3986 C10.0463,11.1216 10.2723,10.8926 10.5513,10.8926 L10.5513,10.8926 Z M10.9903,21.2946 L13.7393,21.2946 L13.7393,14.5446 L10.9903,14.5446 L10.9903,21.2946 Z M14.6193,21.2946 L17.5543,21.2946 L17.5543,14.5446 L14.6193,14.5446 L14.6193,21.2946 Z M18.4353,21.2946 L21.3693,21.2946 L21.3693,14.5446 L18.4353,14.5446 L18.4353,21.2946 Z M22.2493,21.2946 L24.9983,21.2946 L24.9983,14.5446 L22.2493,14.5446 L22.2493,21.2946 Z M10.9913,23.1976 L24.9983,23.1976 L24.9983,22.1746 L10.9913,22.1746 L10.9913,23.1976 Z M10.1123,12.7036 L10.1123,24.8946 C10.1123,25.1366 10.3083,25.3336 10.5513,25.3336 C10.7933,25.3336 10.9903,25.1366 10.9903,24.8946 L10.9903,24.0766 L24.9983,24.0766 L24.9983,24.8946 C24.9983,25.1366 25.1953,25.3336 25.4373,25.3336 C25.6803,25.3336 25.8783,25.1366 25.8783,24.8946 L25.8783,12.7036 C26.4253,12.5176 26.8213,12.0056 26.8213,11.3986 C26.8213,10.6346 26.2023,10.0136 25.4373,10.0136 C24.6753,10.0136 24.0543,10.6346 24.0543,11.3986 C24.0543,12.0056 24.4513,12.5176 24.9983,12.7036 L24.9983,13.6636 L10.9903,13.6636 L10.9903,12.7036 C11.5373,12.5176 11.9353,12.0056 11.9353,11.3986 C11.9353,10.6346 11.3143,10.0136 10.5513,10.0136 C9.7883,10.0136 9.1673,10.6346 9.1673,11.3986 C9.1673,12.0056 9.5653,12.5176 10.1123,12.7036 L10.1123,12.7036 Z" id="Stroke-170" stroke="#888888" stroke-width="0.2"></path>
            </g>
        </g>
    </g>
</svg>