<?xml version="1.0" encoding="UTF-8" standalone="no"?>
<svg width="35px" height="35px" viewBox="0 0 35 35" version="1.1" xmlns="http://www.w3.org/2000/svg" xmlns:xlink="http://www.w3.org/1999/xlink">
    <!-- Generator: sketchtool 39.1 (31720) - http://www.bohemiancoding.com/sketch -->
    <title>D18A8730-C593-4F71-90D4-BCFBB0F0AA8B</title>
    <desc>Created with sketchtool.</desc>
    <defs></defs>
    <g id="Responsive-web" stroke="none" stroke-width="1" fill="none" fill-rule="evenodd">
        <g id="hotel_details_Amenities_Icons" transform="translate(-390.000000, -602.000000)">
            <g id="Free-Wired-High-Speed-Internet" transform="translate(390.000000, 601.973000)">
                <path d="M34.3447,17.7197 C34.3447,27.1087 26.7347,34.7197 17.3447,34.7197 C7.9547,34.7197 0.3447,27.1087 0.3447,17.7197 C0.3447,8.3307 7.9547,0.7197 17.3447,0.7197 C26.7347,0.7197 34.3447,8.3307 34.3447,17.7197" id="Fill-204" fill="#F0F0F0"></path>
                <path d="M24.3262,22.459 C24.3262,22.812 24.0402,23.098 23.6862,23.098 C23.3332,23.098 23.0472,22.812 23.0472,22.459 C23.0472,22.105 23.3332,21.819 23.6862,21.819 C24.0402,21.819 24.3262,22.105 24.3262,22.459 L24.3262,22.459 Z" id="Stroke-206" stroke="#888888" stroke-width="1.14" stroke-linecap="round" stroke-linejoin="round"></path>
                <path d="M15.8799,16.7256 C17.6769,15.1156 17.6739,12.4116 15.8799,10.8036" id="Stroke-208" stroke="#888888" stroke-width="1.14" stroke-linecap="round" stroke-linejoin="round"></path>
                <path d="M17.6152,18.1602 C20.2392,15.7592 20.2412,11.7722 17.6152,9.3692" id="Stroke-210" stroke="#888888" stroke-width="1.14" stroke-linecap="round" stroke-linejoin="round"></path>
                <path d="M14.1138,12.2393 C15.0808,13.0503 15.0808,14.4803 14.1138,15.2903" id="Stroke-212" stroke="#888888" stroke-width="1.14" stroke-linecap="round" stroke-linejoin="round"></path>
                <path d="M26.4619,24.001 C26.4619,24.683 25.9099,25.234 25.2299,25.234 L9.8059,25.234 C9.1249,25.234 8.5729,24.683 8.5729,24.001 L8.5729,20.916 C8.5729,20.235 9.1249,19.683 9.8059,19.683 L25.2299,19.683 C25.9099,19.683 26.4619,20.235 26.4619,20.916 L26.4619,24.001 L26.4619,24.001 Z" id="Stroke-214" stroke="#888888" stroke-width="1.14" stroke-linecap="round" stroke-linejoin="round"></path>
                <path d="M11.6567,13.8223 L11.6567,19.6823" id="Stroke-216" stroke="#888888" stroke-width="1.14" stroke-linecap="round" stroke-linejoin="round"></path>
            </g>
        </g>
    </g>
</svg>