<?xml version="1.0" encoding="UTF-8" standalone="no"?>
<svg width="35px" height="35px" viewBox="0 0 35 35" version="1.1" xmlns="http://www.w3.org/2000/svg" xmlns:xlink="http://www.w3.org/1999/xlink">
    <!-- Generator: sketchtool 39.1 (31720) - http://www.bohemiancoding.com/sketch -->
    <title>96BE62C5-C70B-4A33-9BD1-6F0BB612CBA9</title>
    <desc>Created with sketchtool.</desc>
    <defs></defs>
    <g id="Responsive-web" stroke="none" stroke-width="1" fill="none" fill-rule="evenodd">
        <g id="hotel_details_Amenities_Icons" transform="translate(-390.000000, -501.000000)">
            <g id="Free-Toiletries" transform="translate(390.000000, 500.973000)">
                <path d="M34.4658,17.8672 C34.4658,27.2562 26.8568,34.8672 17.4658,34.8672 C8.0768,34.8672 0.4658,27.2562 0.4658,17.8672 C0.4658,8.4782 8.0768,0.8672 17.4658,0.8672 C26.8568,0.8672 34.4658,8.4782 34.4658,17.8672 L34.4658,17.8672 Z" id="Fill-173" fill="#F0F0F0"></path>
                <path d="M16.7456,20.1836 L16.7346,20.1836 L16.7346,18.8766 C16.7346,18.1916 16.1776,17.6326 15.4906,17.6326 L14.6466,17.6326 C13.9606,17.6326 13.4026,18.1916 13.4026,18.8766 L13.4026,20.1836 L13.3916,20.1836 C12.7746,20.1836 12.2726,20.6856 12.2726,21.3026 L12.2726,27.0406 C12.2726,27.6566 12.7746,28.1586 13.3916,28.1586 L16.7456,28.1586 C17.3626,28.1586 17.8646,27.6566 17.8646,27.0406 L17.8646,21.3026 C17.8646,20.6856 17.3626,20.1836 16.7456,20.1836" id="Fill-175" fill="#888888"></path>
                <path d="M16.7456,20.1836 L16.7346,20.1836 L16.7346,18.8766 C16.7346,18.1916 16.1776,17.6326 15.4906,17.6326 L14.6466,17.6326 C13.9606,17.6326 13.4026,18.1916 13.4026,18.8766 L13.4026,20.1836 L13.3916,20.1836 C12.7746,20.1836 12.2726,20.6856 12.2726,21.3026 L12.2726,27.0406 C12.2726,27.6566 12.7746,28.1586 13.3916,28.1586 L16.7456,28.1586 C17.3626,28.1586 17.8646,27.6566 17.8646,27.0406 L17.8646,21.3026 C17.8646,20.6856 17.3626,20.1836 16.7456,20.1836 L16.7456,20.1836 Z" id="Stroke-177" stroke="#888888" stroke-width="0.2"></path>
                <path d="M14.1851,18.877 C14.1851,18.623 14.3921,18.414 14.6471,18.414 L15.4911,18.414 C15.7461,18.414 15.9531,18.623 15.9531,18.877 L15.9531,20.184 L14.1851,20.184 L14.1851,18.877 Z" id="Fill-179" fill="#F0F0F0"></path>
                <path d="M17.0815,27.041 C17.0815,27.223 16.9285,27.377 16.7455,27.377 L13.3925,27.377 C13.2095,27.377 13.0565,27.223 13.0565,27.041 L13.0565,21.303 C13.0565,21.115 13.2065,20.967 13.3925,20.967 L16.7455,20.967 C16.9285,20.967 17.0815,21.119 17.0815,21.303 L17.0815,27.041 Z" id="Fill-181" fill="#F0F0F0"></path>
                <path d="M21.457,13.8789 L20.805,13.8789 L20.805,12.1369 C20.805,11.5659 20.477,11.0699 19.999,10.8279 L19.999,9.4709 C19.999,9.2539 19.824,9.0779 19.608,9.0779 L19.202,9.0779 L19.202,7.9179 L19.202,7.9059 C19.202,7.6919 19.027,7.5159 18.811,7.5159 L15.132,7.5159 C14.756,7.5159 14.45,7.8219 14.45,8.1989 L14.45,8.9959 C14.45,9.2129 14.624,9.3889 14.84,9.3889 C15.057,9.3889 15.232,9.2129 15.232,8.9959 L15.232,8.2989 L18.419,8.2989 L18.419,9.0779 L18.013,9.0779 C17.798,9.0779 17.623,9.2539 17.623,9.4709 L17.623,10.8279 C17.144,11.0699 16.816,11.5659 16.816,12.1369 L16.816,13.8789 L16.164,13.8789 C15.547,13.8789 15.045,14.3809 15.045,14.9979 L15.045,16.3089 C15.045,16.5239 15.221,16.6989 15.436,16.6989 C15.653,16.6989 15.829,16.5239 15.829,16.3089 L15.829,14.9979 C15.829,14.8129 15.978,14.6619 16.164,14.6619 L21.457,14.6619 C21.643,14.6619 21.793,14.8129 21.793,14.9979 L21.793,27.0409 C21.793,27.2269 21.643,27.3769 21.457,27.3769 L18.763,27.3769 C18.547,27.3769 18.373,27.5509 18.373,27.7679 C18.373,27.9829 18.547,28.1579 18.763,28.1579 L21.457,28.1579 C22.074,28.1579 22.575,27.6559 22.575,27.0409 L22.575,14.9979 C22.575,14.3809 22.074,13.8789 21.457,13.8789" id="Fill-183" fill="#888888"></path>
                <path d="M21.457,13.8789 L20.805,13.8789 L20.805,12.1369 C20.805,11.5659 20.477,11.0699 19.999,10.8279 L19.999,9.4709 C19.999,9.2539 19.824,9.0779 19.608,9.0779 L19.202,9.0779 L19.202,7.9179 L19.202,7.9059 C19.202,7.6919 19.027,7.5159 18.811,7.5159 L15.132,7.5159 C14.756,7.5159 14.45,7.8219 14.45,8.1989 L14.45,8.9959 C14.45,9.2129 14.624,9.3889 14.84,9.3889 C15.057,9.3889 15.232,9.2129 15.232,8.9959 L15.232,8.2989 L18.419,8.2989 L18.419,9.0779 L18.013,9.0779 C17.798,9.0779 17.623,9.2539 17.623,9.4709 L17.623,10.8279 C17.144,11.0699 16.816,11.5659 16.816,12.1369 L16.816,13.8789 L16.164,13.8789 C15.547,13.8789 15.045,14.3809 15.045,14.9979 L15.045,16.3089 C15.045,16.5239 15.221,16.6989 15.436,16.6989 C15.653,16.6989 15.829,16.5239 15.829,16.3089 L15.829,14.9979 C15.829,14.8129 15.978,14.6619 16.164,14.6619 L21.457,14.6619 C21.643,14.6619 21.793,14.8129 21.793,14.9979 L21.793,27.0409 C21.793,27.2269 21.643,27.3769 21.457,27.3769 L18.763,27.3769 C18.547,27.3769 18.373,27.5509 18.373,27.7679 C18.373,27.9829 18.547,28.1579 18.763,28.1579 L21.457,28.1579 C22.074,28.1579 22.575,27.6559 22.575,27.0409 L22.575,14.9979 C22.575,14.3809 22.074,13.8789 21.457,13.8789 L21.457,13.8789 Z" id="Stroke-185" stroke="#888888" stroke-width="0.2"></path>
                <polygon id="Fill-187" fill="#F0F0F0" points="18.405 10.673 19.217 10.673 19.217 9.861 18.405 9.861"></polygon>
                <path d="M20.0229,13.8789 L17.5989,13.8789 L17.5989,12.1369 C17.5989,11.7619 17.9049,11.4549 18.2809,11.4549 L19.3409,11.4549 C19.7169,11.4549 20.0229,11.7619 20.0229,12.1369 L20.0229,13.8789 Z" id="Fill-189" fill="#F0F0F0"></path>
            </g>
        </g>
    </g>
</svg>