<?xml version="1.0" encoding="UTF-8" standalone="no"?>
<svg width="34px" height="35px" viewBox="0 0 34 35" version="1.1" xmlns="http://www.w3.org/2000/svg" xmlns:xlink="http://www.w3.org/1999/xlink">
    <!-- Generator: sketchtool 39.1 (31720) - http://www.bohemiancoding.com/sketch -->
    <title>10CB60EA-6A1D-4A89-89FD-224E58312241</title>
    <desc>Created with sketchtool.</desc>
    <defs></defs>
    <g id="Responsive-web" stroke="none" stroke-width="1" fill="none" fill-rule="evenodd">
        <g id="hotel_details_Amenities_Icons" transform="translate(-55.000000, -558.000000)">
            <g id="Frette-Italian-Sheets" transform="translate(55.000000, 557.973000)">
                <path d="M34,17.6035 C34,26.9925 26.39,34.6035 17,34.6035 C7.61,34.6035 0,26.9925 0,17.6035 C0,8.2145 7.61,0.6035 17,0.6035 C26.39,0.6035 34,8.2145 34,17.6035 L34,17.6035 Z" id="Fill-237" fill="#F0F0F0"></path>
                <path d="M12.6411,16.7627 L12.6411,14.6747 C12.6411,14.2487 12.9401,13.9347 13.3181,14.0457 C13.8021,14.1887 14.4641,14.2827 15.1711,14.0717 C15.5431,13.9597 15.8991,14.2857 15.8991,14.7037 L15.8991,16.7627" id="Stroke-239" stroke="#888888" stroke-width="1.14" stroke-linecap="round" stroke-linejoin="round"></path>
                <path d="M18.583,16.7627 L18.583,14.6747 C18.583,14.2487 18.882,13.9347 19.26,14.0457 C19.744,14.1887 20.406,14.2827 21.113,14.0717 C21.485,13.9597 21.841,14.2857 21.841,14.7037 L21.841,16.7627" id="Stroke-241" stroke="#888888" stroke-width="1.14" stroke-linecap="round" stroke-linejoin="round"></path>
                <path d="M25.082,19.4795 L9.417,19.4795 L9.417,19.3835 C9.417,17.9975 10.994,16.7785 12.938,16.7785 L21.561,16.7785 C23.505,16.7785 25.082,17.9975 25.082,19.3835 L25.082,19.4795 L25.082,19.4795 Z" id="Stroke-243" stroke="#888888" stroke-width="1.14" stroke-linecap="round" stroke-linejoin="round"></path>
                <polygon id="Stroke-245" stroke="#888888" stroke-width="1.14" stroke-linecap="round" stroke-linejoin="round" points="9.417 22.72 25.082 22.72 25.082 19.48 9.417 19.48"></polygon>
                <path d="M9.417,22.7197 L9.417,24.2727" id="Stroke-247" stroke="#888888" stroke-width="1.14" stroke-linecap="round" stroke-linejoin="round"></path>
                <path d="M25.082,22.7197 L25.082,24.2727" id="Stroke-248" stroke="#888888" stroke-width="1.14" stroke-linecap="round" stroke-linejoin="round"></path>
                <polyline id="Stroke-249" stroke="#888888" stroke-width="1.14" stroke-linecap="round" stroke-linejoin="round" points="11.0376 17.2041 11.0376 11.3761 23.4616 11.3761 23.4616 17.2041"></polyline>
            </g>
        </g>
    </g>
</svg>