<?xml version="1.0" encoding="UTF-8" standalone="no"?>
<svg width="34px" height="34px" viewBox="0 0 34 34" version="1.1" xmlns="http://www.w3.org/2000/svg" xmlns:xlink="http://www.w3.org/1999/xlink">
    <!-- Generator: sketchtool 39.1 (31720) - http://www.bohemiancoding.com/sketch -->
    <title>629B032D-F653-4894-B449-2F831A5C5899</title>
    <desc>Created with sketchtool.</desc>
    <defs></defs>
    <g id="Responsive-web" stroke="none" stroke-width="1" fill="none" fill-rule="evenodd">
        <g id="hotel_details_Amenities_Icons" transform="translate(-55.000000, -609.000000)">
            <g id="Hair-Dryer" transform="translate(55.000000, 608.973000)">
                <path d="M34,17.0537 C34,26.4427 26.39,34.0537 17,34.0537 C7.61,34.0537 0,26.4427 0,17.0537 C0,7.6647 7.61,0.0537 17,0.0537 C26.39,0.0537 34,7.6647 34,17.0537" id="Fill-251" fill="#F0F0F0"></path>
                <path d="M21.1079,16.5811 L13.2819,17.5531 C13.1469,17.5681 13.0099,17.5761 12.8759,17.5761 C10.9479,17.5761 9.3799,16.0061 9.3799,14.0741 L9.3799,13.9861 C9.3799,12.0561 10.9479,10.4841 12.8759,10.4841 C13.0099,10.4841 13.1469,10.4921 13.2799,10.5081 L21.1079,11.4801 L21.1079,16.5811 Z M15.0309,21.5421 C15.1089,21.8581 15.0589,22.1851 14.8909,22.4651 C14.7229,22.7441 14.4559,22.9401 14.1399,23.0181 L14.1079,23.0261 C13.7929,23.1041 13.4649,23.0551 13.1849,22.8881 C12.9069,22.7191 12.7099,22.4521 12.6309,22.1351 L11.6369,18.1131 C12.0289,18.2341 12.4439,18.3001 12.8759,18.3001 C13.0379,18.3001 13.2029,18.2911 13.3679,18.2701 L14.1959,18.1691 L15.0309,21.5421 Z M21.5139,10.8011 L13.3649,9.7891 C13.2019,9.7701 13.0379,9.7611 12.8759,9.7611 C10.5489,9.7611 8.6569,11.6561 8.6569,13.9861 L8.6569,14.0741 C8.6569,15.6501 9.5229,17.0261 10.8019,17.7531 L11.9289,22.3101 C12.0539,22.8131 12.3669,23.2381 12.8119,23.5061 C13.1179,23.6911 13.4619,23.7871 13.8119,23.7871 C13.9689,23.7861 14.1259,23.7681 14.2829,23.7291 L14.3139,23.7221 C14.8169,23.5971 15.2429,23.2831 15.5109,22.8391 C15.7779,22.3941 15.8579,21.8721 15.7329,21.3681 L14.9199,18.0791 L21.5139,17.2601 C21.6959,17.2381 21.8309,17.0831 21.8309,16.9011 L21.8309,11.1601 C21.8309,10.9781 21.6959,10.8231 21.5139,10.8011 L21.5139,10.8011 Z" id="Fill-253" fill="#888888"></path>
                <path d="M21.1079,16.5811 L13.2819,17.5531 C13.1469,17.5681 13.0099,17.5761 12.8759,17.5761 C10.9479,17.5761 9.3799,16.0061 9.3799,14.0741 L9.3799,13.9861 C9.3799,12.0561 10.9479,10.4841 12.8759,10.4841 C13.0099,10.4841 13.1469,10.4921 13.2799,10.5081 L21.1079,11.4801 L21.1079,16.5811 L21.1079,16.5811 Z M15.0309,21.5421 C15.1089,21.8581 15.0589,22.1851 14.8909,22.4651 C14.7229,22.7441 14.4559,22.9401 14.1399,23.0181 L14.1079,23.0261 C13.7929,23.1041 13.4649,23.0551 13.1849,22.8881 C12.9069,22.7191 12.7099,22.4521 12.6309,22.1351 L11.6369,18.1131 C12.0289,18.2341 12.4439,18.3001 12.8759,18.3001 C13.0379,18.3001 13.2029,18.2911 13.3679,18.2701 L14.1959,18.1691 L15.0309,21.5421 L15.0309,21.5421 Z M21.5139,10.8011 L13.3649,9.7891 C13.2019,9.7701 13.0379,9.7611 12.8759,9.7611 C10.5489,9.7611 8.6569,11.6561 8.6569,13.9861 L8.6569,14.0741 C8.6569,15.6501 9.5229,17.0261 10.8019,17.7531 L11.9289,22.3101 C12.0539,22.8131 12.3669,23.2381 12.8119,23.5061 C13.1179,23.6911 13.4619,23.7871 13.8119,23.7871 C13.9689,23.7861 14.1259,23.7681 14.2829,23.7291 L14.3139,23.7221 C14.8169,23.5971 15.2429,23.2831 15.5109,22.8391 C15.7779,22.3941 15.8579,21.8721 15.7329,21.3681 L14.9199,18.0791 L21.5139,17.2601 C21.6959,17.2381 21.8309,17.0831 21.8309,16.9011 L21.8309,11.1601 C21.8309,10.9781 21.6959,10.8231 21.5139,10.8011 L21.5139,10.8011 Z" id="Stroke-255" stroke="#888888" stroke-width="0.2"></path>
            </g>
        </g>
    </g>
</svg>