<?xml version="1.0" encoding="UTF-8" standalone="no"?>
<svg width="34px" height="35px" viewBox="0 0 34 35" version="1.1" xmlns="http://www.w3.org/2000/svg" xmlns:xlink="http://www.w3.org/1999/xlink">
    <!-- Generator: sketchtool 39.1 (31720) - http://www.bohemiancoding.com/sketch -->
    <title>759F9633-F730-4280-8FE1-CE8132A75AC9</title>
    <desc>Created with sketchtool.</desc>
    <defs></defs>
    <g id="Responsive-web" stroke="none" stroke-width="1" fill="none" fill-rule="evenodd">
        <g id="hotel_details_Amenities_Icons" transform="translate(-55.000000, -659.000000)">
            <g id="Hypo-allergenic-Bedding-Available" transform="translate(55.000000, 658.973000)">
                <path d="M34,17.5049 C34,26.8939 26.39,34.5049 17,34.5049 C7.61,34.5049 0,26.8939 0,17.5049 C0,8.1159 7.61,0.5049 17,0.5049 C26.39,0.5049 34,8.1159 34,17.5049" id="Fill-275" fill="#F0F0F0"></path>
                <path d="M25.7261,22.9629 L25.7261,21.2499 L26.6841,21.2499 L26.6861,22.9629 L25.7261,22.9629 Z M7.9861,22.9629 L8.9441,22.9629 L8.9441,21.2499 L7.9861,21.2499 L7.9861,22.9629 Z M16.9681,14.8929 C19.5601,14.8929 22.3501,14.8929 24.2721,15.6699 C24.3081,15.6929 24.3451,15.7069 24.3891,15.7169 C25.6791,16.2719 26.5561,17.1929 26.6721,18.7379 L7.9961,18.7379 C8.2241,15.1739 11.8751,14.8929 16.9681,14.8929 L16.9681,14.8929 Z M9.8811,14.3909 C9.8811,12.0629 12.2421,11.8129 13.2571,11.8129 C14.2361,11.8129 16.4681,12.0529 16.6171,14.1679 C14.2201,14.1699 11.7021,14.2089 9.8811,14.9859 L9.8811,14.3909 Z M17.3541,14.0899 C17.3541,11.7659 19.7131,11.5139 20.7281,11.5139 C21.7431,11.5139 24.1021,11.7659 24.1021,14.0899 L24.1021,14.8709 C22.1191,14.2069 19.5601,14.1699 17.3441,14.1679 C17.3421,14.1619 17.3421,14.1539 17.3421,14.1469 C17.3461,14.1269 17.3541,14.1109 17.3541,14.0899 L17.3541,14.0899 Z M7.9861,20.5249 L7.9861,19.4629 L26.6841,19.4629 L26.6841,20.5239 L7.9861,20.5239 L7.9861,20.5249 Z M27.4081,19.1349 C27.4101,19.1229 27.4151,19.1129 27.4151,19.0999 C27.4151,19.0739 27.4131,19.0489 27.4081,19.0249 C27.3831,17.0199 26.3441,15.8439 24.8261,15.1519 L24.8261,14.0899 C24.8261,12.0239 23.2941,10.7909 20.7281,10.7909 C18.8071,10.7909 17.4661,11.4829 16.9131,12.6989 C16.2851,11.6699 15.0151,11.0899 13.2551,11.0899 C10.6911,11.0899 9.1601,12.3219 9.1601,14.3889 L9.1601,15.3579 C7.9981,16.0799 7.2621,17.2359 7.2621,19.0999 L7.2621,22.9609 C7.2621,23.3609 7.5871,23.6859 7.9861,23.6859 L8.9441,23.6859 C9.3431,23.6859 9.6671,23.3609 9.6671,22.9609 L9.6671,21.2479 L25.0021,21.2479 L25.0021,22.9609 C25.0021,23.3609 25.3281,23.6859 25.7261,23.6859 L26.6841,23.6859 C27.0831,23.6859 27.4081,23.3609 27.4081,22.9609 L27.4081,19.1349 Z" id="Fill-277" fill="#888888"></path>
                <path d="M25.7261,22.9629 L25.7261,21.2499 L26.6841,21.2499 L26.6861,22.9629 L25.7261,22.9629 L25.7261,22.9629 Z M7.9861,22.9629 L8.9441,22.9629 L8.9441,21.2499 L7.9861,21.2499 L7.9861,22.9629 Z M16.9681,14.8929 C19.5601,14.8929 22.3501,14.8929 24.2721,15.6699 C24.3081,15.6929 24.3451,15.7069 24.3891,15.7169 C25.6791,16.2719 26.5561,17.1929 26.6721,18.7379 L7.9961,18.7379 C8.2241,15.1739 11.8751,14.8929 16.9681,14.8929 L16.9681,14.8929 Z M9.8811,14.3909 C9.8811,12.0629 12.2421,11.8129 13.2571,11.8129 C14.2361,11.8129 16.4681,12.0529 16.6171,14.1679 C14.2201,14.1699 11.7021,14.2089 9.8811,14.9859 L9.8811,14.3909 L9.8811,14.3909 Z M17.3541,14.0899 C17.3541,11.7659 19.7131,11.5139 20.7281,11.5139 C21.7431,11.5139 24.1021,11.7659 24.1021,14.0899 L24.1021,14.8709 C22.1191,14.2069 19.5601,14.1699 17.3441,14.1679 C17.3421,14.1619 17.3421,14.1539 17.3421,14.1469 C17.3461,14.1269 17.3541,14.1109 17.3541,14.0899 L17.3541,14.0899 Z M7.9861,20.5249 L7.9861,19.4629 L26.6841,19.4629 L26.6841,20.5239 L7.9861,20.5239 L7.9861,20.5249 L7.9861,20.5249 Z M27.4081,19.1349 C27.4101,19.1229 27.4151,19.1129 27.4151,19.0999 C27.4151,19.0739 27.4131,19.0489 27.4081,19.0249 C27.3831,17.0199 26.3441,15.8439 24.8261,15.1519 L24.8261,14.0899 C24.8261,12.0239 23.2941,10.7909 20.7281,10.7909 C18.8071,10.7909 17.4661,11.4829 16.9131,12.6989 C16.2851,11.6699 15.0151,11.0899 13.2551,11.0899 C10.6911,11.0899 9.1601,12.3219 9.1601,14.3889 L9.1601,15.3579 C7.9981,16.0799 7.2621,17.2359 7.2621,19.0999 L7.2621,22.9609 C7.2621,23.3609 7.5871,23.6859 7.9861,23.6859 L8.9441,23.6859 C9.3431,23.6859 9.6671,23.3609 9.6671,22.9609 L9.6671,21.2479 L25.0021,21.2479 L25.0021,22.9609 C25.0021,23.3609 25.3281,23.6859 25.7261,23.6859 L26.6841,23.6859 C27.0831,23.6859 27.4081,23.3609 27.4081,22.9609 L27.4081,19.1349 L27.4081,19.1349 Z" id="Stroke-279" stroke="#888888" stroke-width="0.2"></path>
            </g>
        </g>
    </g>
</svg>