<?xml version="1.0" encoding="UTF-8" standalone="no"?>
<svg width="35px" height="35px" viewBox="0 0 35 35" version="1.1" xmlns="http://www.w3.org/2000/svg" xmlns:xlink="http://www.w3.org/1999/xlink">
    <!-- Generator: sketchtool 39.1 (31720) - http://www.bohemiancoding.com/sketch -->
    <title>6AA3F8B0-8B8E-42D0-8D13-749D9242D1A9</title>
    <desc>Created with sketchtool.</desc>
    <defs></defs>
    <g id="Responsive-web" stroke="none" stroke-width="1" fill="none" fill-rule="evenodd">
        <g id="hotel_details_Amenities_Icons" transform="translate(-390.000000, -148.000000)">
            <g id="In-Room-Safe-(Laptop-Compatible)" transform="translate(390.000000, 147.973000)">
                <path d="M34.3447,17.8809 C34.3447,27.2699 26.7347,34.8809 17.3447,34.8809 C7.9547,34.8809 0.3447,27.2699 0.3447,17.8809 C0.3447,8.4919 7.9547,0.8809 17.3447,0.8809 C26.7347,0.8809 34.3447,8.4919 34.3447,17.8809 L34.3447,17.8809 Z" id="Fill-63" fill="#F0F0F0"></path>
                <path d="M12.632,22.636 L23.091,22.636 L23.091,12.178 L12.632,12.178 L12.632,22.636 Z M23.697,22.938 L23.697,11.875 C23.697,11.707 23.562,11.57 23.395,11.57 L12.328,11.57 C12.161,11.57 12.025,11.707 12.025,11.875 L12.025,22.938 C12.025,23.106 12.161,23.243 12.328,23.243 L23.395,23.243 C23.562,23.243 23.697,23.106 23.697,22.938 L23.697,22.938 Z" id="Fill-65" fill="#888888"></path>
                <path d="M12.632,22.636 L23.091,22.636 L23.091,12.178 L12.632,12.178 L12.632,22.636 Z M23.697,22.938 L23.697,11.875 C23.697,11.707 23.562,11.57 23.395,11.57 L12.328,11.57 C12.161,11.57 12.025,11.707 12.025,11.875 L12.025,22.938 C12.025,23.106 12.161,23.243 12.328,23.243 L23.395,23.243 C23.562,23.243 23.697,23.106 23.697,22.938 L23.697,22.938 Z" id="Stroke-67" stroke="#888888" stroke-width="0.2"></path>
                <path d="M21.484,25.514 L23.091,25.514 L23.091,25.06 L21.484,25.06 L21.484,25.514 Z M14.541,24.453 L10.814,24.453 L10.814,10.36 L24.908,10.36 L24.908,24.453 L14.541,24.453 Z M12.633,25.514 L14.238,25.514 L14.238,25.06 L12.633,25.06 L12.633,25.514 Z M9.758,20.423 L10.207,20.423 L10.207,18.816 L9.758,18.816 L9.758,20.423 Z M9.758,15.997 L10.207,15.997 L10.207,14.391 L9.758,14.391 L9.758,15.997 Z M20.878,25.816 C20.878,25.983 21.014,26.12 21.181,26.12 L23.395,26.12 C23.562,26.12 23.697,25.983 23.697,25.816 L23.697,25.06 L25.21,25.06 C25.377,25.06 25.514,24.924 25.514,24.757 L25.514,10.058 C25.514,9.89 25.377,9.754 25.21,9.754 L10.511,9.754 C10.344,9.754 10.207,9.89 10.207,10.058 L10.207,13.784 L9.455,13.784 C9.287,13.784 9.15,13.921 9.15,14.088 L9.15,16.3 C9.15,16.468 9.287,16.604 9.455,16.604 L10.207,16.604 L10.207,18.211 L9.455,18.211 C9.287,18.211 9.15,18.345 9.15,18.513 L9.15,20.727 C9.15,20.895 9.287,21.03 9.455,21.03 L10.207,21.03 L10.207,24.757 C10.207,24.924 10.344,25.06 10.511,25.06 L12.025,25.06 L12.025,25.816 C12.025,25.983 12.161,26.12 12.329,26.12 L14.541,26.12 C14.709,26.12 14.845,25.983 14.845,25.816 L14.845,25.06 L20.878,25.06 L20.878,25.816 Z" id="Fill-68" fill="#888888"></path>
                <path d="M21.484,25.514 L23.091,25.514 L23.091,25.06 L21.484,25.06 L21.484,25.514 Z M14.541,24.453 L10.814,24.453 L10.814,10.36 L24.908,10.36 L24.908,24.453 L14.541,24.453 L14.541,24.453 Z M12.633,25.514 L14.238,25.514 L14.238,25.06 L12.633,25.06 L12.633,25.514 Z M9.758,20.423 L10.207,20.423 L10.207,18.816 L9.758,18.816 L9.758,20.423 Z M9.758,15.997 L10.207,15.997 L10.207,14.391 L9.758,14.391 L9.758,15.997 Z M20.878,25.816 C20.878,25.983 21.014,26.12 21.181,26.12 L23.395,26.12 C23.562,26.12 23.697,25.983 23.697,25.816 L23.697,25.06 L25.21,25.06 C25.377,25.06 25.514,24.924 25.514,24.757 L25.514,10.058 C25.514,9.89 25.377,9.754 25.21,9.754 L10.511,9.754 C10.344,9.754 10.207,9.89 10.207,10.058 L10.207,13.784 L9.455,13.784 C9.287,13.784 9.15,13.921 9.15,14.088 L9.15,16.3 C9.15,16.468 9.287,16.604 9.455,16.604 L10.207,16.604 L10.207,18.211 L9.455,18.211 C9.287,18.211 9.15,18.345 9.15,18.513 L9.15,20.727 C9.15,20.895 9.287,21.03 9.455,21.03 L10.207,21.03 L10.207,24.757 C10.207,24.924 10.344,25.06 10.511,25.06 L12.025,25.06 L12.025,25.816 C12.025,25.983 12.161,26.12 12.329,26.12 L14.541,26.12 C14.709,26.12 14.845,25.983 14.845,25.816 L14.845,25.06 L20.878,25.06 L20.878,25.816 L20.878,25.816 Z" id="Stroke-69" stroke="#888888" stroke-width="0.2"></path>
                <path d="M17.5576,14.9424 L17.5576,15.7384 C17.1636,15.8094 16.8176,16.0174 16.5686,16.3094 L15.8786,15.9124 C16.2756,15.3884 16.8736,15.0254 17.5576,14.9424 M19.8426,15.9124 L19.1546,16.3094 C18.9046,16.0174 18.5586,15.8094 18.1636,15.7384 L18.1636,14.9424 C18.8486,15.0254 19.4466,15.3884 19.8426,15.9124 M18.1636,19.8714 L18.1636,19.0764 C18.5586,19.0044 18.9046,18.7964 19.1546,18.5034 L19.8426,18.9014 C19.4466,19.4244 18.8486,19.7884 18.1636,19.8714 M15.8796,18.9014 L16.5686,18.5034 C16.8176,18.7964 17.1636,19.0044 17.5576,19.0764 L17.5576,19.8714 C16.8736,19.7884 16.2756,19.4244 15.8796,18.9014 M16.2636,17.9784 L15.5756,18.3774 C15.4486,18.0794 15.3776,17.7514 15.3776,17.4074 C15.3776,17.0624 15.4486,16.7354 15.5756,16.4374 L16.2636,16.8354 C16.1996,17.0134 16.1636,17.2064 16.1636,17.4074 C16.1636,17.6074 16.1996,17.7994 16.2636,17.9784 M20.3456,17.4074 C20.3456,17.7514 20.2736,18.0794 20.1466,18.3774 L19.4566,17.9794 C19.5226,17.7994 19.5576,17.6074 19.5576,17.4074 C19.5576,17.2064 19.5226,17.0134 19.4576,16.8354 L20.1466,16.4384 C20.2736,16.7354 20.3456,17.0624 20.3456,17.4074 M17.8606,16.3174 C18.4616,16.3174 18.9516,16.8054 18.9516,17.4074 C18.9516,17.6034 18.8986,17.7884 18.8066,17.9484 C18.8056,17.9494 18.8056,17.9504 18.8036,17.9514 C18.8036,17.9534 18.8026,17.9554 18.8016,17.9564 C18.6126,18.2794 18.2616,18.4964 17.8606,18.4964 C17.2596,18.4964 16.7706,18.0074 16.7706,17.4074 C16.7706,16.8054 17.2596,16.3174 17.8606,16.3174 M15.1856,18.9524 C15.1866,18.9554 15.1886,18.9564 15.1906,18.9604 C15.7256,19.8784 16.7226,20.4964 17.8606,20.4964 C18.9986,20.4964 19.9946,19.8784 20.5326,18.9604 C20.5336,18.9574 20.5356,18.9554 20.5366,18.9524 C20.5376,18.9494 20.5396,18.9454 20.5416,18.9434 C20.8016,18.4904 20.9526,17.9654 20.9526,17.4074 C20.9526,16.8464 20.8016,16.3214 20.5396,15.8684 C20.5376,15.8664 20.5376,15.8644 20.5366,15.8624 C20.5356,15.8594 20.5336,15.8574 20.5326,15.8544 C19.9956,14.9354 18.9986,14.3164 17.8606,14.3164 C16.7196,14.3164 15.7216,14.9394 15.1866,15.8614 C15.1866,15.8614 15.1866,15.8624 15.1856,15.8624 L15.1846,15.8624 C14.9216,16.3184 14.7706,16.8454 14.7706,17.4074 C14.7706,17.9654 14.9206,18.4904 15.1806,18.9444 C15.1826,18.9464 15.1836,18.9494 15.1856,18.9524" id="Fill-70" fill="#888888"></path>
                <path d="M17.5576,14.9424 L17.5576,15.7384 C17.1636,15.8094 16.8176,16.0174 16.5686,16.3094 L15.8786,15.9124 C16.2756,15.3884 16.8736,15.0254 17.5576,14.9424 L17.5576,14.9424 Z M19.8426,15.9124 L19.1546,16.3094 C18.9046,16.0174 18.5586,15.8094 18.1636,15.7384 L18.1636,14.9424 C18.8486,15.0254 19.4466,15.3884 19.8426,15.9124 L19.8426,15.9124 Z M18.1636,19.8714 L18.1636,19.0764 C18.5586,19.0044 18.9046,18.7964 19.1546,18.5034 L19.8426,18.9014 C19.4466,19.4244 18.8486,19.7884 18.1636,19.8714 L18.1636,19.8714 Z M15.8796,18.9014 L16.5686,18.5034 C16.8176,18.7964 17.1636,19.0044 17.5576,19.0764 L17.5576,19.8714 C16.8736,19.7884 16.2756,19.4244 15.8796,18.9014 L15.8796,18.9014 Z M16.2636,17.9784 L15.5756,18.3774 C15.4486,18.0794 15.3776,17.7514 15.3776,17.4074 C15.3776,17.0624 15.4486,16.7354 15.5756,16.4374 L16.2636,16.8354 C16.1996,17.0134 16.1636,17.2064 16.1636,17.4074 C16.1636,17.6074 16.1996,17.7994 16.2636,17.9784 L16.2636,17.9784 Z M20.3456,17.4074 C20.3456,17.7514 20.2736,18.0794 20.1466,18.3774 L19.4566,17.9794 C19.5226,17.7994 19.5576,17.6074 19.5576,17.4074 C19.5576,17.2064 19.5226,17.0134 19.4576,16.8354 L20.1466,16.4384 C20.2736,16.7354 20.3456,17.0624 20.3456,17.4074 L20.3456,17.4074 Z M17.8606,16.3174 C18.4616,16.3174 18.9516,16.8054 18.9516,17.4074 C18.9516,17.6034 18.8986,17.7884 18.8066,17.9484 C18.8056,17.9494 18.8056,17.9504 18.8036,17.9514 C18.8036,17.9534 18.8026,17.9554 18.8016,17.9564 C18.6126,18.2794 18.2616,18.4964 17.8606,18.4964 C17.2596,18.4964 16.7706,18.0074 16.7706,17.4074 C16.7706,16.8054 17.2596,16.3174 17.8606,16.3174 L17.8606,16.3174 Z M15.1856,18.9524 C15.1866,18.9554 15.1886,18.9564 15.1906,18.9604 C15.7256,19.8784 16.7226,20.4964 17.8606,20.4964 C18.9986,20.4964 19.9946,19.8784 20.5326,18.9604 C20.5336,18.9574 20.5356,18.9554 20.5366,18.9524 C20.5376,18.9494 20.5396,18.9454 20.5416,18.9434 C20.8016,18.4904 20.9526,17.9654 20.9526,17.4074 C20.9526,16.8464 20.8016,16.3214 20.5396,15.8684 C20.5376,15.8664 20.5376,15.8644 20.5366,15.8624 C20.5356,15.8594 20.5336,15.8574 20.5326,15.8544 C19.9956,14.9354 18.9986,14.3164 17.8606,14.3164 C16.7196,14.3164 15.7216,14.9394 15.1866,15.8614 C15.1866,15.8614 15.1866,15.8624 15.1856,15.8624 L15.1846,15.8624 C14.9216,16.3184 14.7706,16.8454 14.7706,17.4074 C14.7706,17.9654 14.9206,18.4904 15.1806,18.9444 C15.1826,18.9464 15.1836,18.9494 15.1856,18.9524 L15.1856,18.9524 Z" id="Stroke-71" stroke="#888888" stroke-width="0.2"></path>
            </g>
        </g>
    </g>
</svg>