<?xml version="1.0" encoding="UTF-8" standalone="no"?>
<svg width="35px" height="34px" viewBox="0 0 35 34" version="1.1" xmlns="http://www.w3.org/2000/svg" xmlns:xlink="http://www.w3.org/1999/xlink">
    <!-- Generator: sketchtool 39.1 (31720) - http://www.bohemiancoding.com/sketch -->
    <title>AEA0C79C-60A4-4A9E-9A70-90D9F7C5ECF8</title>
    <desc>Created with sketchtool.</desc>
    <defs></defs>
    <g id="Responsive-web" stroke="none" stroke-width="1" fill="none" fill-rule="evenodd">
        <g id="hotel_details_Amenities_Icons" transform="translate(-390.000000, -48.000000)">
            <g id="In-room-Climate-Control-(air-conditioning)" transform="translate(390.000000, 48.000000)">
                <path d="M34.4121,17.0003 C34.4121,26.3893 26.8021,34.0003 17.4121,34.0003 C8.0221,34.0003 0.4121,26.3893 0.4121,17.0003 C0.4121,7.6113 8.0221,0.0003 17.4121,0.0003 C26.8021,0.0003 34.4121,7.6113 34.4121,17.0003" id="Fill-19" fill="#F0F0F0"></path>
                <path d="M17.3525,22.3578 L17.3525,11.9028" id="Stroke-20" stroke="#888888" stroke-width="1.14" stroke-linecap="round" stroke-linejoin="round"></path>
                <polyline id="Stroke-21" stroke="#888888" stroke-width="1.14" stroke-linecap="round" stroke-linejoin="round" points="19.0156 12.5384 17.3526 14.1984 15.6916 12.5384"></polyline>
                <polyline id="Stroke-22" stroke="#888888" stroke-width="1.14" stroke-linecap="round" stroke-linejoin="round" points="15.6914 21.7445 17.3524 20.0855 19.0154 21.7445"></polyline>
                <path d="M21.8809,19.7445 L12.8269,14.5165" id="Stroke-23" stroke="#888888" stroke-width="1.14" stroke-linecap="round" stroke-linejoin="round"></path>
                <polyline id="Stroke-24" stroke="#888888" stroke-width="1.14" stroke-linecap="round" stroke-linejoin="round" points="14.207 13.3949 14.814 15.6649 12.547 16.2739"></polyline>
                <polyline id="Stroke-25" stroke="#888888" stroke-width="1.14" stroke-linecap="round" stroke-linejoin="round" points="20.5215 20.8763 19.9105 18.6063 22.1805 17.9983"></polyline>
                <path d="M21.8809,14.5169 L12.8269,19.7449" id="Stroke-26" stroke="#888888" stroke-width="1.14" stroke-linecap="round" stroke-linejoin="round"></path>
                <polyline id="Stroke-27" stroke="#888888" stroke-width="1.14" stroke-linecap="round" stroke-linejoin="round" points="12.5469 17.9867 14.8149 18.5957 14.2069 20.8667"></polyline>
                <polyline id="Stroke-28" stroke="#888888" stroke-width="1.14" stroke-linecap="round" stroke-linejoin="round" points="22.1807 16.2621 19.9107 15.6541 20.5217 13.3841"></polyline>
                <path d="M27.2012,14.2455 C25.9532,9.9645 22.0082,6.8355 17.3242,6.8355 C12.6402,6.8355 8.6952,9.9645 7.4462,14.2455" id="Stroke-29" stroke="#888888" stroke-width="1.14" stroke-linecap="round" stroke-linejoin="round"></path>
                <polyline id="Stroke-30" stroke="#888888" stroke-width="1.14" stroke-linecap="round" stroke-linejoin="round" points="28.5742 10.7113 27.2012 14.2453 23.6682 12.8733"></polyline>
                <path d="M7.5269,20.015 C8.7749,24.294 12.7199,27.424 17.4029,27.424 C22.0879,27.424 26.0329,24.294 27.2819,20.015" id="Stroke-31" stroke="#888888" stroke-width="1.14" stroke-linecap="round" stroke-linejoin="round"></path>
                <polyline id="Stroke-32" stroke="#888888" stroke-width="1.14" stroke-linecap="round" stroke-linejoin="round" points="6.1538 23.5482 7.5268 20.0152 11.0598 21.3862"></polyline>
            </g>
        </g>
    </g>
</svg>