<?xml version="1.0" encoding="UTF-8" standalone="no"?>
<svg width="34px" height="35px" viewBox="0 0 34 35" version="1.1" xmlns="http://www.w3.org/2000/svg" xmlns:xlink="http://www.w3.org/1999/xlink">
    <!-- Generator: sketchtool 39.1 (31720) - http://www.bohemiancoding.com/sketch -->
    <title>9C63C3EB-92CF-4B0E-ABA6-DF4537187801</title>
    <desc>Created with sketchtool.</desc>
    <defs></defs>
    <g id="Responsive-web" stroke="none" stroke-width="1" fill="none" fill-rule="evenodd">
        <g id="hotel_details_Amenities_Icons" transform="translate(-55.000000, -758.000000)">
            <g id="In-room-childcare-(surcharge)" transform="translate(55.000000, 757.973000)">
                <path d="M17,34.5049 C7.61,34.5049 0,26.8939 0,17.5049 C0,8.1159 7.61,0.5049 17,0.5049 C26.39,0.5049 34,8.1159 34,17.5049 C34,26.8939 26.39,34.5049 17,34.5049 Z" id="Fill-275" fill="#F0F0F0"></path>
                <g id="thin-0979_family_relationship_mother_child" transform="translate(13.000000, 7.027000)" stroke="#888888" stroke-width="1.2">
                    <path d="M5.3592128,7.9695616 C5.465376,4.7296704 5.2114496,4.9136256 5.1623616,4.8704448 C5.0319872,4.8319232 4.8952064,4.8100416 4.7517696,4.8100416 L3.6160896,6.0363264 L2.4804096,4.8100416 C2.3369728,4.8100416 2.2002752,4.83184 2.0698176,4.8704448 C2.0207296,4.9137088 1.7668032,4.7296704 1.8729664,7.9695616 L2.2389632,9.9071232 L0.37936,14.5664896 L2.7731072,14.5664896 L2.7731072,19.4701312" id="Shape"></path>
                    <path d="M7.5026112,11.1122752 C7.5026112,11.6582336 7.0599872,12.4205952 6.5140288,12.4205952 C5.9680704,12.4205952 5.5254464,11.6582336 5.5254464,11.1122752 C5.5254464,10.5663168 5.9680704,10.1236928 6.5140288,10.1236928 C7.0600704,10.1236928 7.5026112,10.5662336 7.5026112,11.1122752 L7.5026112,11.1122752 Z" id="Shape"></path>
                    <path d="M4.7518528,1.9733376 C4.7518528,2.6339456 4.2434176,3.556384 3.6161728,3.556384 C2.988928,3.556384 2.4804928,2.6339456 2.4804928,1.9733376 C2.4804928,1.3127296 2.988928,0.7772544 3.6161728,0.7772544 C4.2433344,0.7772544 4.7518528,1.3128128 4.7518528,1.9733376 L4.7518528,1.9733376 Z" id="Shape"></path>
                    <path d="M8.049568,15.91408 C8.049568,17.0252992 7.3620864,19.473376 6.514112,19.473376 C5.6661376,19.473376 4.978656,17.025216 4.978656,15.91408 C4.978656,14.802944 5.6661376,13.9020544 6.514112,13.9020544 C7.3620864,13.9020544 8.049568,14.8028608 8.049568,15.91408 L8.049568,15.91408 Z" id="Shape"></path>
                </g>
            </g>
        </g>
    </g>
</svg>