<?xml version="1.0" encoding="UTF-8" standalone="no"?>
<svg width="35px" height="35px" viewBox="0 0 35 35" version="1.1" xmlns="http://www.w3.org/2000/svg" xmlns:xlink="http://www.w3.org/1999/xlink">
    <!-- Generator: sketchtool 39.1 (31720) - http://www.bohemiancoding.com/sketch -->
    <title>D666725E-F5C5-4C9A-8EE9-EFD021850FD1</title>
    <desc>Created with sketchtool.</desc>
    <defs></defs>
    <g id="Responsive-web" stroke="none" stroke-width="1" fill="none" fill-rule="evenodd">
        <g id="hotel_details_Amenities_Icons" transform="translate(-391.000000, -98.000000)">
            <g id="In-room-Massage-Available" transform="translate(391.000000, 98.000000)">
                <path d="M34.1406,17.0716 C34.1406,26.4606 26.5306,34.0716 17.1406,34.0716 C7.7506,34.0716 0.1406,26.4606 0.1406,17.0716 C0.1406,7.6826 7.7506,0.0716 17.1406,0.0716 C26.5306,0.0716 34.1406,7.6826 34.1406,17.0716" id="Fill-33" fill="#F0F0F0"></path>
                <g id="Group-62" transform="translate(8.000000, 9.973000)" stroke="#888888" stroke-linecap="round" stroke-linejoin="round">
                    <path d="M7.6729,6.8018 C6.8219,7.2918 6.9559,8.8518 4.5779,10.9028 L7.6729,6.8018 L7.6729,6.8018 Z" id="Stroke-35"></path>
                    <path d="M5.3174,9.8877 C5.3174,10.6187 4.4634,11.2117 3.7324,11.2117 L1.9684,11.2117 C0.7524,11.2117 0.0284,10.2247 0.0284,9.0067 L0.0284,5.9207 L5.3174,5.9207 L5.3174,9.8877 L5.3174,9.8877 Z" id="Stroke-37"></path>
                    <path d="M0.0283,6.3623 L0.0283,2.8343" id="Stroke-39"></path>
                    <path d="M1.792,1.0723 L1.792,5.4783" id="Stroke-41"></path>
                    <path d="M3.5547,0.1904 L3.5547,5.4784" id="Stroke-43"></path>
                    <path d="M5.3174,6.3623 L5.3174,1.0723" id="Stroke-45"></path>
                    <path d="M10.3711,6.8018 C11.2211,7.2918 11.0891,8.8518 13.4651,10.9028" id="Stroke-47"></path>
                    <path d="M13.2529,9.8877 C13.2529,10.6187 13.5809,11.2117 14.3119,11.2117 L16.0759,11.2117 C17.2929,11.2117 18.5429,10.2247 18.5429,9.0067 L18.5429,5.9207 L13.2529,5.9207 L13.2529,9.8877 L13.2529,9.8877 Z" id="Stroke-49"></path>
                    <path d="M18.543,6.3623 L18.543,2.8343" id="Stroke-51"></path>
                    <path d="M16.7793,1.0723 L16.7793,5.4783" id="Stroke-53"></path>
                    <path d="M15.0166,0.1904 L15.0166,5.4784" id="Stroke-55"></path>
                    <path d="M13.2529,6.3623 L13.2529,1.0723" id="Stroke-57"></path>
                    <polygon id="Stroke-59" points="1.792 13.888 4.437 13.888 4.437 11.212 1.792 11.212"></polygon>
                    <polygon id="Stroke-61" points="14.135 13.888 16.78 13.888 16.78 11.212 14.135 11.212"></polygon>
                </g>
            </g>
        </g>
    </g>
</svg>