<?xml version="1.0" encoding="UTF-8" standalone="no"?>
<svg width="35px" height="35px" viewBox="0 0 35 35" version="1.1" xmlns="http://www.w3.org/2000/svg" xmlns:xlink="http://www.w3.org/1999/xlink">
    <!-- Generator: sketchtool 39.1 (31720) - http://www.bohemiancoding.com/sketch -->
    <title>B356E873-5C7D-4455-808F-1BD146BB7827</title>
    <desc>Created with sketchtool.</desc>
    <defs></defs>
    <g id="Responsive-web" stroke="none" stroke-width="1" fill="none" fill-rule="evenodd">
        <g id="hotel_details_Amenities_Icons" transform="translate(-390.000000, -199.000000)">
            <g id="Iron/ironing-Noard" transform="translate(390.000000, 198.973000)">
                <path d="M34.4814,17.3076 C34.4814,26.6966 26.8704,34.3076 17.4814,34.3076 C8.0914,34.3076 0.4814,26.6966 0.4814,17.3076 C0.4814,7.9186 8.0914,0.3076 17.4814,0.3076 C26.8704,0.3076 34.4814,7.9186 34.4814,17.3076" id="Fill-73" fill="#F0F0F0"></path>
                <path d="M11.7031,25.0283 L11.7031,25.0283 C12.2421,24.4893 12.2421,23.6163 11.7031,23.0773 C11.1641,22.5383 11.1641,21.6653 11.7031,21.1263" id="Stroke-75" stroke="#888888" stroke-width="1.14" stroke-linecap="round" stroke-linejoin="round"></path>
                <path d="M15.0005,25.0283 L15.0005,25.0283 C15.5395,24.4893 15.5395,23.6163 15.0005,23.0773 C14.4615,22.5383 14.4615,21.6653 15.0005,21.1263" id="Stroke-77" stroke="#888888" stroke-width="1.14" stroke-linecap="round" stroke-linejoin="round"></path>
                <path d="M18.2969,25.0283 L18.2969,25.0283 C18.8359,24.4893 18.8359,23.6163 18.2969,23.0773 C17.7579,22.5383 17.7579,21.6653 18.2969,21.1263" id="Stroke-79" stroke="#888888" stroke-width="1.14" stroke-linecap="round" stroke-linejoin="round"></path>
                <path d="M21.5947,25.0283 L21.5947,25.0283 C22.1327,24.4893 22.1327,23.6163 21.5947,23.0773 C21.0557,22.5383 21.0557,21.6653 21.5947,21.1263" id="Stroke-81" stroke="#888888" stroke-width="1.14" stroke-linecap="round" stroke-linejoin="round"></path>
                <path d="M22.8994,16.1729 C22.8994,16.9619 22.2584,17.6029 21.4694,17.6029 C20.6794,17.6029 20.0404,16.9619 20.0404,16.1729 C20.0404,15.3819 20.6794,14.7429 21.4694,14.7429 C22.2584,14.7429 22.8994,15.3819 22.8994,16.1729 L22.8994,16.1729 Z" id="Stroke-83" stroke="#888888" stroke-width="1.14" stroke-linecap="round" stroke-linejoin="round"></path>
                <path d="M9.7905,19.8643 L23.7885,19.8643 C24.3705,19.8643 24.8975,19.2253 24.8975,18.6433 L24.8975,13.0073 L16.3835,13.0073 C12.7425,13.0073 9.7905,16.0913 9.7905,19.7333 L9.7905,19.8643 L9.7905,19.8643 Z" id="Stroke-85" stroke="#888888" stroke-width="1.14" stroke-linecap="round" stroke-linejoin="round"></path>
                <path d="M15.9307,10.3701 L23.8427,10.3701 C24.4257,10.3701 24.8977,10.8431 24.8977,11.4251 L24.8977,13.0071" id="Stroke-87" stroke="#888888" stroke-width="1.14" stroke-linecap="round" stroke-linejoin="round"></path>
            </g>
        </g>
    </g>
</svg>