<?xml version="1.0" encoding="UTF-8" standalone="no"?>
<svg width="35px" height="35px" viewBox="0 0 35 35" version="1.1" xmlns="http://www.w3.org/2000/svg" xmlns:xlink="http://www.w3.org/1999/xlink">
    <!-- Generator: sketchtool 39.1 (31720) - http://www.bohemiancoding.com/sketch -->
    <title>8F4C8D7C-B669-4903-8F2C-617CEDFCDA9E</title>
    <desc>Created with sketchtool.</desc>
    <defs></defs>
    <g id="Responsive-web" stroke="none" stroke-width="1" fill="none" fill-rule="evenodd">
        <g id="hotel_details_Amenities_Icons" transform="translate(-391.000000, -249.000000)">
            <g id="LCD-TV" transform="translate(391.000000, 248.973000)">
                <path d="M34.1152,17.7334 C34.1152,27.1224 26.5042,34.7334 17.1142,34.7334 C7.7242,34.7334 0.1142,27.1224 0.1142,17.7334 C0.1142,8.3444 7.7242,0.7334 17.1142,0.7334 C26.5042,0.7334 34.1152,8.3444 34.1152,17.7334" id="Fill-90" fill="#F0F0F0"></path>
                <path d="M14.5342,23.0674 L14.1962,25.4424 C14.1962,25.6164 14.3472,25.7564 14.5342,25.7564 L19.7192,25.7564 C19.9042,25.7564 20.0552,25.6164 20.0552,25.4424 L19.7182,23.0674" id="Stroke-92" stroke="#888888" stroke-width="1.14" stroke-linecap="round" stroke-linejoin="round"></path>
                <path d="M23.7861,10.1904 L10.4401,10.1904 C9.8271,10.1904 9.3451,10.6694 9.3451,11.2724 L9.3451,20.3744 C9.3451,20.9754 9.8271,21.4604 10.4401,21.4604 L23.7861,21.4604 C24.4001,21.4604 24.8851,20.9754 24.8851,20.3744 L24.8851,11.2724 C24.8851,10.6694 24.4001,10.1904 23.7861,10.1904 L23.7861,10.1904 Z" id="Stroke-94" stroke="#888888" stroke-width="1.14" stroke-linecap="round" stroke-linejoin="round"></path>
                <path d="M9.3457,19.3096 L24.8847,19.3096" id="Stroke-96" stroke="#888888" stroke-width="1.14" stroke-linecap="round" stroke-linejoin="round"></path>
            </g>
        </g>
    </g>
</svg>