<?xml version="1.0" encoding="UTF-8" standalone="no"?>
<svg width="35px" height="35px" viewBox="0 0 35 35" version="1.1" xmlns="http://www.w3.org/2000/svg" xmlns:xlink="http://www.w3.org/1999/xlink">
    <!-- Generator: sketchtool 39.1 (31720) - http://www.bohemiancoding.com/sketch -->
    <title>023B6B0E-7EE2-4A88-AB16-5DCC8264FE2B</title>
    <desc>Created with sketchtool.</desc>
    <defs></defs>
    <g id="Responsive-web" stroke="none" stroke-width="1" fill="none" fill-rule="evenodd">
        <g id="hotel_details_Amenities_Icons" transform="translate(-390.000000, -300.000000)">
            <g id="Minibar" transform="translate(390.000000, 299.973000)">
                <path d="M34.4814,17.1602 C34.4814,26.5492 26.8704,34.1602 17.4814,34.1602 C8.0914,34.1602 0.4814,26.5492 0.4814,17.1602 C0.4814,7.7712 8.0914,0.1602 17.4814,0.1602 C26.8704,0.1602 34.4814,7.7712 34.4814,17.1602" id="Fill-99" fill="#F0F0F0"></path>
                <polygon id="Stroke-101" stroke="#888888" stroke-width="1.14" stroke-linecap="round" stroke-linejoin="round" points="12.4438 12.9004 24.6568 12.9004 18.3938 20.0664"></polygon>
                <path d="M18.3936,20.0664 L18.3936,25.8304" id="Stroke-103" stroke="#888888" stroke-width="1.14" stroke-linecap="round" stroke-linejoin="round"></path>
                <path d="M14.5806,25.8301 L22.2046,25.8301" id="Stroke-105" stroke="#888888" stroke-width="1.14" stroke-linecap="round" stroke-linejoin="round"></path>
                <path d="M14.4888,15.3633 L22.5048,15.3633" id="Stroke-107" stroke="#888888" stroke-width="1.14" stroke-linecap="round" stroke-linejoin="round"></path>
                <path d="M15.2861,16.3242 C14.8571,16.4822 14.3921,16.5702 13.9081,16.5702 C11.7051,16.5702 9.9191,14.7712 9.9191,12.5542 C9.9191,10.3362 11.7051,8.5372 13.9081,8.5372 C16.1111,8.5372 17.8971,10.3362 17.8971,12.5542 C17.8971,12.6212 17.9001,12.8362 17.8971,12.9002" id="Stroke-109" stroke="#888888" stroke-width="1.14" stroke-linecap="round" stroke-linejoin="round"></path>
            </g>
        </g>
    </g>
</svg>