<?xml version="1.0" encoding="UTF-8" standalone="no"?>
<svg width="34px" height="35px" viewBox="0 0 34 35" version="1.1" xmlns="http://www.w3.org/2000/svg" xmlns:xlink="http://www.w3.org/1999/xlink">
    <!-- Generator: sketchtool 39.1 (31720) - http://www.bohemiancoding.com/sketch -->
    <title>EE8F15B1-46B6-4DAE-B860-26E35D35C8EF</title>
    <desc>Created with sketchtool.</desc>
    <defs>
        <rect id="path-1" x="0" y="7.2" width="20.7777778" height="3.6" rx="1.8"></rect>
        <mask id="mask-2" maskContentUnits="userSpaceOnUse" maskUnits="objectBoundingBox" x="0" y="0" width="20.7777778" height="3.6" fill="white">
            <use xlink:href="#path-1"></use>
        </mask>
    </defs>
    <g id="Responsive-web" stroke="none" stroke-width="1" fill="none" fill-rule="evenodd">
        <g id="hotel_details_Amenities_Icons" transform="translate(-56.000000, -954.000000)">
            <g id="Non-Smoking-rooms" transform="translate(56.000000, 954.000000)">
                <path d="M17,34.0589284 C26.3888407,34.0589284 34,26.4477691 34,17.0589284 C34,7.67008763 26.3888407,0.0589283718 17,0.0589283718 C7.61115925,0.0589283718 0,7.67008763 0,17.0589284 C0,26.4477691 7.61115925,34.0589284 17,34.0589284 Z" id="Oval-36" fill-opacity="0.12" fill="#888888"></path>
                <g id="Group-4" transform="translate(6.000000, 8.058928)" stroke="#888888">
                    <use id="Rectangle-41" mask="url(#mask-2)" stroke-width="2.4" xlink:href="#path-1"></use>
                    <path d="M17.7222221,16.2000005 L3.05555557,1.8" id="Line" stroke-width="1.8" stroke-linecap="square"></path>
                    <path d="M20.6915416,6.0249023 C20.3230249,4.90722652 18.5437012,1.6546875 16.1902669,1.08134766 C13.8368327,0.508007816 15.2342122,2.63906246 17.8872677,3.65443456 C20.5403232,4.66980667 21.0600583,7.14257808 20.6915416,6.0249023 Z" id="Path-63" stroke-width="1.2"></path>
                </g>
            </g>
        </g>
    </g>
</svg>