<?xml version="1.0" encoding="UTF-8" standalone="no"?>
<svg width="34px" height="34px" viewBox="0 0 34 34" version="1.1" xmlns="http://www.w3.org/2000/svg" xmlns:xlink="http://www.w3.org/1999/xlink">
    <!-- Generator: sketchtool 3.8.3 (29802) - http://www.bohemiancoding.com/sketch -->
    <title>E2E5B282-B2F9-4BCC-8122-40B8C91DA947</title>
    <desc>Created with sketchtool.</desc>
    <defs>
        <rect id="path-1" x="0" y="7.2" width="20.7777778" height="3.6" rx="1.8"></rect>
        <mask id="mask-2" maskContentUnits="userSpaceOnUse" maskUnits="objectBoundingBox" x="0" y="0" width="20.7777778" height="3.6" fill="white">
            <use xlink:href="#path-1"></use>
        </mask>
    </defs>
    <g id="Responsive-web" stroke="none" stroke-width="1" fill="none" fill-rule="evenodd">
        <g id="hotel_details_a1" transform="translate(-24.000000, -1458.000000)">
            <g id="non_Smoking" transform="translate(24.000000, 1458.000000)">
                <path d="M17,34 C26.3888407,34 34,26.3888407 34,17 C34,7.61115925 26.3888407,0 17,0 C7.61115925,0 0,7.61115925 0,17 C0,26.3888407 7.61115925,34 17,34 Z" id="Oval-36" fill-opacity="0.12" fill="#888888"></path>
                <g id="Group-4" transform="translate(6.000000, 8.000000)" stroke="#888888">
                    <use id="Rectangle-41" mask="url(#mask-2)" stroke-width="2.4" xlink:href="#path-1"></use>
                    <path d="M17.7222221,16.2000005 L3.05555557,1.8" id="Line" stroke-width="1.8" stroke-linecap="square"></path>
                    <path d="M20.6915416,6.0249023 C20.3230249,4.90722652 18.5437012,1.6546875 16.1902669,1.08134766 C13.8368327,0.508007816 15.2342122,2.63906246 17.8872677,3.65443456 C20.5403232,4.66980667 21.0600583,7.14257808 20.6915416,6.0249023 Z" id="Path-63" stroke-width="1.2"></path>
                </g>
            </g>
        </g>
    </g>
</svg>