<?xml version="1.0" encoding="UTF-8" standalone="no"?>
<svg width="34px" height="34px" viewBox="0 0 34 34" version="1.1" xmlns="http://www.w3.org/2000/svg" xmlns:xlink="http://www.w3.org/1999/xlink">
    <!-- Generator: sketchtool 3.8.3 (29802) - http://www.bohemiancoding.com/sketch -->
    <title>0FF160FD-3151-48F6-BEBB-B634CB05EB01</title>
    <desc>Created with sketchtool.</desc>
    <defs></defs>
    <g id="Responsive-web" stroke="none" stroke-width="1" fill="none" fill-rule="evenodd">
        <g id="hotel_details_a1" transform="translate(-24.000000, -1408.000000)">
            <g id="parking_icon" transform="translate(24.000000, 1408.000000)">
                <g id="Group-9">
                    <circle id="Oval-36" fill-opacity="0.12" fill="#888888" cx="17" cy="17" r="17"></circle>
                    <g id="Page-1" transform="translate(12.000000, 9.000000)">
                        <polygon id="Clip-2" points="5.49997885 16 0 16 0 0 5.49997885 0 10.9999577 0 10.9999577 16 5.49997885 16"></polygon>
                        <path d="M6.09226538,7.11111111 L3.38457308,7.11111111 L3.38457308,3.55555556 L6.09226538,3.55555556 C7.02726538,3.55555556 7.78457308,4.35066667 7.78457308,5.33333333 C7.78457308,6.31555556 7.02726538,7.11111111 6.09226538,7.11111111 M5.92303462,7.99360578e-15 L-4.23076918e-05,7.99360578e-15 L-4.23076918e-05,16 L3.38457308,16 L3.38457308,10.6666667 L5.92303462,10.6666667 C8.72803462,10.6666667 10.9999577,8.28 10.9999577,5.33333333 C10.9999577,2.38622222 8.72803462,7.99360578e-15 5.92303462,7.99360578e-15" id="Fill-1" stroke="#888888" stroke-width="1.2"></path>
                    </g>
                </g>
            </g>
        </g>
    </g>
</svg>