<?xml version="1.0" encoding="UTF-8" standalone="no"?>
<svg width="35px" height="35px" viewBox="0 0 35 35" version="1.1" xmlns="http://www.w3.org/2000/svg" xmlns:xlink="http://www.w3.org/1999/xlink">
    <!-- Generator: sketchtool 39.1 (31720) - http://www.bohemiancoding.com/sketch -->
    <title>2740A742-318C-43BE-96F7-8FE1FDE715C3</title>
    <desc>Created with sketchtool.</desc>
    <defs></defs>
    <g id="Responsive-web" stroke="none" stroke-width="1" fill="none" fill-rule="evenodd">
        <g id="hotel_details_Amenities_Icons" transform="translate(-390.000000, -350.000000)">
            <g id="Partially-Open-Bathroom" transform="translate(390.000000, 349.973000)">
                <path d="M34.4814,17.5869 C34.4814,26.9759 26.8704,34.5869 17.4814,34.5869 C8.0914,34.5869 0.4814,26.9759 0.4814,17.5869 C0.4814,8.1979 8.0914,0.5869 17.4814,0.5869 C26.8704,0.5869 34.4814,8.1979 34.4814,17.5869" id="Fill-112" fill="#F0F0F0"></path>
                <path d="M18.1509,11.1504 C18.1509,10.3324 17.3279,9.4844 16.3119,9.4844 C15.2959,9.4844 14.4719,10.3324 14.4719,11.1504 L18.1509,11.1504 L18.1509,11.1504 Z" id="Stroke-114" stroke="#888888" stroke-width="1.14" stroke-linecap="round" stroke-linejoin="round"></path>
                <path d="M16.3115,9.4844 C15.8335,9.0864 14.9205,8.8934 14.2505,8.8934 C12.7295,8.8934 11.4965,10.1274 11.4965,11.6484 L11.4965,19.6254" id="Stroke-116" stroke="#888888" stroke-width="1.14" stroke-linecap="round" stroke-linejoin="round"></path>
                <path d="M26.5693,19.625 L26.5693,20.333 C26.3743,22.901 24.4683,25.113 21.9013,25.113 L14.9603,25.113 C12.3923,25.113 10.4863,22.901 10.2653,20.333 L10.2653,19.625" id="Stroke-118" stroke="#888888" stroke-width="1.14" stroke-linecap="round" stroke-linejoin="round"></path>
                <path d="M14.0977,25.0342 L13.5037,26.2962" id="Stroke-120" stroke="#888888" stroke-width="1.14" stroke-linecap="round" stroke-linejoin="round"></path>
                <path d="M22.8037,25.0342 L23.3977,26.2962" id="Stroke-122" stroke="#888888" stroke-width="1.14" stroke-linecap="round" stroke-linejoin="round"></path>
                <path d="M24.1885,19.625 L27.0165,19.625" id="Stroke-124" stroke="#888888" stroke-width="1.14" stroke-linecap="round" stroke-linejoin="round"></path>
                <path d="M9.7686,19.625 L24.1886,19.625" id="Stroke-126" stroke="#888888" stroke-width="1.14" stroke-linecap="round" stroke-linejoin="round"></path>
                <path d="M16.2983,12.4414 L16.2983,12.7444" id="Stroke-128" stroke="#888888" stroke-width="1.14" stroke-linecap="round" stroke-linejoin="round"></path>
                <path d="M16.2983,14.7861 L16.2983,16.4871" id="Stroke-130" stroke="#888888" stroke-width="1.14" stroke-linecap="round" stroke-linejoin="round" stroke-dasharray="1.124,3.373"></path>
                <path d="M16.2983,17.5088 L16.2983,17.8118" id="Stroke-132" stroke="#888888" stroke-width="1.14" stroke-linecap="round" stroke-linejoin="round"></path>
                <path d="M17.5151,12.5098 L17.5821,12.8048" id="Stroke-134" stroke="#888888" stroke-width="1.14" stroke-linecap="round" stroke-linejoin="round"></path>
                <path d="M18.0381,14.7949 L18.4181,16.4529" id="Stroke-136" stroke="#888888" stroke-width="1.14" stroke-linecap="round" stroke-linejoin="round" stroke-dasharray="1.124,3.373"></path>
                <path d="M18.6465,17.4492 L18.7135,17.7442" id="Stroke-138" stroke="#888888" stroke-width="1.14" stroke-linecap="round" stroke-linejoin="round"></path>
                <path d="M15.082,12.5098 L15.015,12.8048" id="Stroke-140" stroke="#888888" stroke-width="1.14" stroke-linecap="round" stroke-linejoin="round"></path>
                <path d="M14.5586,14.7949 L14.1786,16.4529" id="Stroke-142" stroke="#888888" stroke-width="1.14" stroke-linecap="round" stroke-linejoin="round" stroke-dasharray="1.124,3.373"></path>
                <path d="M13.9502,17.4492 L13.8832,17.7442" id="Stroke-144" stroke="#888888" stroke-width="1.14" stroke-linecap="round" stroke-linejoin="round"></path>
            </g>
        </g>
    </g>
</svg>