<?xml version="1.0" encoding="UTF-8" standalone="no"?>
<svg width="35px" height="34px" viewBox="0 0 35 34" version="1.1" xmlns="http://www.w3.org/2000/svg" xmlns:xlink="http://www.w3.org/1999/xlink">
    <!-- Generator: sketchtool 39.1 (31720) - http://www.bohemiancoding.com/sketch -->
    <title>F58AEB36-D857-42F3-86B2-FC6E985BE4C8</title>
    <desc>Created with sketchtool.</desc>
    <defs></defs>
    <g id="Responsive-web" stroke="none" stroke-width="1" fill="none" fill-rule="evenodd">
        <g id="hotel_details_Amenities_Icons" transform="translate(-390.000000, -401.000000)">
            <g id="Phone" transform="translate(390.000000, 400.973000)">
                <path d="M34.4814,17.0137 C34.4814,26.4027 26.8704,34.0137 17.4814,34.0137 C8.0914,34.0137 0.4814,26.4027 0.4814,17.0137 C0.4814,7.6247 8.0914,0.0137 17.4814,0.0137 C26.8704,0.0137 34.4814,7.6247 34.4814,17.0137" id="Fill-147" fill="#F0F0F0"></path>
                <polygon id="Stroke-149" stroke="#888888" stroke-width="1.14" stroke-linecap="round" stroke-linejoin="round" points="18.8003 15.9287 16.1223 15.9287 11.3343 20.8697 11.3343 23.9697 23.6433 23.9697 23.6433 20.8697"></polygon>
                <path d="M12.4033,23.9902 L12.4033,24.9622" id="Stroke-151" stroke="#888888" stroke-width="1.14" stroke-linecap="round" stroke-linejoin="round"></path>
                <path d="M22.5635,23.9902 L22.5635,24.9622" id="Stroke-153" stroke="#888888" stroke-width="1.14" stroke-linecap="round" stroke-linejoin="round"></path>
                <path d="M16.1226,14.8896 L16.1226,15.9286" id="Stroke-155" stroke="#888888" stroke-width="1.14" stroke-linecap="round" stroke-linejoin="round"></path>
                <path d="M18.8003,14.8896 L18.8003,15.9286" id="Stroke-157" stroke="#888888" stroke-width="1.14" stroke-linecap="round" stroke-linejoin="round"></path>
                <path d="M19.7539,19.9482 C19.7539,21.2032 18.7369,22.2192 17.4829,22.2192 C16.2289,22.2192 15.2119,21.2032 15.2119,19.9482 C15.2119,18.6952 16.2289,17.6782 17.4829,17.6782 C18.7369,17.6782 19.7539,18.6952 19.7539,19.9482 L19.7539,19.9482 Z" id="Stroke-159" stroke="#888888" stroke-width="1.14" stroke-linecap="round" stroke-linejoin="round"></path>
                <path d="M18.4214,19.9482 C18.4214,20.4672 18.0014,20.8872 17.4834,20.8872 C16.9634,20.8872 16.5444,20.4672 16.5444,19.9482 C16.5444,19.4312 16.9634,19.0112 17.4834,19.0112 C18.0014,19.0112 18.4214,19.4312 18.4214,19.9482 L18.4214,19.9482 Z" id="Stroke-161" stroke="#888888" stroke-width="1.14" stroke-linecap="round" stroke-linejoin="round"></path>
                <path d="M24.4463,11.8398 L24.4463,11.8388 C23.9133,10.2828 21.6293,9.5468 17.4603,9.5858 C13.2923,9.5468 11.0063,10.2828 10.4743,11.8388 L10.4743,11.8398 C10.3083,12.3228 10.3013,13.4978 10.3213,14.0038 C10.3263,14.1518 10.4533,14.2688 10.6063,14.2708 L14.7043,14.2898 C14.8593,14.2908 14.9873,14.1728 14.9933,14.0238 C14.9933,14.0238 15.0103,12.8928 15.0173,12.8748 C15.2913,12.0758 19.6283,12.0688 19.9033,12.8748 C19.9093,12.8928 19.9263,14.0238 19.9263,14.0238 C19.9343,14.1728 20.0603,14.2908 20.2163,14.2898 L24.3133,14.2708 C24.4673,14.2688 24.5933,14.1518 24.5983,14.0038 C24.6183,13.4978 24.6123,12.3228 24.4463,11.8398 L24.4463,11.8398 Z" id="Stroke-163" stroke="#888888" stroke-width="1.14" stroke-linecap="round" stroke-linejoin="round"></path>
            </g>
        </g>
    </g>
</svg>