<?xml version="1.0" encoding="UTF-8" standalone="no"?>
<svg width="35px" height="35px" viewBox="0 0 35 35" version="1.1" xmlns="http://www.w3.org/2000/svg" xmlns:xlink="http://www.w3.org/1999/xlink">
    <!-- Generator: sketchtool 39.1 (31720) - http://www.bohemiancoding.com/sketch -->
    <title>597834A3-1FEF-4343-AC13-E28FCA5C4354</title>
    <desc>Created with sketchtool.</desc>
    <defs></defs>
    <g id="Responsive-web" stroke="none" stroke-width="1" fill="none" fill-rule="evenodd">
        <g id="hotel_details_Amenities_Icons" transform="translate(-391.000000, -753.000000)">
            <g id="Premium-TV-channels" transform="translate(391.000000, 753.973000)">
                <path d="M34.5166,17 C34.5166,26.389 26.9066,34 17.5166,34 C8.1266,34 0.5166,26.389 0.5166,17 C0.5166,7.611 8.1266,0 17.5166,0 C26.9066,0 34.5166,7.611 34.5166,17 L34.5166,17 Z" id="Fill-320" fill="#F0F0F0"></path>
                <g id="Group" transform="translate(8.500000, 8.000000)">
                    <path d="M6.881625,7.993125 L8.449875,7.993125 L8.449875,6.426 L6.881625,6.426 L6.881625,7.993125 Z M3.744,7.993125 L5.313375,7.993125 L5.313375,6.426 L3.744,6.426 L3.744,7.993125 Z M10.018125,7.993125 L11.586375,7.993125 L11.586375,6.426 L10.018125,6.426 L10.018125,7.993125 Z M6.881625,11.129625 L8.449875,11.129625 L8.449875,9.5625 L6.881625,9.5625 L6.881625,11.129625 Z M11.586375,9.5625 L13.154625,9.5625 L13.154625,7.992 L11.586375,7.992 L11.586375,9.5625 Z M3.744,11.129625 L5.313375,11.129625 L5.313375,9.5625 L3.744,9.5625 L3.744,11.129625 Z M10.018125,11.129625 L11.586375,11.129625 L11.586375,9.5625 L10.018125,9.5625 L10.018125,11.129625 Z M11.586375,12.697875 L13.154625,12.697875 L13.154625,11.1285 L11.586375,11.1285 L11.586375,12.697875 Z M14.72175,6.426 L16.288875,6.426 L16.288875,4.8555 L14.72175,4.8555 L14.72175,6.426 Z M13.1535,7.992 L14.72175,7.992 L14.72175,6.424875 L13.1535,6.424875 L13.1535,7.992 Z M17.07525,14.266125 C17.07525,14.697 16.723125,15.051375 16.288875,15.051375 L2.178,15.051375 C1.74375,15.051375 1.39275,14.697 1.39275,14.266125 L1.39275,4.8555 C1.39275,4.4235 1.74375,4.073625 2.178,4.073625 L16.288875,4.073625 C16.723125,4.073625 17.07525,4.4235 17.07525,4.8555 L17.07525,14.266125 Z M16.288875,3.2895 L10.57275,3.2895 L12.17025,1.692 C12.23325,1.706625 12.301875,1.719 12.36825,1.719 C12.803625,1.719 13.1535,1.369125 13.1535,0.936 C13.1535,0.502875 12.803625,0.151875 12.36825,0.151875 C11.93625,0.151875 11.586375,0.502875 11.586375,0.936 C11.586375,1.00575 11.597625,1.071 11.6145,1.13625 L9.464625,3.2895 L9.0045,3.2895 L6.85125,1.13625 C6.86925,1.071 6.881625,1.00575 6.881625,0.936 C6.881625,0.502875 6.530625,0.151875 6.0975,0.151875 C5.664375,0.151875 5.313375,0.502875 5.313375,0.936 C5.313375,1.369125 5.664375,1.719 6.0975,1.719 C6.16725,1.719 6.23475,1.706625 6.29775,1.692 L7.89525,3.2895 L2.178,3.2895 C1.31175,3.2895 0.608625,3.98925 0.608625,4.8555 L0.608625,14.266125 C0.608625,15.1335 1.31175,15.834375 2.178,15.834375 L3.745125,15.834375 L3.745125,17.01225 C3.745125,17.226 3.920625,17.40375 4.136625,17.40375 C4.35375,17.40375 4.528125,17.226 4.528125,17.01225 L4.528125,16.617375 L13.93875,16.617375 L13.93875,17.01225 C13.93875,17.226 14.11425,17.40375 14.329125,17.40375 C14.54625,17.40375 14.72175,17.226 14.72175,17.01225 L14.72175,15.834375 L16.288875,15.834375 C17.155125,15.834375 17.85825,15.1335 17.85825,14.266125 L17.85825,4.8555 C17.85825,3.98925 17.155125,3.2895 16.288875,3.2895 L16.288875,3.2895 Z M5.313375,12.697875 L6.881625,12.697875 L6.881625,11.1285 L5.313375,11.1285 L5.313375,12.697875 Z M8.449875,12.697875 L10.018125,12.697875 L10.018125,11.1285 L8.449875,11.1285 L8.449875,12.697875 Z M5.313375,9.5625 L6.881625,9.5625 L6.881625,7.992 L5.313375,7.992 L5.313375,9.5625 Z M13.1535,11.129625 L14.72175,11.129625 L14.72175,9.5625 L13.1535,9.5625 L13.1535,11.129625 Z M2.178,6.426 L3.745125,6.426 L3.745125,4.8555 L2.178,4.8555 L2.178,6.426 Z M3.745125,14.266125 L5.3145,14.266125 L5.3145,12.697875 L3.745125,12.697875 L3.745125,14.266125 Z M8.449875,6.426 L10.018125,6.426 L10.018125,4.8555 L8.449875,4.8555 L8.449875,6.426 Z M5.313375,6.426 L6.881625,6.426 L6.881625,4.8555 L5.313375,4.8555 L5.313375,6.426 Z M2.178,12.697875 L3.745125,12.697875 L3.745125,11.1285 L2.178,11.1285 L2.178,12.697875 Z M2.178,9.5625 L3.745125,9.5625 L3.745125,7.992 L2.178,7.992 L2.178,9.5625 Z M6.881625,14.266125 L8.449875,14.266125 L8.449875,12.697875 L6.881625,12.697875 L6.881625,14.266125 Z M10.018125,14.266125 L11.586375,14.266125 L11.586375,12.697875 L10.018125,12.697875 L10.018125,14.266125 Z M13.1535,14.266125 L14.72175,14.266125 L14.72175,12.697875 L13.1535,12.697875 L13.1535,14.266125 Z M8.449875,9.5625 L10.018125,9.5625 L10.018125,7.992 L8.449875,7.992 L8.449875,9.5625 Z M14.72175,9.5625 L16.288875,9.5625 L16.288875,7.992 L14.72175,7.992 L14.72175,9.5625 Z M14.72175,12.699 L16.288875,12.699 L16.288875,11.129625 L14.72175,11.129625 L14.72175,12.699 Z M11.58525,6.426 L13.1535,6.426 L13.1535,4.8555 L11.58525,4.8555 L11.58525,6.426 Z" id="Fill-322" fill="#888888"></path>
                    <path d="M6.881625,7.993125 L8.449875,7.993125 L8.449875,6.426 L6.881625,6.426 L6.881625,7.993125 Z M3.744,7.993125 L5.313375,7.993125 L5.313375,6.426 L3.744,6.426 L3.744,7.993125 Z M10.018125,7.993125 L11.586375,7.993125 L11.586375,6.426 L10.018125,6.426 L10.018125,7.993125 Z M6.881625,11.129625 L8.449875,11.129625 L8.449875,9.5625 L6.881625,9.5625 L6.881625,11.129625 Z M11.586375,9.5625 L13.154625,9.5625 L13.154625,7.992 L11.586375,7.992 L11.586375,9.5625 Z M3.744,11.129625 L5.313375,11.129625 L5.313375,9.5625 L3.744,9.5625 L3.744,11.129625 Z M10.018125,11.129625 L11.586375,11.129625 L11.586375,9.5625 L10.018125,9.5625 L10.018125,11.129625 Z M11.586375,12.697875 L13.154625,12.697875 L13.154625,11.1285 L11.586375,11.1285 L11.586375,12.697875 Z M14.72175,6.426 L16.288875,6.426 L16.288875,4.8555 L14.72175,4.8555 L14.72175,6.426 Z M13.1535,7.992 L14.72175,7.992 L14.72175,6.424875 L13.1535,6.424875 L13.1535,7.992 Z M17.07525,14.266125 C17.07525,14.697 16.723125,15.051375 16.288875,15.051375 L2.178,15.051375 C1.74375,15.051375 1.39275,14.697 1.39275,14.266125 L1.39275,4.8555 C1.39275,4.4235 1.74375,4.073625 2.178,4.073625 L16.288875,4.073625 C16.723125,4.073625 17.07525,4.4235 17.07525,4.8555 L17.07525,14.266125 L17.07525,14.266125 Z M16.288875,3.2895 L10.57275,3.2895 L12.17025,1.692 C12.23325,1.706625 12.301875,1.719 12.36825,1.719 C12.803625,1.719 13.1535,1.369125 13.1535,0.936 C13.1535,0.502875 12.803625,0.151875 12.36825,0.151875 C11.93625,0.151875 11.586375,0.502875 11.586375,0.936 C11.586375,1.00575 11.597625,1.071 11.6145,1.13625 L9.464625,3.2895 L9.0045,3.2895 L6.85125,1.13625 C6.86925,1.071 6.881625,1.00575 6.881625,0.936 C6.881625,0.502875 6.530625,0.151875 6.0975,0.151875 C5.664375,0.151875 5.313375,0.502875 5.313375,0.936 C5.313375,1.369125 5.664375,1.719 6.0975,1.719 C6.16725,1.719 6.23475,1.706625 6.29775,1.692 L7.89525,3.2895 L2.178,3.2895 C1.31175,3.2895 0.608625,3.98925 0.608625,4.8555 L0.608625,14.266125 C0.608625,15.1335 1.31175,15.834375 2.178,15.834375 L3.745125,15.834375 L3.745125,17.01225 C3.745125,17.226 3.920625,17.40375 4.136625,17.40375 C4.35375,17.40375 4.528125,17.226 4.528125,17.01225 L4.528125,16.617375 L13.93875,16.617375 L13.93875,17.01225 C13.93875,17.226 14.11425,17.40375 14.329125,17.40375 C14.54625,17.40375 14.72175,17.226 14.72175,17.01225 L14.72175,15.834375 L16.288875,15.834375 C17.155125,15.834375 17.85825,15.1335 17.85825,14.266125 L17.85825,4.8555 C17.85825,3.98925 17.155125,3.2895 16.288875,3.2895 L16.288875,3.2895 Z M5.313375,12.697875 L6.881625,12.697875 L6.881625,11.1285 L5.313375,11.1285 L5.313375,12.697875 Z M8.449875,12.697875 L10.018125,12.697875 L10.018125,11.1285 L8.449875,11.1285 L8.449875,12.697875 Z M5.313375,9.5625 L6.881625,9.5625 L6.881625,7.992 L5.313375,7.992 L5.313375,9.5625 Z M13.1535,11.129625 L14.72175,11.129625 L14.72175,9.5625 L13.1535,9.5625 L13.1535,11.129625 Z M2.178,6.426 L3.745125,6.426 L3.745125,4.8555 L2.178,4.8555 L2.178,6.426 Z M3.745125,14.266125 L5.3145,14.266125 L5.3145,12.697875 L3.745125,12.697875 L3.745125,14.266125 Z M8.449875,6.426 L10.018125,6.426 L10.018125,4.8555 L8.449875,4.8555 L8.449875,6.426 Z M5.313375,6.426 L6.881625,6.426 L6.881625,4.8555 L5.313375,4.8555 L5.313375,6.426 Z M2.178,12.697875 L3.745125,12.697875 L3.745125,11.1285 L2.178,11.1285 L2.178,12.697875 Z M2.178,9.5625 L3.745125,9.5625 L3.745125,7.992 L2.178,7.992 L2.178,9.5625 Z M6.881625,14.266125 L8.449875,14.266125 L8.449875,12.697875 L6.881625,12.697875 L6.881625,14.266125 Z M10.018125,14.266125 L11.586375,14.266125 L11.586375,12.697875 L10.018125,12.697875 L10.018125,14.266125 Z M13.1535,14.266125 L14.72175,14.266125 L14.72175,12.697875 L13.1535,12.697875 L13.1535,14.266125 Z M8.449875,9.5625 L10.018125,9.5625 L10.018125,7.992 L8.449875,7.992 L8.449875,9.5625 Z M14.72175,9.5625 L16.288875,9.5625 L16.288875,7.992 L14.72175,7.992 L14.72175,9.5625 Z M14.72175,12.699 L16.288875,12.699 L16.288875,11.129625 L14.72175,11.129625 L14.72175,12.699 Z M11.58525,6.426 L13.1535,6.426 L13.1535,4.8555 L11.58525,4.8555 L11.58525,6.426 Z" id="Stroke-324" stroke="#888888" stroke-width="0.14"></path>
                </g>
            </g>
        </g>
    </g>
</svg>