<?xml version="1.0" encoding="UTF-8" standalone="no"?>
<svg width="34px" height="35px" viewBox="0 0 34 35" version="1.1" xmlns="http://www.w3.org/2000/svg" xmlns:xlink="http://www.w3.org/1999/xlink">
    <!-- Generator: sketchtool 39.1 (31720) - http://www.bohemiancoding.com/sketch -->
    <title>AA572588-A300-4D8A-8C49-CF0D0700AEA8</title>
    <desc>Created with sketchtool.</desc>
    <defs></defs>
    <g id="Responsive-web" stroke="none" stroke-width="1" fill="none" fill-rule="evenodd">
        <g id="hotel_details_Amenities_Icons" transform="translate(-392.000000, -1000.000000)">
            <g id="Premium-bedding" transform="translate(392.000000, 1000.000000)">
                <circle id="Oval-36" fill-opacity="0.12" fill="#888888" cx="17" cy="17.0589284" r="17"></circle>
                <g id="Page-1" transform="translate(8.000000, 10.000000)" stroke-width="1.2" stroke="#888888">
                    <g id="Group-20">
                        <path d="M1.4516129,6.48214286 L1.4516129,2.0625 C1.4516129,0.923410714 2.36148387,0 3.48387097,0 L14.516129,0 C15.6385161,0 16.5483871,0.923410714 16.5483871,2.0625 L16.5483871,6.48214286" id="Stroke-6"></path>
                        <g id="Group-13" transform="translate(2.612903, 2.946429)">
                            <path d="M0,3.53571429 L0,1.47321429 C0,0.659410714 0.649741935,0 1.4516129,0 L4.35483871,0 C5.15670968,0 5.80645161,0.659410714 5.80645161,1.47321429 L5.80645161,3.53571429" id="Stroke-12"></path>
                        </g>
                        <path d="M9.58064516,6.48214286 L9.58064516,4.41964286 C9.58064516,3.60583929 10.2303871,2.94642857 11.0322581,2.94642857 L13.9354839,2.94642857 C14.7373548,2.94642857 15.3870968,3.60583929 15.3870968,4.41964286 L15.3870968,6.48214286" id="Stroke-14"></path>
                        <path d="M0.870967742,10.2857143 L17.1290323,10.2857143" id="Stroke-16"></path>
                        <path d="M18,8.54464286 L18,14.1428571 L16.8387097,14.1428571 L16.8387097,12.375 L1.16129032,12.375 L1.16129032,14.1428571 L0,14.1428571 L0,8.54464286 C0,7.40555357 0.909870968,6.48214286 2.03225806,6.48214286 L15.9677419,6.48214286 C17.090129,6.48214286 18,7.40555357 18,8.54464286 L18,8.54464286 Z" id="Stroke-18"></path>
                    </g>
                </g>
            </g>
        </g>
    </g>
</svg>