<?xml version="1.0" encoding="UTF-8" standalone="no"?>
<svg width="34px" height="35px" viewBox="0 0 34 35" version="1.1" xmlns="http://www.w3.org/2000/svg" xmlns:xlink="http://www.w3.org/1999/xlink">
    <!-- Generator: sketchtool 39.1 (31720) - http://www.bohemiancoding.com/sketch -->
    <title>252AD9A6-37C3-45D2-AF15-D6B46BE8B66B</title>
    <desc>Created with sketchtool.</desc>
    <defs></defs>
    <g id="Responsive-web" stroke="none" stroke-width="1" fill="none" fill-rule="evenodd">
        <g id="hotel_details_Amenities_Icons" transform="translate(-392.000000, -1045.000000)">
            <g id="Refrigerator-(on-request)" transform="translate(392.000000, 1045.000000)">
                <circle id="Oval-36" fill-opacity="0.12" fill="#888888" cx="17" cy="17.0589284" r="17"></circle>
                <path d="M12,14.1651837 L12,24.3605306 C12,24.7980408 12.2927755,25.1664898 12.6909796,25.2906531 C12.8070612,25.7017143 13.1262857,26 13.5090612,26 C13.8764082,26 14.1842449,25.7244898 14.3113469,25.3387755 L20.0331429,25.3387755 C20.1598776,25.7244898 20.4677143,26 20.8335918,26 C21.2053469,26 21.5146531,25.7189796 21.639551,25.3273878 C22.1237143,25.2697143 22.5039184,24.8597551 22.5039184,24.3605306 L22.5039184,14.1651837 L12,14.1651837 L12,14.1651837 Z M13.9653061,17.7754694 C13.9653061,17.9866939 13.7937551,18.1582449 13.5821633,18.1582449 C13.3705714,18.1582449 13.1990204,17.9866939 13.1990204,17.7754694 L13.1990204,16.0592245 C13.1990204,15.8476327 13.3705714,15.6760816 13.5821633,15.6760816 C13.7937551,15.6760816 13.9653061,15.8476327 13.9653061,16.0592245 L13.9653061,17.7754694 L13.9653061,17.7754694 Z M18.8179592,18.9954286 C18.5556735,19.0538367 18.2955918,18.8896327 18.2349796,18.628449 C18.174,18.366898 18.3385714,18.1071837 18.6001224,18.045102 C18.8624082,17.9859592 19.1232245,18.1497959 19.182,18.4102449 C19.2433469,18.672898 19.0787755,18.9329796 18.8179592,18.9954286 L18.8179592,18.9954286 Z M19.8630612,17.6983265 C19.486898,17.7850204 19.1140408,17.5517551 19.0277143,17.1752245 C18.9410204,16.802 19.1753878,16.4276735 19.5500816,16.3413469 C19.9251429,16.2553878 20.2983673,16.4890204 20.3839592,16.8633469 C20.4706531,17.2395102 20.2377551,17.6116327 19.8630612,17.6983265 L19.8630612,17.6983265 Z M22.5039184,13.5649388 L22.5039184,8.9782449 C22.5039184,8.44008163 22.0638367,8 21.5256735,8 L12.9786122,8 C12.440449,8 12,8.44008163 12,8.9782449 L12,13.5649388 L22.5039184,13.5649388 L22.5039184,13.5649388 Z M13.1990204,10.3980408 C13.1990204,10.1868163 13.3705714,10.0152653 13.5821633,10.0152653 C13.7937551,10.0152653 13.9653061,10.1868163 13.9653061,10.3980408 L13.9653061,11.852 C13.9653061,12.0635918 13.7937551,12.2351429 13.5821633,12.2351429 C13.3705714,12.2351429 13.1990204,12.0635918 13.1990204,11.852 L13.1990204,10.3980408 L13.1990204,10.3980408 Z" id="Fill-36" stroke="#888888" stroke-width="1.2"></path>
            </g>
        </g>
    </g>
</svg>