<?xml version="1.0" encoding="UTF-8" standalone="no"?>
<svg width="34px" height="34px" viewBox="0 0 34 34" version="1.1" xmlns="http://www.w3.org/2000/svg" xmlns:xlink="http://www.w3.org/1999/xlink">
    <!-- Generator: sketchtool 3.8.3 (29802) - http://www.bohemiancoding.com/sketch -->
    <title>853FF996-A324-406C-96FA-53C880BF47D5</title>
    <desc>Created with sketchtool.</desc>
    <defs></defs>
    <g id="Responsive-web" stroke="none" stroke-width="1" fill="none" fill-rule="evenodd">
        <g id="hotel_details_a1" transform="translate(-238.000000, -1408.000000)">
            <g id="Restaurant_icon" transform="translate(238.000000, 1408.000000)">
                <circle id="Oval-36" fill-opacity="0.12" fill="#888888" cx="17" cy="17" r="17"></circle>
                <g id="Page-1" transform="translate(8.000000, 8.000000)" stroke="#888888" stroke-width="1.2" stroke-linecap="round" stroke-linejoin="round">
                    <path d="M17.8203913,6.86543478 C17.8203913,4.48786957 15.8200435,2.56030435 13.4424783,2.56030435 C13.2405652,2.56030435 13.0104783,2.5923913 12.8156087,2.61978261 C12.0815217,1.29717391 10.6696957,0.391695652 9.04891304,0.391695652 C7.42891304,0.391695652 6.02569565,1.29717391 5.2916087,2.61978261 C5.09752174,2.5923913 4.90030435,2.56030435 4.69917391,2.56030435 C2.32082609,2.56030435 0.390913043,4.0676087 0.390913043,6.44595652 C0.390913043,8.82430435 2.31613043,10.3316087 4.69447826,10.3316087 L5.067,10.3316087 L5.067,17.375087 L13.6756957,17.375087 L13.6756957,11.1705652 C16.0235217,11.1635217 17.8203913,9.23986957 17.8203913,6.86543478 L17.8203913,6.86543478 Z" id="Stroke-1"></path>
                    <path d="M12.3230522,5.22334783 C13.779487,5.22334783 14.9197478,6.38317391 14.9197478,7.86543478" id="Stroke-3"></path>
                    <path d="M5.45838261,15.0270261 L13.2844696,15.0270261" id="Stroke-5"></path>
                </g>
            </g>
        </g>
    </g>
</svg>