<?xml version="1.0" encoding="UTF-8" standalone="no"?>
<svg width="35px" height="35px" viewBox="0 0 35 35" version="1.1" xmlns="http://www.w3.org/2000/svg" xmlns:xlink="http://www.w3.org/1999/xlink">
    <!-- Generator: sketchtool 39.1 (31720) - http://www.bohemiancoding.com/sketch -->
    <title>BE37677F-475D-474D-BD61-19BFDBAD1412</title>
    <desc>Created with sketchtool.</desc>
    <defs></defs>
    <g id="Responsive-web" stroke="none" stroke-width="1" fill="none" fill-rule="evenodd">
        <g id="hotel_details_Amenities_Icons" transform="translate(-391.000000, -653.000000)">
            <g id="Slippers" transform="translate(391.000000, 652.973000)">
                <path d="M34.5166,17.1465 C34.5166,26.5355 26.9066,34.1465 17.5166,34.1465 C8.1266,34.1465 0.5166,26.5355 0.5166,17.1465 C0.5166,7.7575 8.1266,0.1465 17.5166,0.1465 C26.9066,0.1465 34.5166,7.7575 34.5166,17.1465" id="Fill-282" fill="#F0F0F0"></path>
                <path d="M16.3184,14.6953 C17.1344,12.0583 17.2704,8.2163 14.5064,8.2693 C14.5064,8.2693 9.9744,8.3863 9.8454,13.3633 C9.8284,14.0083 9.8334,14.4983 9.8554,14.8883" id="Stroke-284" stroke="#888888" stroke-width="1.14" stroke-linecap="round" stroke-linejoin="round"></path>
                <path d="M10.8037,20.4121 C10.8537,21.0431 10.8977,21.7851 10.9347,22.6601 C10.9347,22.6601 11.1077,24.3771 13.0577,24.2621 C15.0087,24.1481 15.8107,23.8261 15.8397,22.3981 C15.8527,21.7341 15.6757,20.7561 15.5837,19.6371" id="Stroke-286" stroke="#888888" stroke-width="1.14" stroke-linecap="round" stroke-linejoin="round"></path>
                <path d="M11.3462,19.4609 C11.3462,19.4609 9.5452,17.4139 10.2782,15.8339 C11.0102,14.2539 13.3332,12.6659 13.3332,12.6659 L15.5012,15.2319 C15.5012,15.2319 17.4902,17.1539 14.9072,19.1289" id="Stroke-288" stroke="#888888" stroke-width="1.14" stroke-linecap="round" stroke-linejoin="round"></path>
                <path d="M13.334,12.666 L14.144,10.969" id="Stroke-290" stroke="#888888" stroke-width="1.14" stroke-linecap="round" stroke-linejoin="round"></path>
                <path d="M18.7378,16.5273 C17.9008,13.8883 17.7368,9.9723 20.5268,10.0253 C20.5268,10.0253 25.0578,10.1423 25.1868,15.1193 C25.2038,15.7653 25.1988,16.2563 25.1778,16.6443" id="Stroke-292" stroke="#888888" stroke-width="1.14" stroke-linecap="round" stroke-linejoin="round"></path>
                <path d="M24.2275,22.1699 C24.1785,22.8009 24.1345,23.5409 24.0965,24.4179 C24.0965,24.4179 23.9245,26.1349 21.9755,26.0219 C20.0245,25.9059 19.2215,25.5859 19.1925,24.1539 C19.1785,23.4919 19.3565,22.5119 19.4485,21.3949" id="Stroke-294" stroke="#888888" stroke-width="1.14" stroke-linecap="round" stroke-linejoin="round"></path>
                <path d="M23.6865,21.2187 C23.6865,21.2187 25.4875,19.1737 24.7545,17.5917 C24.0225,16.0117 21.6985,14.4237 21.6985,14.4237 L19.5315,16.9897 C19.5315,16.9897 17.5425,18.9117 20.1245,20.8847" id="Stroke-296" stroke="#888888" stroke-width="1.14" stroke-linecap="round" stroke-linejoin="round"></path>
                <path d="M21.6982,14.4238 L20.9332,12.6658" id="Stroke-298" stroke="#888888" stroke-width="1.14" stroke-linecap="round" stroke-linejoin="round"></path>
            </g>
        </g>
    </g>
</svg>