<?xml version="1.0" encoding="UTF-8" standalone="no"?>
<svg width="35px" height="35px" viewBox="0 0 35 35" version="1.1" xmlns="http://www.w3.org/2000/svg" xmlns:xlink="http://www.w3.org/1999/xlink">
    <!-- Generator: sketchtool 39.1 (31720) - http://www.bohemiancoding.com/sketch -->
    <title>DF7CF205-EF2E-45C5-A28B-928ED8B18925</title>
    <desc>Created with sketchtool.</desc>
    <defs></defs>
    <g id="Responsive-web" stroke="none" stroke-width="1" fill="none" fill-rule="evenodd">
        <g id="hotel_details_Amenities_Icons" transform="translate(-391.000000, -700.000000)">
            <g id="Turndown-service" transform="translate(391.000000, 699.973000)">
                <path d="M34.5166,17.2451 C34.5166,26.6341 26.9066,34.2451 17.5166,34.2451 C8.1266,34.2451 0.5166,26.6341 0.5166,17.2451 C0.5166,7.8561 8.1266,0.2451 17.5166,0.2451 C26.9066,0.2451 34.5166,7.8561 34.5166,17.2451" id="Fill-301" fill="#F0F0F0"></path>
                <path d="M26.3955,18.8311 L26.3955,24.1161 L25.2825,24.1161 L25.2825,22.4471 L10.2585,22.4471 L10.2585,24.1161 L9.1455,24.1161 L9.1455,18.8311 C9.1455,17.7551 10.0175,16.8821 11.0935,16.8821 L24.4485,16.8821 C25.5245,16.8821 26.3955,17.7551 26.3955,18.8311" id="Stroke-303" stroke="#888888"></path>
                <path d="M10.5371,16.8818 L10.5371,12.7088 C10.5371,11.6338 11.4081,10.7618 12.4851,10.7618 L23.0561,10.7618 C24.1321,10.7618 25.0051,11.6338 25.0051,12.7088 L25.0051,16.8818" id="Stroke-305" stroke="#888888"></path>
                <path d="M18.3267,16.8818 L18.3267,14.9348 C18.3267,14.1668 18.9497,13.5438 19.7177,13.5438 L22.5007,13.5438 C23.2687,13.5438 23.8917,14.1668 23.8917,14.9348 L23.8917,16.8818" id="Fill-307" fill="#FFFFFF"></path>
                <g id="Group-312" transform="translate(11.000000, 13.000000)">
                    <path d="M0.6494,3.8818 L0.6494,1.9348 C0.6494,1.1668 1.2724,0.5438 2.0414,0.5438 L4.8234,0.5438 C5.5914,0.5438 6.2144,1.1668 6.2144,1.9348 L6.2144,3.8818" id="Fill-309" fill="#F0F0F0"></path>
                    <path d="M0.6494,3.8818 L0.6494,1.9348 C0.6494,1.1668 1.2724,0.5438 2.0414,0.5438 L4.8234,0.5438 C5.5914,0.5438 6.2144,1.1668 6.2144,1.9348 L6.2144,3.8818" id="Stroke-311" stroke="#888888"></path>
                </g>
                <g id="Group-316" transform="translate(18.000000, 13.000000)">
                    <path d="M0.3267,3.8818 L0.3267,1.9348 C0.3267,1.1668 0.9497,0.5438 1.7177,0.5438 L4.5007,0.5438 C5.2687,0.5438 5.8917,1.1668 5.8917,1.9348 L5.8917,3.8818" id="Fill-313" fill="#F0F0F0"></path>
                    <path d="M0.3267,3.8818 L0.3267,1.9348 C0.3267,1.1668 0.9497,0.5438 1.7177,0.5438 L4.5007,0.5438 C5.2687,0.5438 5.8917,1.1668 5.8917,1.9348 L5.8917,3.8818" id="Stroke-315" stroke="#888888"></path>
                </g>
                <path d="M26.3955,18.8311 L26.3955,24.1161 L25.2825,24.1161 L25.2825,22.4471 L10.2585,22.4471 L10.2585,24.1161 L9.1455,24.1161 L9.1455,18.8311 C9.1455,17.7551 10.0175,16.8821 11.0935,16.8821 L24.4485,16.8821 C25.5245,16.8821 26.3955,17.7551 26.3955,18.8311 L26.3955,18.8311 Z" id="Stroke-317" stroke="#888888"></path>
            </g>
        </g>
    </g>
</svg>