<?xml version="1.0" encoding="UTF-8" standalone="no"?>
<svg width="34px" height="34px" viewBox="0 0 34 34" version="1.1" xmlns="http://www.w3.org/2000/svg" xmlns:xlink="http://www.w3.org/1999/xlink">
    <!-- Generator: sketchtool 3.8.3 (29802) - http://www.bohemiancoding.com/sketch -->
    <title>57CD6751-8924-4F7A-BEB0-9DEDA028E34C</title>
    <desc>Created with sketchtool.</desc>
    <defs></defs>
    <g id="Responsive-web" stroke="none" stroke-width="1" fill="none" fill-rule="evenodd">
        <g id="hotel_details_a1" transform="translate(-24.000000, -1309.000000)">
            <g id="Wifi_icon" transform="translate(24.000000, 1309.000000)">
                <path d="M17,34 C26.3888407,34 34,26.3888407 34,17 C34,7.61115925 26.3888407,0 17,0 C7.61115925,0 0,7.61115925 0,17 C0,26.3888407 7.61115925,34 17,34 Z" id="Oval-36" fill-opacity="0.12" fill="#888888"></path>
                <g id="Page-1" transform="translate(7.000000, 9.000000)" stroke="#888888" stroke-width="1.14" stroke-linecap="round" stroke-linejoin="round">
                    <path d="M9.85,15.5789474 C9.1876,15.5789474 8.65,15.0130526 8.65,14.3157895 C8.65,13.6185263 9.1876,13.0526316 9.85,13.0526316 C10.5124,13.0526316 11.05,13.6185263 11.05,14.3157895 C11.05,15.0130526 10.5124,15.5789474 9.85,15.5789474 Z" id="Stroke-1"></path>
                    <path d="M19.3016,3.59048421 C16.628,1.60227368 13.3736,0.4208 9.8504,0.4208 C6.328,0.4208 3.072,1.60227368 0.4,3.59048421" id="Stroke-3"></path>
                    <path d="M16.5344,6.87334737 C14.644,5.46618947 12.3424,4.63166316 9.8504,4.63166316 C7.3576,4.63166316 5.056,5.46618947 3.1656,6.87334737" id="Stroke-5"></path>
                    <path d="M13.76872,10.1562105 C12.66072,9.33178947 11.31112,8.84168421 9.85032,8.84168421 C8.38872,8.84168421 7.04072,9.33178947 5.93112,10.1562105" id="Stroke-7"></path>
                </g>
            </g>
        </g>
    </g>
</svg>