<svg id="99627d22-f940-41b3-a7e1-83285395dc48" data-name="Layer 1" xmlns="http://www.w3.org/2000/svg" xmlns:xlink="http://www.w3.org/1999/xlink" width="1055" height="322.63" viewBox="0 0 1055 322.63"><defs><linearGradient id="53c11dee-6775-4c94-9457-5879f0cbcaf1" x1="527.5" y1="322.63" x2="527.5" gradientUnits="userSpaceOnUse"><stop offset="0" stop-color="#e2effa"/><stop offset="0.41" stop-color="#dcecf9"/><stop offset="0.93" stop-color="#cde4f6"/><stop offset="1" stop-color="#cae3f6"/></linearGradient></defs><title>buildings</title><path d="M881,166.63V141.5a3.15,3.15,0,0,0-2.7-2.87H855.19c.65,0,.81-.45.81-1.11V121.67l3.19,1.12a1.75,1.75,0,0,0,.51.07,1.25,1.25,0,0,0,1.16-.77,1.16,1.16,0,0,0-.64-1.52L828,109.91v-.16l-22.75,7.85a1.2,1.2,0,0,0-.87,1.44,1.18,1.18,0,0,0,1.14.89,1.22,1.22,0,0,0,.3,0l3.18-.82v10.56H791.72c-1.31,0-2.72,1.77-2.72,3.08v33.92H764V140.69l5.52,2.27c.28.1.27.15.55.15a2.22,2.22,0,0,0,2.11-1.56,2.27,2.27,0,0,0-1.08-3.09L729,122.67V92.58c0-.82-.82-1.58-1.33-2L704.8,73.15a1.62,1.62,0,0,0-1.14-.25,2.2,2.2,0,0,0-1.35.25l-28,17.46a2.61,2.61,0,0,0-1.31,2V152l-14,3.62a2.41,2.41,0,0,0,.61,4.73,3.9,3.9,0,0,0,.76-.07l6.6-1.67v8H650V55a3.57,3.57,0,0,0-3.12-3.36H610V32.18a2.78,2.78,0,0,0-3-2.55H555.63A2.43,2.43,0,0,0,553,32.18V62.63H515.71c-1.57,0-1.71,2.19-1.71,3.77V166.63h-9V44a3.15,3.15,0,0,0-3.3-3.35H476V15c0-2-2-3.59-4-3.59S468,13,468,15V40.63H444.25A3.11,3.11,0,0,0,441,44V166.63h-7V3.59A3.94,3.94,0,0,0,428.28.44l-50.35,27.8A3.66,3.66,0,0,0,376,31.39v90.24h-8.78c-1.31,0-2.22,1.78-2.22,3.08v41.92H352V115l6.06,2.27a2.3,2.3,0,0,0,.82.15,2.4,2.4,0,0,0,.83-4.66L289.4,86.58A2.41,2.41,0,0,0,286.3,88a2.36,2.36,0,0,0,1.3,3.09l6.4,2.42V118L248,129.9a2.37,2.37,0,0,0-1.67,2.93,2.44,2.44,0,0,0,2.36,1.8,10,10,0,0,0,1.23-.08l7.07-1.67v33.74H238V153.28l3.44,1.47c.18.07.11.1.29.1a1.4,1.4,0,0,0,1.33-1c.3-.81.54-1.7-.27-2l-41.79-14v-.21l-30.59,10.32c-.83.22-1.69,1.07-1.48,1.9a1.37,1.37,0,0,0,1.33,1.17,9.61,9.61,0,0,0,1,0l4.76-1.08v16.77H132v-8.13l3.31,1.12a2.16,2.16,0,0,0,.57.07,1.29,1.29,0,0,0,1.19-.77,1.21,1.21,0,0,0-.74-1.52L104,146.75v-.16l-22.63,7.85a1.16,1.16,0,0,0-.81,1.44,1.21,1.21,0,0,0,1.17.89,6.46,6.46,0,0,0,.7,0l3.57-.82v10.72H0v156H1055v-156Z" opacity="0.45" fill="url(#53c11dee-6775-4c94-9457-5879f0cbcaf1)"/></svg>