<svg id="366a5c0f-937a-4eef-bfa6-fd5cf378e3a8" data-name="Layer 1" xmlns="http://www.w3.org/2000/svg" xmlns:xlink="http://www.w3.org/1999/xlink" width="392.82" height="107.91" viewBox="0 0 392.82 107.91"><defs><linearGradient id="54432596-6fd2-446c-b0f3-d35824f2c3a0" x1="220.41" y1="23.87" x2="220.41" y2="118.98" gradientTransform="translate(-24)" gradientUnits="userSpaceOnUse"><stop offset="0" stop-color="#fff"/><stop offset="1" stop-color="#fff" stop-opacity="0"/></linearGradient></defs><title>cloud2</title><g id="8add8301-7530-40f3-9737-6d01b54cd31e" data-name="Login-"><g id="1c372074-ce46-4e8e-9776-72c1dacbaa40" data-name="Desktop---Launch---Login---Forgot-Password-Confirmation" opacity="0.2"><g id="54376421-12ff-4c33-91ae-cd7f31194f1a" data-name="Large-Background"><path id="b5f26aa2-fbf0-4639-827b-7b47c5f01246" data-name="Imported-Layers-3" d="M113,62.51c11.37-16.37,28.76-26.83,48.25-26.83A54.14,54.14,0,0,1,182,39.83C199,15.53,224.88,0,253.89,0c69.48,0,92.6,107.91,138.93,107.91H0c37.83,0,58.64-48.16,99.16-48.16A36.09,36.09,0,0,1,113,62.51Z" fill="url(#54432596-6fd2-446c-b0f3-d35824f2c3a0)"/></g></g></g><g id="c7d5c714-e23d-491b-a3a8-83d0b184ba33" data-name="Login-"><g id="a7c3ecae-13f9-40e7-a133-60fd282f0b85" data-name="Desktop---Launch---Login---Forgot-Password-Confirmation" opacity="0.2"><g id="0eeec3d3-f04f-4c51-99bb-6998ab36e0ce" data-name="Large-Background"><path id="2cd8b935-72f0-4812-9d4c-96b2443a3faf" data-name="Imported-Layers-3" d="M113,62.51c11.37-16.37,28.76-26.83,48.25-26.83A54.14,54.14,0,0,1,182,39.83C199,15.53,224.88,0,253.89,0c69.48,0,92.6,107.91,138.93,107.91H0c37.83,0,58.64-48.16,99.16-48.16A36.09,36.09,0,0,1,113,62.51Z" fill="url(#54432596-6fd2-446c-b0f3-d35824f2c3a0)"/></g></g></g><g id="8b9535bc-3b08-4d0c-a5a6-83e4265f2a38" data-name="Login-"><g id="d02eba13-a24d-4c1f-a4ac-56117b91acea" data-name="Desktop---Launch---Login---Forgot-Password-Confirmation" opacity="0.2"><g id="cafcee77-5a88-4c97-a76e-e4af32cf1c48" data-name="Large-Background"><path id="b565e893-cb76-48fb-ae76-a68edbdf1622" data-name="Imported-Layers-3" d="M113,62.51c11.37-16.37,28.76-26.83,48.25-26.83A54.14,54.14,0,0,1,182,39.83C199,15.53,224.88,0,253.89,0c69.48,0,92.6,107.91,138.93,107.91H0c37.83,0,58.64-48.16,99.16-48.16A36.09,36.09,0,0,1,113,62.51Z" fill="url(#54432596-6fd2-446c-b0f3-d35824f2c3a0)"/></g></g></g></svg>