<svg id="ff78bc33-e1c4-4b52-bd22-862559eac2de" data-name="225ef1c1-74bd-4819-afea-bb1b1bb663cb" xmlns="http://www.w3.org/2000/svg" width="58.73" height="57.51" viewBox="0 0 58.73 57.51"><title>red_bub_il</title><path d="M23.39,11.33a1,1,0,0,0,1-.93,2.44,2.44,0,0,1,2.38-2.5h2.7A2.44,2.44,0,0,1,32,10.3s0,.07,0,.1a1,1,0,0,0,1,1H33a.94.94,0,0,0,1-.82s0-.05,0-.08a4.53,4.53,0,0,0-4.46-4.6H26.89a4.5,4.5,0,0,0-4.55,4.45s0,.07,0,.11C22.33,11,22.8,11.33,23.39,11.33Z" fill="#fff"/><path d="M42.35,30.35V16.19a3.41,3.41,0,0,0-3.13-3.3,2.61,2.61,0,0,0-.42,0h-21a3.42,3.42,0,0,0-3.44,3.29V30.93a3,3,0,0,0,3,2.94h.12a2.6,2.6,0,0,0,.42,0H39.63A3,3,0,0,0,42.28,31v-.19A3.3,3.3,0,0,0,42.35,30.35Zm-23,1.55H17.62a1.43,1.43,0,0,1-1.27-1.28V16.19a1.51,1.51,0,0,1,1.44-1.29h2.56l.15,17Zm15,0h-12v-17h12Zm3,0h-1v-17h2.74a1.42,1.42,0,0,1,1.27,1.27V30.63a1.49,1.49,0,0,1-.87,1.17,2.55,2.55,0,0,1-.65.09Z" fill="#fff"/><rect width="58.73" height="57.51" fill="#fff" opacity="0"/></svg>